{"glyphs":{"0":{"ha":694,"x_min":78,"x_max":617,"o":"m 347 -11 q 273 -3 310 -11 q 203 22 236 4 q 145 69 171 40 q 104 131 119 97 q 83 203 89 165 q 78 278 78 240 l 78 743 q 83 818 78 781 q 104 890 89 856 q 145 952 119 924 q 203 999 171 981 q 273 1024 236 1017 q 347 1032 310 1032 q 422 1024 385 1032 q 491 999 458 1017 q 549 952 524 981 q 590 890 575 924 q 611 818 606 856 q 617 743 617 781 l 617 278 q 611 203 617 240 q 590 131 606 165 q 549 69 575 97 q 491 22 524 40 q 422 -3 458 4 q 347 -11 385 -11 m 186 439 l 508 694 l 508 743 q 506 790 508 767 q 494 836 503 814 q 472 878 486 858 q 438 910 457 897 q 394 929 418 924 q 347 935 371 935 q 300 929 324 935 q 257 910 276 924 q 223 878 238 897 q 200 836 208 858 q 189 790 192 814 q 186 743 186 767 l 186 439 m 347 86 q 394 92 371 86 q 438 110 418 97 q 472 143 457 124 q 494 185 486 163 q 506 231 503 207 q 508 278 508 254 l 508 582 l 186 326 l 186 278 q 189 231 186 254 q 200 185 192 207 q 223 143 208 163 q 257 110 238 124 q 300 92 276 97 q 347 86 324 86 z "},"1":{"ha":694,"x_min":81,"x_max":443,"o":"m 335 0 l 335 906 l 140 753 l 81 821 l 335 1021 l 443 1021 l 443 0 l 335 0 z "},"2":{"ha":694,"x_min":86,"x_max":611,"o":"m 89 0 l 89 1 q 90 76 89 39 q 98 151 92 114 q 116 225 104 189 q 145 294 128 261 q 185 357 163 326 q 235 414 208 388 q 292 463 263 440 q 351 508 321 486 q 411 555 382 531 q 461 610 440 579 q 492 678 482 642 q 503 753 503 715 q 495 820 503 786 q 467 881 488 854 q 415 922 447 908 q 349 935 382 935 q 287 924 317 935 q 235 891 257 914 q 204 838 214 868 q 194 776 194 808 l 194 771 l 86 771 l 86 779 q 94 848 86 814 q 118 912 101 882 q 160 966 135 942 q 215 1006 185 990 q 280 1026 246 1021 q 349 1032 314 1032 q 421 1025 385 1032 q 489 1000 457 1018 q 545 955 521 982 q 585 894 569 928 q 606 825 600 861 q 611 753 611 789 q 602 673 611 713 q 574 598 593 633 q 528 532 556 563 q 471 476 501 501 q 408 426 440 450 q 347 374 376 401 q 291 317 317 347 q 246 251 265 286 q 215 176 226 215 q 200 97 204 138 l 606 97 l 606 0 l 89 0 z "},"3":{"ha":694,"x_min":75,"x_max":628,"o":"m 351 -11 q 281 -6 315 -11 q 213 15 246 0 q 154 53 181 29 q 110 108 128 78 q 83 174 92 139 q 75 244 75 208 l 75 250 l 183 250 l 183 246 q 195 182 183 214 q 231 128 207 150 q 286 96 254 106 q 351 86 318 86 q 420 99 386 86 q 477 138 454 111 q 510 200 500 165 q 519 271 519 235 q 513 328 519 300 q 493 383 507 357 q 458 428 479 408 q 410 460 436 449 q 354 476 383 472 q 296 479 325 479 l 296 576 q 349 579 322 576 q 399 592 375 582 q 443 622 424 603 q 474 664 463 640 q 492 714 486 688 q 497 767 497 740 q 490 829 497 799 q 463 885 482 860 q 413 922 443 910 q 351 935 383 935 q 292 924 321 935 q 242 890 263 913 q 214 837 222 867 q 206 776 206 807 l 206 771 l 97 771 l 97 781 q 105 847 97 814 q 128 910 113 881 q 167 965 143 940 q 221 1004 190 989 q 285 1026 251 1019 q 351 1032 318 1032 q 420 1025 386 1032 q 484 1002 454 1018 q 538 960 514 986 q 576 903 561 935 q 599 838 592 872 q 606 769 606 804 q 597 696 606 732 q 569 627 588 660 q 522 569 550 594 q 461 529 494 544 q 531 487 499 514 q 585 425 564 460 q 617 349 607 390 q 628 268 628 308 q 620 194 628 231 q 596 124 613 157 q 553 65 579 92 q 494 20 526 38 q 424 -4 461 3 q 351 -11 388 -11 z "},"4":{"ha":694,"x_min":78,"x_max":606,"o":"m 408 0 l 408 269 l 78 269 l 78 367 l 403 1021 l 515 1021 l 190 367 l 408 367 l 408 617 l 517 617 l 517 367 l 606 367 l 606 269 l 517 269 l 517 0 l 408 0 z "},"5":{"ha":694,"x_min":86,"x_max":617,"o":"m 350 -11 q 281 -5 315 -11 q 217 17 247 1 q 162 56 186 32 q 121 110 138 81 q 96 174 104 140 q 86 242 88 208 l 194 242 q 206 181 196 211 q 238 129 217 151 q 290 97 260 107 q 350 86 319 86 q 403 96 378 86 q 448 125 429 106 q 478 169 467 144 q 497 219 490 193 q 506 273 504 246 q 508 326 508 300 q 506 381 508 354 q 498 433 504 407 q 480 483 492 458 q 450 528 468 508 q 406 557 432 547 q 354 567 381 567 q 302 561 328 567 q 255 540 276 556 q 221 501 233 525 q 207 451 208 478 l 99 451 l 99 1021 l 579 1021 l 579 924 l 207 924 l 207 632 q 278 657 240 650 q 354 664 317 664 q 434 653 394 664 q 506 618 474 643 q 560 559 538 593 q 594 486 582 525 q 612 407 607 447 q 617 326 617 367 q 612 246 617 286 q 594 167 607 206 q 558 94 581 128 q 503 35 536 60 q 431 -1 471 10 q 350 -11 390 -11 z "},"6":{"ha":694,"x_min":78,"x_max":617,"o":"m 347 -11 q 269 -2 308 -11 q 198 28 231 7 q 141 82 165 50 q 103 151 117 114 q 83 226 89 188 q 78 306 78 265 q 90 431 78 368 q 122 553 101 493 q 170 670 143 613 q 226 783 197 728 l 344 1021 l 464 1021 l 322 740 q 278 649 300 694 q 238 556 256 603 q 269 585 251 572 q 306 606 286 597 q 348 617 326 614 q 390 621 369 621 q 463 610 426 621 q 526 574 499 599 q 571 517 553 550 q 599 450 589 485 q 613 378 610 415 q 617 306 617 342 q 611 226 617 265 q 592 151 606 188 q 553 82 578 114 q 497 28 529 50 q 425 -2 464 7 q 347 -11 386 -11 m 347 86 q 397 94 372 86 q 442 118 422 101 q 476 157 463 135 q 496 203 489 179 q 506 253 503 228 q 508 306 508 279 q 506 356 508 331 q 496 406 503 382 q 476 453 489 431 q 442 492 463 475 q 397 516 422 508 q 347 524 372 524 q 301 518 324 524 q 260 499 279 513 q 228 465 242 485 q 205 424 214 446 q 192 380 196 403 q 186 335 188 357 l 186 306 q 189 253 186 279 q 199 203 192 228 q 219 157 206 179 q 252 118 232 135 q 297 94 272 101 q 347 86 322 86 z "},"7":{"ha":694,"x_min":89,"x_max":606,"o":"m 203 0 l 493 924 l 89 924 l 89 1021 l 606 1021 l 606 924 l 314 0 l 203 0 z "},"8":{"ha":694,"x_min":78,"x_max":617,"o":"m 347 -11 q 280 -6 314 -11 q 215 13 246 -1 q 157 49 183 26 q 113 100 131 71 q 86 162 94 129 q 78 229 78 194 q 93 317 78 274 q 134 398 108 361 q 193 465 160 435 q 263 524 226 496 q 199 579 229 550 q 147 644 169 608 q 112 719 125 679 q 99 801 99 760 q 106 865 99 833 q 130 924 114 896 q 170 973 146 951 q 223 1008 194 994 q 283 1027 251 1022 q 347 1032 315 1032 q 411 1027 379 1032 q 472 1008 443 1022 q 524 973 500 994 q 565 924 549 951 q 588 865 581 896 q 596 801 596 833 q 583 719 596 760 q 547 644 569 679 q 495 579 525 608 q 432 524 465 550 q 501 465 468 496 q 560 398 535 435 q 601 317 586 361 q 617 229 617 274 q 608 162 617 194 q 582 100 600 129 q 538 49 564 71 q 480 13 511 26 q 415 -6 449 -1 q 347 -11 381 -11 m 347 585 q 399 628 374 606 q 443 676 424 650 q 475 735 463 703 q 488 800 488 767 q 478 853 488 826 q 449 899 468 881 q 402 926 429 918 q 347 935 375 935 q 292 926 319 935 q 246 899 265 918 q 217 853 226 881 q 207 800 207 826 q 219 735 207 767 q 251 676 232 703 q 296 628 271 650 q 347 585 321 606 m 347 86 q 408 94 378 86 q 462 122 439 101 q 497 171 485 142 q 508 231 508 200 q 494 302 508 268 q 456 365 479 336 q 405 417 433 393 q 347 461 376 440 q 290 417 318 440 q 238 365 261 393 q 201 302 215 336 q 186 231 186 268 q 198 171 186 200 q 233 122 210 142 q 286 94 256 101 q 347 86 317 86 z "},"9":{"ha":694,"x_min":78,"x_max":617,"o":"m 350 0 l 231 0 l 372 281 q 417 372 394 326 q 457 465 439 418 q 426 436 443 449 q 388 415 408 424 q 347 403 368 407 q 304 400 325 400 q 232 411 268 400 q 169 447 196 422 q 124 503 142 471 q 95 571 106 536 q 81 642 85 606 q 78 715 78 679 q 83 794 78 756 q 103 870 89 833 q 141 939 117 907 q 198 992 165 971 q 269 1023 231 1014 q 347 1032 308 1032 q 425 1023 386 1032 q 497 992 464 1014 q 553 939 529 971 q 592 870 578 907 q 611 794 606 833 q 617 715 617 756 q 605 590 617 653 q 572 468 593 528 q 524 351 551 408 q 468 238 497 293 l 350 0 m 347 497 q 393 503 371 497 q 434 522 415 508 q 467 556 453 536 q 490 597 481 575 q 503 641 499 618 q 508 686 507 664 l 508 715 q 506 767 508 742 q 496 817 503 793 q 476 864 489 842 q 442 903 463 886 q 397 927 422 919 q 347 935 372 935 q 297 927 322 935 q 252 903 272 919 q 219 864 232 886 q 199 817 206 842 q 189 767 192 793 q 186 715 186 742 q 189 665 186 690 q 199 615 192 639 q 219 568 206 590 q 252 529 232 546 q 297 505 272 513 q 347 497 322 497 z "},"\r":{"ha":0,"x_min":0,"x_max":0,"o":""}," ":{"ha":694,"x_min":0,"x_max":0,"o":""},"!":{"ha":694,"x_min":249,"x_max":444,"o":"m 293 361 l 293 1021 l 401 1021 l 401 361 l 293 361 m 347 -11 q 308 -6 328 -11 q 275 15 289 0 q 255 48 261 29 q 249 88 249 67 q 255 126 249 107 q 275 159 261 144 q 308 179 289 174 q 347 185 328 185 q 386 179 367 185 q 419 159 406 174 q 439 126 433 144 q 444 88 444 107 q 439 48 444 67 q 419 15 433 29 q 386 -6 406 0 q 347 -11 367 -11 z "},"\"":{"ha":694,"x_min":149,"x_max":546,"o":"m 260 614 l 157 614 q 151 842 153 728 q 149 1072 149 957 l 268 1072 q 266 842 268 957 q 260 614 264 728 m 538 614 l 435 614 q 428 842 431 728 q 426 1072 426 957 l 546 1072 q 544 842 546 957 q 538 614 542 728 z "},"#":{"ha":694,"x_min":43,"x_max":651,"o":"m 164 25 l 164 268 l 43 268 l 43 365 l 164 365 l 164 656 l 43 656 l 43 753 l 164 753 l 164 996 l 267 996 l 267 753 l 428 753 l 428 996 l 531 996 l 531 753 l 651 753 l 651 656 l 531 656 l 531 365 l 651 365 l 651 268 l 531 268 l 531 25 l 428 25 l 428 268 l 267 268 l 267 25 l 164 25 m 267 365 l 428 365 l 428 656 l 267 656 l 267 365 z "},"$":{"ha":694,"x_min":75,"x_max":617,"o":"m 297 -149 l 297 42 q 209 67 251 47 q 135 120 167 86 q 90 198 104 154 q 75 288 75 242 l 75 301 l 183 301 l 183 293 q 191 240 183 267 q 215 193 199 214 q 254 159 231 172 q 303 140 278 146 l 303 472 q 222 516 261 490 q 153 576 183 542 q 106 655 124 611 q 89 744 89 699 q 103 829 89 788 q 146 903 117 871 q 215 954 175 936 q 297 978 254 972 l 297 1171 l 397 1171 l 397 978 q 483 953 442 974 q 552 899 524 933 q 594 821 581 864 q 608 733 608 778 l 608 719 l 500 719 l 500 728 q 494 778 500 753 q 474 824 488 803 q 438 860 460 846 q 392 879 417 874 l 392 554 q 475 509 435 535 q 547 449 515 483 q 598 369 579 414 q 617 276 617 324 q 601 190 617 232 q 556 115 586 147 q 483 65 525 83 q 397 43 442 47 l 397 -149 l 297 -149 m 303 594 l 303 879 q 260 863 281 875 q 225 832 239 850 q 203 791 211 814 q 196 744 196 768 q 204 697 196 719 q 228 654 213 674 q 263 620 243 635 q 303 594 282 606 m 392 140 q 438 157 415 146 q 476 187 460 168 q 501 229 493 206 q 510 278 510 253 q 500 328 510 303 q 474 372 490 353 q 435 406 457 392 q 392 433 414 421 l 392 140 z "},"%":{"ha":694,"x_min":33,"x_max":661,"o":"m 196 500 q 134 508 165 500 q 79 535 103 515 q 44 585 56 556 q 33 646 33 615 l 33 886 q 44 947 33 917 q 79 997 56 976 q 134 1024 103 1017 q 196 1032 165 1032 q 258 1024 226 1032 q 313 997 289 1017 q 347 947 336 976 q 358 886 358 917 l 358 646 q 347 585 358 615 q 313 535 336 556 q 258 508 289 515 q 196 500 226 500 m 399 599 l 538 1021 l 650 1021 l 501 599 l 399 599 m 196 586 q 221 590 208 586 q 243 601 233 593 q 258 621 253 608 q 263 646 263 633 l 263 886 q 258 910 263 899 q 243 931 253 922 q 221 942 233 939 q 196 946 208 946 q 171 942 183 946 q 149 931 158 939 q 134 910 139 922 q 129 886 129 899 l 129 646 q 134 621 129 633 q 149 601 139 608 q 171 590 158 593 q 196 586 183 586 m 499 -11 q 437 -3 468 -11 q 382 24 406 4 q 347 74 358 44 q 336 136 336 104 l 336 375 q 347 435 336 406 q 382 485 358 465 q 437 513 406 506 q 499 521 468 521 q 560 513 529 521 q 615 485 592 506 q 650 435 639 465 q 661 375 661 406 l 661 136 q 650 74 661 104 q 615 24 639 44 q 560 -3 592 4 q 499 -11 529 -11 m 499 75 q 524 78 511 75 q 546 90 536 82 q 560 110 556 99 q 565 136 565 122 l 565 375 q 560 400 565 388 q 546 420 556 413 q 524 431 536 428 q 499 435 511 435 q 474 431 486 435 q 451 420 461 428 q 437 400 442 413 q 432 375 432 388 l 432 136 q 437 110 432 122 q 451 90 442 99 q 474 78 461 82 q 499 75 486 75 m 44 0 l 193 422 l 296 422 l 157 0 l 44 0 z "},"&":{"ha":694,"x_min":78,"x_max":671,"o":"m 318 -11 q 251 -3 285 -11 q 188 24 217 6 q 138 71 160 43 q 103 130 117 99 q 84 195 90 161 q 78 264 78 229 q 89 346 78 306 q 120 422 100 386 q 168 489 140 458 q 228 547 196 519 q 187 610 207 578 q 151 675 167 642 q 124 744 135 708 q 114 818 114 781 q 127 901 114 860 q 169 973 140 942 q 238 1018 197 1004 q 319 1032 278 1032 q 402 1018 361 1032 q 471 973 443 1004 q 512 901 499 942 q 525 818 525 860 q 512 733 525 775 q 476 655 499 692 q 422 588 453 618 q 358 529 392 557 q 369 510 364 519 q 379 493 375 501 l 504 282 l 561 429 l 668 429 l 585 215 q 576 194 581 204 q 568 174 572 183 l 671 0 l 553 0 l 503 85 q 458 36 483 58 q 400 3 432 14 q 360 -8 381 -4 q 318 -11 339 -11 m 304 613 l 306 614 q 349 656 328 633 q 385 703 369 678 q 411 758 401 729 q 421 817 421 786 q 415 861 421 839 q 397 901 410 883 q 363 928 383 919 q 319 938 342 938 q 276 928 297 938 q 242 901 256 919 q 224 860 229 882 q 219 817 219 839 q 227 760 219 788 q 247 708 235 733 q 274 660 258 683 q 304 613 289 636 m 328 83 q 367 90 347 83 q 402 107 386 96 q 431 133 418 118 q 454 167 444 149 l 290 444 q 285 453 288 449 q 281 461 282 457 q 241 420 260 442 q 209 374 222 399 q 189 321 196 349 q 182 264 182 293 q 185 222 182 243 q 197 179 189 200 q 217 140 204 158 q 247 108 229 121 q 285 89 264 94 q 328 83 306 83 z "},"'":{"ha":694,"x_min":288,"x_max":407,"o":"m 399 614 l 296 614 q 290 842 292 728 q 288 1072 288 957 l 407 1072 q 405 842 407 957 q 399 614 403 728 z "},"(":{"ha":694,"x_min":160,"x_max":569,"o":"m 517 -224 q 405 -145 457 -190 q 311 -45 353 -100 q 240 72 269 10 q 193 201 211 135 q 167 335 175 267 q 160 472 160 404 q 167 609 160 540 q 193 744 175 678 q 240 872 211 810 q 311 990 269 935 q 405 1090 353 1044 q 517 1168 457 1135 l 569 1083 q 433 971 493 1039 q 335 822 372 903 q 283 651 297 740 q 268 472 268 561 q 283 294 268 383 q 335 123 297 204 q 433 -26 372 42 q 569 -139 493 -94 l 517 -224 z "},")":{"ha":694,"x_min":125,"x_max":535,"o":"m 178 -224 l 125 -139 q 262 -26 201 -94 q 360 123 322 42 q 412 294 397 204 q 426 472 426 383 q 412 651 426 561 q 360 822 397 740 q 262 971 322 903 q 125 1083 201 1039 l 178 1168 q 290 1090 238 1135 q 383 990 342 1044 q 454 872 425 935 q 501 744 483 810 q 527 609 519 678 q 535 472 535 540 q 527 335 535 404 q 501 201 519 267 q 454 72 483 135 q 383 -45 425 10 q 290 -145 342 -100 q 178 -224 238 -190 z "},"*":{"ha":694,"x_min":53,"x_max":642,"o":"m 219 578 l 132 635 l 278 821 l 53 886 l 86 978 l 301 900 l 293 1133 l 401 1133 l 393 900 l 608 978 l 642 886 l 417 821 l 563 635 l 475 578 l 347 767 l 219 578 z "},"+":{"ha":694,"x_min":89,"x_max":606,"o":"m 296 204 l 296 426 l 89 426 l 89 518 l 296 518 l 296 740 l 399 740 l 399 518 l 606 518 l 606 426 l 399 426 l 399 204 l 296 204 z "},",":{"ha":694,"x_min":217,"x_max":456,"o":"m 299 -299 l 217 -236 q 298 -131 261 -186 q 353 -11 335 -75 l 346 -11 q 303 -4 325 -11 q 267 18 282 3 q 245 54 251 33 q 239 97 239 75 q 245 140 239 119 q 267 177 251 161 q 304 199 283 193 q 347 206 325 206 q 392 199 369 206 q 429 176 414 192 q 450 138 444 160 q 456 93 456 115 q 443 -14 456 39 q 410 -116 431 -67 q 360 -211 389 -165 q 299 -299 332 -257 z "},"-":{"ha":694,"x_min":89,"x_max":606,"o":"m 606 424 l 89 424 l 89 521 l 606 521 l 606 424 z "},".":{"ha":694,"x_min":239,"x_max":456,"o":"m 347 -11 q 304 -5 325 -11 q 267 17 283 1 q 245 54 251 33 q 239 97 239 75 q 245 140 239 119 q 267 177 251 161 q 304 199 283 193 q 347 206 325 206 q 390 199 369 206 q 427 177 411 193 q 449 140 443 161 q 456 97 456 119 q 449 54 456 75 q 427 17 443 33 q 390 -5 411 1 q 347 -11 369 -11 z "},"/":{"ha":694,"x_min":82,"x_max":613,"o":"m 193 -199 l 82 -199 l 501 1143 l 613 1143 l 193 -199 z "},":":{"ha":694,"x_min":239,"x_max":456,"o":"m 347 -11 q 304 -5 325 -11 q 267 17 283 1 q 245 54 251 33 q 239 97 239 75 q 245 140 239 119 q 267 177 251 161 q 304 199 283 193 q 347 206 325 206 q 390 199 369 206 q 427 177 411 193 q 449 140 443 161 q 456 97 456 119 q 449 54 456 75 q 427 17 443 33 q 390 -5 411 1 q 347 -11 369 -11 m 347 517 q 304 523 325 517 q 267 545 283 529 q 245 582 251 561 q 239 625 239 603 q 245 668 239 647 q 267 705 251 689 q 304 727 283 721 q 347 733 325 733 q 390 727 369 733 q 427 705 411 721 q 449 668 443 689 q 456 625 456 647 q 449 582 456 603 q 427 545 443 561 q 390 523 411 529 q 347 517 369 517 z "},";":{"ha":694,"x_min":217,"x_max":456,"o":"m 299 -299 l 217 -236 q 298 -131 261 -186 q 353 -11 335 -75 l 346 -11 q 303 -4 325 -11 q 267 18 282 3 q 245 54 251 33 q 239 97 239 75 q 245 140 239 119 q 267 177 251 161 q 304 199 283 193 q 347 206 325 206 q 392 199 369 206 q 429 176 414 192 q 450 138 444 160 q 456 93 456 115 q 443 -14 456 39 q 410 -116 431 -67 q 360 -211 389 -165 q 299 -299 332 -257 m 347 517 q 304 523 325 517 q 267 545 283 529 q 245 582 251 561 q 239 625 239 603 q 245 668 239 647 q 267 705 251 689 q 304 727 283 721 q 347 733 325 733 q 390 727 369 733 q 427 705 411 721 q 449 668 443 689 q 456 625 456 647 q 449 582 456 603 q 427 545 443 561 q 390 523 411 529 q 347 517 369 517 z "},"<":{"ha":694,"x_min":89,"x_max":632,"o":"m 579 115 l 89 418 l 89 526 l 579 829 l 632 751 l 178 472 l 632 193 l 579 115 z "},"=":{"ha":694,"x_min":89,"x_max":606,"o":"m 89 550 l 89 643 l 606 643 l 606 550 l 89 550 m 606 301 l 89 301 l 89 394 l 606 394 l 606 301 z "},">":{"ha":694,"x_min":63,"x_max":606,"o":"m 115 115 l 63 193 l 517 472 l 63 751 l 115 829 l 606 526 l 606 418 l 115 115 z "},"?":{"ha":694,"x_min":86,"x_max":606,"o":"m 293 307 q 296 374 293 340 q 308 440 299 407 q 333 502 317 472 q 370 559 350 532 q 413 611 390 586 q 454 664 435 636 q 485 724 474 692 q 497 789 497 756 q 487 847 497 818 q 455 897 476 876 q 404 926 433 917 q 346 935 375 935 q 285 925 315 935 q 235 892 256 915 q 204 840 214 869 q 194 779 194 810 l 194 771 l 86 771 l 86 783 q 94 851 86 818 q 117 915 101 885 q 158 968 133 944 q 214 1006 183 992 q 278 1026 244 1021 q 346 1032 313 1032 q 413 1026 379 1032 q 476 1007 446 1021 q 532 970 507 993 q 574 918 557 947 q 598 856 590 889 q 606 789 606 822 q 598 722 606 756 q 577 658 590 689 q 546 599 564 628 q 507 544 528 571 q 464 492 486 518 q 426 437 442 467 q 406 374 411 407 q 401 307 401 340 l 293 307 m 347 -11 q 308 -6 328 -11 q 275 15 289 0 q 256 48 261 29 q 250 88 250 67 q 256 126 250 107 q 275 159 261 144 q 308 179 289 174 q 347 185 328 185 q 386 179 367 185 q 419 159 406 174 q 440 126 433 144 q 446 88 446 107 q 440 48 446 67 q 419 15 433 29 q 386 -6 406 0 q 347 -11 367 -11 z "},"@":{"ha":694,"x_min":89,"x_max":606,"o":"m 557 -107 l 347 -107 q 275 -99 311 -107 q 208 -74 239 -92 q 153 -28 176 -56 q 115 33 129 0 q 94 103 100 67 q 89 175 89 139 l 89 769 q 94 842 89 806 q 115 911 100 878 q 153 972 129 944 q 208 1018 176 1000 q 275 1044 239 1036 q 347 1051 311 1051 q 419 1044 383 1051 q 487 1018 456 1036 q 542 972 518 1000 q 580 911 565 944 q 600 842 594 878 q 606 769 606 806 l 606 311 q 603 265 606 288 q 592 219 600 242 q 570 178 583 197 q 538 145 557 158 q 496 126 519 132 q 450 121 472 121 q 403 126 426 121 q 361 145 381 132 q 328 178 342 158 q 308 219 315 197 q 297 265 300 242 q 293 311 293 288 l 293 576 q 297 624 293 600 q 308 669 300 647 q 331 711 317 692 q 365 743 346 731 q 408 761 385 756 q 456 767 432 767 l 510 767 l 510 769 q 506 816 510 793 q 494 860 503 839 q 470 901 485 882 q 436 932 456 919 q 394 949 417 944 q 347 954 371 954 q 301 949 324 954 q 258 932 278 944 q 224 901 239 919 q 201 860 210 882 q 188 816 192 839 q 185 769 185 793 l 185 175 q 188 128 185 151 q 201 84 192 106 q 224 44 210 63 q 258 13 239 25 q 301 -4 278 1 q 347 -10 324 -10 l 557 -10 l 557 -107 m 450 207 q 480 219 467 207 q 499 246 493 231 q 508 278 506 261 q 510 311 510 294 l 510 681 l 456 681 q 424 670 439 681 q 402 644 410 660 q 392 610 394 628 q 390 576 390 593 l 390 311 q 392 278 390 294 q 401 246 394 261 q 420 219 407 231 q 450 207 433 207 z "},"A":{"ha":694,"x_min":61,"x_max":633,"o":"m 61 0 l 210 681 l 285 1021 l 410 1021 l 633 0 l 522 0 l 468 264 l 226 264 l 172 0 l 61 0 m 246 361 l 449 361 l 383 681 q 365 769 374 725 q 347 858 356 814 q 330 769 339 814 q 311 681 321 725 l 246 361 z "},"B":{"ha":694,"x_min":89,"x_max":628,"o":"m 89 0 l 89 1021 l 324 1021 q 395 1015 360 1021 q 463 992 431 1008 q 520 951 494 976 q 563 892 546 925 q 585 824 579 860 q 592 753 592 789 q 585 685 592 719 q 563 622 579 651 q 521 569 546 593 q 465 532 496 546 q 534 494 501 518 q 588 438 567 471 q 619 365 610 404 q 628 286 628 326 q 620 208 628 247 q 593 133 613 168 q 544 72 574 99 q 478 29 514 46 q 402 6 442 13 q 324 0 363 0 l 89 0 m 197 578 l 324 578 q 390 589 357 578 q 444 626 422 600 q 475 684 467 651 q 483 751 483 717 q 475 817 483 785 q 444 876 467 850 q 390 913 422 901 q 324 924 357 924 l 197 924 l 197 578 m 324 97 q 376 101 350 97 q 424 117 401 106 q 467 147 447 128 q 499 188 486 165 q 515 237 511 211 q 519 289 519 263 q 515 340 519 314 q 499 390 511 367 q 467 431 486 413 q 425 460 449 449 q 376 476 401 472 q 324 481 350 481 l 197 481 l 197 97 l 324 97 z "},"C":{"ha":694,"x_min":78,"x_max":608,"o":"m 343 -11 q 270 -4 307 -11 q 201 21 233 3 q 144 67 169 39 q 104 128 119 94 q 83 198 89 161 q 78 271 78 235 l 78 750 q 83 823 78 786 q 104 893 89 860 q 144 954 119 926 q 201 1000 169 982 q 270 1025 233 1018 q 343 1032 307 1032 q 412 1026 378 1032 q 477 1006 446 1021 q 534 966 508 990 q 576 912 560 942 q 601 848 593 882 q 608 779 608 814 l 608 771 l 500 771 l 500 776 q 490 839 500 808 q 458 892 481 869 q 406 925 436 915 q 343 935 375 935 q 276 921 308 935 q 222 880 243 907 q 194 819 201 853 q 186 750 186 785 l 186 271 q 194 202 186 236 q 222 141 201 168 q 276 100 243 114 q 343 86 308 86 q 406 96 375 86 q 458 128 436 106 q 490 182 481 151 q 500 244 500 213 l 500 250 l 608 250 l 608 242 q 601 173 608 207 q 576 109 593 139 q 534 55 560 79 q 477 15 508 31 q 412 -6 446 0 q 343 -11 378 -11 z "},"D":{"ha":694,"x_min":89,"x_max":617,"o":"m 89 0 l 89 1021 l 308 1021 q 389 1014 349 1021 q 466 990 429 1007 q 533 944 503 972 q 583 881 564 917 q 609 804 601 844 q 617 724 617 764 l 617 299 q 609 217 617 257 q 583 140 601 176 q 533 76 564 104 q 466 31 503 49 q 389 7 429 14 q 308 0 349 0 l 89 0 m 197 97 l 308 97 q 361 102 335 97 q 412 119 388 107 q 456 150 436 131 q 487 194 475 169 q 503 244 499 218 q 508 299 508 271 l 508 724 q 503 776 508 750 q 487 827 499 803 q 456 871 475 851 q 412 902 436 890 q 361 919 388 914 q 307 924 335 924 l 197 924 l 197 97 z "},"E":{"ha":694,"x_min":100,"x_max":606,"o":"m 100 0 l 100 1021 l 606 1021 l 606 924 l 208 924 l 208 579 l 528 579 l 528 482 l 208 482 l 208 97 l 606 97 l 606 0 l 100 0 z "},"F":{"ha":694,"x_min":133,"x_max":606,"o":"m 133 0 l 133 1021 l 606 1021 l 606 924 l 242 924 l 242 579 l 528 579 l 528 482 l 242 482 l 242 0 l 133 0 z "},"G":{"ha":694,"x_min":78,"x_max":608,"o":"m 299 -11 q 232 -2 265 -11 q 172 28 199 7 q 126 77 144 49 q 97 138 107 106 q 82 203 86 169 q 78 271 78 238 l 78 750 q 83 823 78 786 q 104 893 89 860 q 144 954 119 926 q 201 1000 169 982 q 270 1025 233 1018 q 343 1032 307 1032 q 412 1026 378 1032 q 477 1006 446 1021 q 534 966 508 990 q 576 912 560 942 q 601 848 593 882 q 608 779 608 814 l 608 771 l 500 771 l 500 776 q 490 839 500 808 q 458 892 481 869 q 406 925 436 915 q 343 935 375 935 q 276 922 308 935 q 222 881 243 908 q 194 819 201 853 q 186 750 186 785 l 186 271 q 189 226 186 249 q 200 181 192 203 q 222 141 208 160 q 255 110 236 122 q 297 92 274 97 q 342 86 319 86 q 387 92 364 86 q 428 110 410 97 q 461 141 447 122 q 483 181 475 160 q 494 226 492 203 q 497 271 497 249 l 497 458 l 347 458 l 347 556 l 606 556 l 606 0 l 508 0 l 508 164 q 481 94 499 128 q 436 36 464 61 q 372 0 408 11 q 299 -11 336 -11 z "},"H":{"ha":694,"x_min":89,"x_max":606,"o":"m 89 0 l 89 1021 l 197 1021 l 197 576 l 497 576 l 497 1021 l 606 1021 l 606 0 l 497 0 l 497 479 l 197 479 l 197 0 l 89 0 z "},"I":{"ha":694,"x_min":104,"x_max":590,"o":"m 104 0 l 104 97 l 293 97 l 293 924 l 104 924 l 104 1021 l 590 1021 l 590 924 l 401 924 l 401 97 l 590 97 l 590 0 l 104 0 z "},"J":{"ha":694,"x_min":64,"x_max":571,"o":"m 318 -11 q 250 -5 283 -11 q 187 17 217 1 q 133 56 157 32 q 94 111 110 81 q 71 175 78 142 q 64 242 64 208 l 64 250 l 172 250 l 172 244 q 181 184 172 214 q 209 131 189 154 q 258 97 229 108 q 318 86 288 86 q 362 92 340 86 q 401 111 383 97 q 432 144 419 125 q 451 183 444 163 q 461 226 458 204 q 464 271 464 249 l 464 924 l 275 924 l 275 1021 l 571 1021 l 571 271 q 566 199 571 235 q 547 131 561 164 q 510 69 533 97 q 456 22 486 40 q 390 -3 425 4 q 318 -11 354 -11 z "},"K":{"ha":694,"x_min":111,"x_max":618,"o":"m 501 0 l 283 457 l 218 350 l 218 0 l 111 0 l 111 1021 l 218 1021 l 218 538 l 497 1021 l 618 1021 l 343 558 l 618 0 l 501 0 z "},"L":{"ha":694,"x_min":133,"x_max":614,"o":"m 133 0 l 133 1021 l 242 1021 l 242 97 l 614 97 l 614 0 l 133 0 z "},"M":{"ha":694,"x_min":71,"x_max":624,"o":"m 71 0 l 71 1021 l 204 1021 l 347 474 l 490 1021 l 624 1021 l 624 0 l 519 0 l 519 204 q 524 523 519 364 q 531 842 529 682 l 390 307 l 304 307 l 164 842 q 170 523 165 682 q 175 204 175 364 l 175 0 l 71 0 z "},"N":{"ha":694,"x_min":89,"x_max":606,"o":"m 89 0 l 89 1021 l 219 1021 l 394 515 l 511 172 q 503 393 508 283 q 497 613 497 503 l 497 1021 l 606 1021 l 606 0 l 475 0 l 183 849 q 192 628 186 738 q 197 408 197 518 l 197 0 l 89 0 z "},"O":{"ha":694,"x_min":78,"x_max":617,"o":"m 347 -11 q 273 -4 310 -11 q 204 20 236 3 q 147 65 172 38 q 106 126 121 93 q 84 197 90 160 q 78 271 78 233 l 78 750 q 84 824 78 788 q 106 894 90 861 q 147 956 121 928 q 204 1001 172 983 q 273 1025 236 1018 q 347 1032 310 1032 q 422 1025 385 1032 q 490 1001 458 1018 q 548 956 522 983 q 589 894 574 928 q 610 824 604 861 q 617 750 617 788 l 617 271 q 610 197 617 233 q 589 126 604 160 q 548 65 574 93 q 490 20 522 38 q 422 -4 458 3 q 347 -11 385 -11 m 347 86 q 394 91 371 86 q 436 108 417 96 q 470 140 456 121 q 494 180 485 158 q 506 224 503 201 q 508 271 508 247 l 508 750 q 506 797 508 774 q 494 841 503 819 q 470 881 485 863 q 436 913 456 900 q 394 930 417 925 q 347 935 371 935 q 301 930 324 935 q 258 913 278 925 q 224 881 239 900 q 201 841 210 863 q 189 797 192 819 q 186 750 186 774 l 186 271 q 189 224 186 247 q 201 180 192 201 q 224 140 210 158 q 258 108 239 121 q 301 91 278 96 q 347 86 324 86 z "},"P":{"ha":694,"x_min":111,"x_max":628,"o":"m 111 0 l 111 1021 l 356 1021 q 431 1013 393 1021 q 503 986 469 1006 q 561 937 536 967 q 601 872 586 907 q 622 798 617 836 q 628 722 628 760 q 622 645 628 683 q 601 572 617 607 q 561 506 586 536 q 503 457 536 476 q 431 430 469 438 q 356 422 393 422 l 219 422 l 219 0 l 111 0 m 356 519 q 404 526 381 519 q 448 546 428 532 q 483 581 468 560 q 506 624 497 601 q 517 672 514 647 q 519 722 519 697 q 517 771 519 746 q 506 819 514 796 q 483 863 497 842 q 448 897 468 883 q 404 917 428 911 q 356 924 381 924 l 219 924 l 219 519 l 356 519 z "},"Q":{"ha":694,"x_min":78,"x_max":617,"o":"m 550 -250 q 484 -244 517 -250 q 422 -224 451 -239 q 369 -187 393 -210 q 329 -135 344 -164 q 307 -74 314 -106 q 300 -8 300 -42 q 235 7 267 -4 q 178 38 204 18 q 131 84 151 57 q 99 142 111 111 q 83 205 88 172 q 78 271 78 238 l 78 750 q 84 824 78 788 q 106 894 90 861 q 147 956 121 928 q 204 1001 172 983 q 273 1025 236 1018 q 347 1032 310 1032 q 422 1025 385 1032 q 490 1001 458 1018 q 548 956 522 983 q 589 894 574 928 q 610 824 604 861 q 617 750 617 788 l 617 271 q 613 207 617 239 q 597 145 608 175 q 567 89 586 115 q 524 42 549 63 q 469 10 499 22 q 407 -7 439 -1 q 417 -64 408 -36 q 445 -112 425 -92 q 493 -143 465 -133 q 550 -153 521 -153 l 583 -153 l 583 -250 l 550 -250 m 347 86 q 394 91 371 86 q 436 108 417 96 q 470 140 456 121 q 494 180 485 158 q 506 224 503 201 q 508 271 508 247 l 508 750 q 506 797 508 774 q 494 841 503 819 q 470 881 485 863 q 436 913 456 900 q 394 930 417 925 q 347 935 371 935 q 301 930 324 935 q 258 913 278 925 q 224 881 239 900 q 201 841 210 863 q 189 797 192 819 q 186 750 186 774 l 186 271 q 189 224 186 247 q 201 180 192 201 q 224 140 210 158 q 258 108 239 121 q 301 91 278 96 q 347 86 324 86 z "},"R":{"ha":694,"x_min":89,"x_max":639,"o":"m 521 0 l 317 422 l 197 422 l 197 0 l 89 0 l 89 1021 l 356 1021 q 430 1013 393 1021 q 499 984 467 1004 q 554 934 531 964 q 592 869 578 904 q 612 797 607 835 q 617 722 617 760 q 608 628 617 675 q 576 540 600 581 q 515 471 553 500 q 431 429 476 442 l 639 0 l 521 0 m 356 519 q 403 526 379 519 q 445 548 426 533 q 476 583 464 563 q 496 627 489 604 q 506 674 503 650 q 508 722 508 697 q 506 769 508 746 q 496 816 503 793 q 476 860 489 839 q 445 895 464 881 q 403 917 426 910 q 356 924 379 924 l 197 924 l 197 519 l 356 519 z "},"S":{"ha":694,"x_min":75,"x_max":617,"o":"m 346 -11 q 276 -6 311 -11 q 210 15 242 0 q 153 53 179 29 q 109 106 126 76 q 83 171 92 136 q 75 240 75 206 l 75 250 l 183 250 l 183 243 q 194 181 183 211 q 228 128 206 150 q 283 96 251 106 q 346 86 314 86 q 410 96 378 86 q 465 129 442 106 q 499 184 488 153 q 510 247 510 215 q 495 317 510 283 q 456 377 481 351 q 401 421 432 403 q 338 456 369 439 q 274 490 306 472 q 215 529 243 507 q 164 578 188 551 q 123 637 140 606 q 97 703 106 668 q 89 775 89 739 q 97 842 89 808 q 120 907 104 876 q 160 963 136 938 q 215 1003 185 988 q 280 1026 246 1019 q 349 1032 314 1032 q 417 1026 383 1032 q 481 1006 450 1021 q 536 966 511 990 q 577 912 561 942 q 601 849 593 882 q 608 781 608 815 l 608 771 l 500 771 l 500 778 q 490 838 500 808 q 460 891 481 868 q 409 924 439 914 q 349 935 379 935 q 288 924 318 935 q 236 890 257 913 q 206 836 215 867 q 196 774 196 806 q 210 704 196 738 q 249 644 224 671 q 304 600 274 618 q 367 566 335 582 q 430 532 399 550 q 490 492 461 514 q 542 442 518 469 q 582 384 565 415 q 608 318 599 353 q 617 247 617 283 q 608 177 617 211 q 583 112 600 143 q 540 56 567 81 q 483 17 514 32 q 416 -5 451 1 q 346 -11 381 -11 z "},"T":{"ha":694,"x_min":81,"x_max":614,"o":"m 293 0 l 293 924 l 81 924 l 81 1021 l 614 1021 l 614 924 l 401 924 l 401 0 l 293 0 z "},"U":{"ha":694,"x_min":89,"x_max":606,"o":"m 347 -11 q 275 -3 311 -11 q 208 22 239 4 q 153 68 176 40 q 115 129 129 96 q 94 199 100 163 q 89 271 89 235 l 89 1021 l 197 1021 l 197 271 q 200 226 197 249 q 210 182 203 203 q 231 142 218 161 q 262 110 243 124 q 303 92 281 97 q 347 86 325 86 q 392 92 369 86 q 433 110 414 97 q 464 142 451 124 q 484 182 476 161 q 494 226 492 203 q 497 271 497 249 l 497 1021 l 606 1021 l 606 271 q 600 199 606 235 q 580 129 594 163 q 542 68 565 96 q 487 22 518 40 q 419 -3 456 4 q 347 -11 383 -11 z "},"V":{"ha":694,"x_min":61,"x_max":633,"o":"m 285 0 l 61 1021 l 172 1021 l 311 340 q 330 251 321 296 q 347 163 339 207 q 365 251 356 207 q 383 340 374 296 l 522 1021 l 633 1021 l 410 0 l 285 0 z "},"W":{"ha":694,"x_min":49,"x_max":646,"o":"m 167 0 l 49 1021 l 153 1021 l 221 208 l 299 735 l 396 735 l 474 208 l 542 1021 l 646 1021 l 528 0 l 432 0 l 347 571 l 263 0 l 167 0 z "},"X":{"ha":694,"x_min":67,"x_max":628,"o":"m 67 0 l 293 511 l 67 1021 l 185 1021 l 347 638 l 510 1021 l 628 1021 l 401 511 l 628 0 l 510 0 l 347 383 l 185 0 l 67 0 z "},"Y":{"ha":694,"x_min":63,"x_max":632,"o":"m 293 0 l 293 411 l 63 1021 l 178 1021 l 347 554 l 517 1021 l 632 1021 l 401 411 l 401 0 l 293 0 z "},"Z":{"ha":694,"x_min":89,"x_max":606,"o":"m 89 0 l 89 97 l 482 924 l 89 924 l 89 1021 l 606 1021 l 606 924 l 213 97 l 606 97 l 606 0 l 89 0 z "},"[":{"ha":694,"x_min":171,"x_max":554,"o":"m 171 -199 l 171 1143 l 554 1143 l 554 1046 l 279 1046 l 279 -101 l 554 -101 l 554 -199 l 171 -199 z "},"\\":{"ha":694,"x_min":82,"x_max":613,"o":"m 613 -199 l 501 -199 l 82 1143 l 193 1143 l 613 -199 z "},"]":{"ha":694,"x_min":140,"x_max":524,"o":"m 140 -199 l 140 -101 l 415 -101 l 415 1046 l 140 1046 l 140 1143 l 524 1143 l 524 -199 l 140 -199 z "},"^":{"ha":694,"x_min":54,"x_max":640,"o":"m 147 625 l 54 685 l 288 1006 l 407 1006 l 640 685 l 547 625 l 347 918 l 147 625 z "},"_":{"ha":694,"x_min":89,"x_max":606,"o":"m 606 -97 l 89 -97 l 89 0 l 606 0 l 606 -97 z "},"`":{"ha":694,"x_min":128,"x_max":451,"o":"m 375 753 l 128 1049 l 222 1114 l 451 807 l 375 753 z "},"a":{"ha":694,"x_min":78,"x_max":606,"o":"m 297 -11 q 212 1 254 -11 q 138 42 169 13 q 92 113 107 71 q 78 199 78 156 q 87 268 78 233 q 118 330 96 303 q 171 376 140 357 q 235 406 201 394 q 303 421 268 417 q 374 425 338 425 l 497 425 l 497 493 q 488 551 497 522 q 456 600 478 581 q 404 628 433 619 q 346 636 375 636 q 293 631 319 636 q 244 612 267 626 q 208 574 221 597 q 194 524 194 550 l 194 521 l 86 521 l 86 525 q 96 587 86 557 q 124 642 106 617 q 167 686 142 668 q 223 715 193 704 q 283 729 253 725 q 346 733 314 733 q 413 728 379 733 q 476 710 446 724 q 533 674 507 696 q 575 622 558 651 q 599 560 592 593 q 606 493 606 526 l 606 0 l 497 0 l 497 119 q 466 65 486 90 q 419 21 446 39 q 361 -4 393 3 q 297 -11 329 -11 m 342 86 q 405 97 374 86 q 458 131 436 107 q 488 186 479 154 q 497 250 497 218 l 497 328 l 374 328 q 332 326 353 328 q 291 319 311 324 q 251 306 271 314 q 217 283 232 297 q 194 249 201 269 q 186 208 186 229 q 199 155 186 181 q 234 113 211 129 q 285 92 257 97 q 342 86 313 86 z "},"b":{"ha":694,"x_min":89,"x_max":617,"o":"m 396 -11 q 331 -2 363 -11 q 272 26 299 7 q 227 74 246 46 q 197 133 208 101 l 197 0 l 89 0 l 89 1021 l 197 1021 l 197 589 q 227 649 208 621 q 272 696 246 676 q 331 724 299 715 q 396 733 363 733 q 464 724 431 733 q 524 692 497 714 q 569 642 551 671 q 599 580 588 613 q 613 513 610 547 q 617 444 617 479 l 617 278 q 613 209 617 243 q 599 142 610 175 q 569 81 588 110 q 524 30 551 51 q 464 -1 497 8 q 396 -11 431 -11 m 353 86 q 399 92 376 86 q 441 111 422 97 q 474 144 460 125 q 495 186 488 164 q 506 231 503 208 q 508 278 508 254 l 508 444 q 506 491 508 468 q 495 536 503 514 q 474 578 488 558 q 441 611 460 597 q 399 631 422 625 q 353 636 376 636 q 306 631 329 636 q 265 611 283 625 q 232 578 246 597 q 210 536 218 558 q 200 491 203 514 q 197 444 197 468 l 197 278 q 200 231 197 254 q 210 186 203 208 q 232 144 218 164 q 265 111 246 125 q 306 92 283 97 q 353 86 329 86 z "},"c":{"ha":694,"x_min":78,"x_max":608,"o":"m 343 -11 q 269 -3 306 -11 q 200 23 232 4 q 144 70 168 42 q 104 133 119 99 q 83 203 89 167 q 78 278 78 240 l 78 444 q 83 519 78 482 q 104 590 89 556 q 144 652 119 624 q 200 699 168 681 q 269 726 232 718 q 343 733 306 733 q 413 728 378 733 q 478 707 447 722 q 534 667 508 692 q 576 613 560 643 q 601 548 593 582 q 608 479 608 514 l 608 472 l 500 472 l 500 476 q 490 539 500 508 q 458 592 481 569 q 406 626 436 615 q 343 636 375 636 q 297 631 319 636 q 254 611 274 625 q 222 578 235 597 q 200 537 208 558 q 189 492 192 515 q 186 444 186 468 l 186 278 q 189 231 186 254 q 200 185 192 207 q 222 144 208 164 q 254 111 235 125 q 297 92 274 97 q 343 86 319 86 q 406 97 375 86 q 458 130 436 107 q 490 183 481 153 q 500 246 500 214 l 500 250 l 608 250 l 608 243 q 601 174 608 208 q 576 110 593 140 q 534 55 560 79 q 478 15 508 31 q 413 -6 447 0 q 343 -11 378 -11 z "},"d":{"ha":694,"x_min":78,"x_max":606,"o":"m 299 -11 q 231 -1 264 -11 q 170 30 197 8 q 125 81 143 51 q 96 142 107 110 q 81 209 85 175 q 78 278 78 243 l 78 444 q 81 513 78 479 q 96 580 85 547 q 125 642 107 613 q 170 692 143 671 q 231 724 197 714 q 299 733 264 733 q 364 724 332 733 q 422 696 396 715 q 467 649 449 676 q 497 589 486 621 l 497 1021 l 606 1021 l 606 0 l 497 0 l 497 133 q 467 74 486 101 q 422 26 449 46 q 364 -2 396 7 q 299 -11 332 -11 m 342 86 q 388 92 365 86 q 430 111 411 97 q 463 144 449 125 q 484 186 476 164 q 494 231 492 208 q 497 278 497 254 l 497 444 q 494 491 497 468 q 484 536 492 514 q 463 578 476 558 q 430 611 449 597 q 388 631 411 625 q 342 636 365 636 q 295 631 318 636 q 253 611 272 625 q 221 578 235 597 q 199 536 207 558 q 189 491 192 514 q 186 444 186 468 l 186 278 q 189 231 186 254 q 199 186 192 208 q 221 144 207 164 q 253 111 235 125 q 295 92 272 97 q 342 86 318 86 z "},"e":{"ha":694,"x_min":78,"x_max":617,"o":"m 347 -11 q 273 -3 310 -11 q 203 22 236 4 q 145 69 171 40 q 104 131 119 97 q 83 203 89 165 q 78 278 78 240 l 78 444 q 83 519 78 482 q 104 591 89 557 q 145 653 119 625 q 203 700 171 682 q 273 726 236 718 q 347 733 310 733 q 422 726 385 733 q 491 700 458 718 q 549 653 524 682 q 590 591 575 625 q 611 519 606 557 q 617 444 617 482 l 617 313 l 186 313 l 186 278 q 189 231 186 254 q 200 185 192 207 q 223 143 208 163 q 257 110 238 124 q 300 92 276 97 q 347 86 324 86 q 402 91 375 86 q 453 110 429 96 q 491 149 476 125 q 506 201 506 174 l 614 201 q 603 139 614 169 q 574 83 593 108 q 529 38 556 57 q 473 8 503 19 q 411 -7 443 -3 q 347 -11 379 -11 m 508 410 l 508 444 q 506 492 508 468 q 494 538 503 515 q 472 579 486 560 q 438 612 457 599 q 394 631 418 625 q 347 636 371 636 q 300 631 324 636 q 257 612 276 625 q 223 579 238 599 q 200 538 208 560 q 189 492 192 515 q 186 444 186 468 l 186 410 l 508 410 z "},"f":{"ha":694,"x_min":89,"x_max":629,"o":"m 243 0 l 243 560 l 89 560 l 89 657 l 243 657 l 243 804 q 247 860 243 832 q 260 915 250 889 q 288 965 271 942 q 328 1003 306 988 q 380 1026 351 1019 q 436 1032 408 1032 q 513 1019 475 1032 q 577 979 550 1007 q 617 914 604 951 q 629 838 629 876 l 629 833 l 521 833 l 521 835 q 516 872 521 854 q 500 905 511 890 q 472 927 489 919 q 436 935 454 935 q 395 922 414 935 q 367 890 376 910 q 353 848 357 869 q 350 804 350 826 l 350 657 l 579 657 l 579 560 l 350 560 l 350 0 l 243 0 z "},"g":{"ha":694,"x_min":78,"x_max":606,"o":"m 344 -310 q 283 -306 314 -310 q 224 -292 253 -303 q 170 -265 196 -282 q 126 -224 144 -247 q 97 -171 107 -200 q 86 -111 88 -142 l 194 -111 q 210 -158 194 -136 q 247 -192 225 -179 q 293 -208 268 -204 q 344 -212 318 -212 q 390 -206 367 -212 q 431 -187 413 -200 q 463 -154 450 -174 q 484 -112 476 -135 q 494 -67 492 -90 q 497 -21 497 -44 l 497 133 q 467 74 486 101 q 422 26 449 46 q 364 -2 396 7 q 299 -11 332 -11 q 231 -1 264 -11 q 170 30 197 8 q 125 81 143 51 q 96 142 107 110 q 81 209 85 175 q 78 278 78 243 l 78 444 q 81 513 78 479 q 96 580 85 547 q 125 642 107 613 q 170 692 143 671 q 231 724 197 714 q 299 733 264 733 q 364 724 332 733 q 422 696 396 715 q 467 649 449 676 q 497 589 486 621 l 497 722 l 606 722 l 606 -21 q 600 -95 606 -58 q 580 -165 594 -132 q 542 -228 565 -199 q 486 -276 518 -257 q 417 -302 454 -294 q 344 -310 381 -310 m 342 86 q 388 92 365 86 q 430 111 411 97 q 463 144 449 125 q 484 186 476 164 q 494 231 492 208 q 497 278 497 254 l 497 444 q 494 491 497 468 q 484 536 492 514 q 463 578 476 558 q 430 611 449 597 q 388 631 411 625 q 342 636 365 636 q 295 631 318 636 q 253 611 272 625 q 221 578 235 597 q 199 536 207 558 q 189 491 192 514 q 186 444 186 468 l 186 278 q 189 231 186 254 q 199 186 192 208 q 221 144 207 164 q 253 111 235 125 q 295 92 272 97 q 342 86 318 86 z "},"h":{"ha":694,"x_min":89,"x_max":606,"o":"m 89 0 l 89 1021 l 197 1021 l 197 590 q 226 649 208 621 q 269 696 243 676 q 326 724 294 715 q 390 733 358 733 q 458 724 425 733 q 517 692 490 714 q 560 640 543 669 q 588 578 578 611 q 602 512 599 546 q 606 444 606 478 l 606 0 l 497 0 l 497 444 q 494 491 497 468 q 485 535 492 514 q 465 576 478 557 q 433 610 451 596 q 393 630 415 624 q 347 636 371 636 q 301 630 324 636 q 261 610 279 624 q 230 576 243 596 q 210 535 217 557 q 200 491 203 514 q 197 444 197 468 l 197 0 l 89 0 z "},"i":{"ha":694,"x_min":104,"x_max":590,"o":"m 104 0 l 104 97 l 303 97 l 303 625 l 124 625 l 124 722 l 411 722 l 411 97 l 590 97 l 590 0 l 104 0 m 354 844 q 319 849 336 844 q 290 867 303 854 q 273 896 278 879 q 268 931 268 913 q 273 965 268 949 q 290 994 278 982 q 319 1013 303 1007 q 354 1018 336 1018 q 389 1013 372 1018 q 418 994 406 1007 q 436 965 431 982 q 442 931 442 949 q 436 896 442 913 q 418 867 431 879 q 389 849 406 854 q 354 844 372 844 z "},"j":{"ha":694,"x_min":28,"x_max":513,"o":"m 257 -310 q 198 -305 228 -310 q 142 -287 168 -300 q 93 -252 115 -274 q 56 -205 71 -231 q 35 -149 42 -179 q 28 -90 28 -119 l 136 -90 q 144 -138 136 -115 q 169 -179 153 -161 q 210 -205 186 -197 q 257 -212 233 -212 q 298 -205 278 -212 q 333 -183 318 -197 q 357 -149 347 -168 q 372 -110 367 -131 q 379 -69 378 -90 q 381 -28 381 -49 l 381 625 l 192 625 l 192 722 l 489 722 l 489 -28 q 485 -97 489 -62 q 469 -163 481 -131 q 437 -224 457 -196 q 388 -273 417 -253 q 326 -301 360 -293 q 257 -310 292 -310 m 424 844 q 389 849 406 844 q 360 867 372 854 q 342 896 347 879 q 338 931 338 913 q 342 965 338 949 q 360 994 347 982 q 389 1013 372 1007 q 424 1018 406 1018 q 458 1013 442 1018 q 488 994 475 1007 q 506 965 500 982 q 511 931 511 949 q 506 896 511 913 q 488 867 500 879 q 458 849 475 854 q 424 844 442 844 z "},"k":{"ha":694,"x_min":111,"x_max":615,"o":"m 111 0 l 111 1021 l 218 1021 l 218 374 l 485 722 l 615 722 l 356 393 l 615 0 l 490 0 l 292 313 l 218 219 l 218 0 l 111 0 z "},"l":{"ha":694,"x_min":104,"x_max":590,"o":"m 104 0 l 104 97 l 303 97 l 303 924 l 124 924 l 124 1021 l 411 1021 l 411 97 l 590 97 l 590 0 l 104 0 z "},"m":{"ha":694,"x_min":71,"x_max":624,"o":"m 71 0 l 71 722 l 171 722 l 171 658 q 188 688 178 674 q 210 713 197 703 q 240 728 224 724 q 275 733 257 733 q 315 726 296 733 q 349 703 335 718 q 374 669 364 689 q 389 631 383 650 q 402 669 393 650 q 426 703 411 689 q 460 726 440 718 q 501 733 481 733 q 542 726 522 733 q 576 703 561 718 q 601 669 592 689 q 615 630 610 650 q 622 589 621 610 q 624 547 624 568 l 624 0 l 524 0 l 524 547 q 521 579 524 563 q 511 610 518 596 q 490 633 504 624 q 461 643 476 643 q 431 633 444 643 q 410 610 417 624 q 400 579 403 596 q 397 547 397 563 l 397 0 l 297 0 l 297 547 q 294 579 297 563 q 285 610 292 596 q 264 633 278 624 q 233 643 250 643 q 204 633 218 643 q 183 610 190 624 q 174 579 176 596 q 171 547 171 563 l 171 0 l 71 0 z "},"n":{"ha":694,"x_min":89,"x_max":606,"o":"m 89 0 l 89 722 l 197 722 l 197 590 q 226 649 208 621 q 269 696 243 676 q 326 724 294 715 q 390 733 358 733 q 458 724 425 733 q 517 692 490 714 q 560 640 543 669 q 588 578 578 611 q 602 512 599 546 q 606 444 606 478 l 606 0 l 497 0 l 497 444 q 494 491 497 468 q 485 535 492 514 q 465 576 478 557 q 433 610 451 596 q 393 630 415 624 q 347 636 371 636 q 301 630 324 636 q 261 610 279 624 q 230 576 243 596 q 210 535 217 557 q 200 491 203 514 q 197 444 197 468 l 197 0 l 89 0 z "},"o":{"ha":694,"x_min":78,"x_max":617,"o":"m 347 -11 q 273 -3 310 -11 q 203 22 236 4 q 145 69 171 40 q 104 131 119 97 q 83 203 89 165 q 78 278 78 240 l 78 444 q 83 519 78 482 q 104 591 89 557 q 145 653 119 625 q 203 700 171 682 q 273 726 236 718 q 347 733 310 733 q 422 726 385 733 q 491 700 458 718 q 549 653 524 682 q 590 591 575 625 q 611 519 606 557 q 617 444 617 482 l 617 278 q 611 203 617 240 q 590 131 606 165 q 549 69 575 97 q 491 22 524 40 q 422 -3 458 4 q 347 -11 385 -11 m 347 86 q 394 92 371 86 q 438 110 418 97 q 472 143 457 124 q 494 185 486 163 q 506 231 503 207 q 508 278 508 254 l 508 444 q 506 492 508 468 q 494 538 503 515 q 472 579 486 560 q 438 612 457 599 q 394 631 418 625 q 347 636 371 636 q 300 631 324 636 q 257 612 276 625 q 223 579 238 599 q 200 538 208 560 q 189 492 192 515 q 186 444 186 468 l 186 278 q 189 231 186 254 q 200 185 192 207 q 223 143 208 163 q 257 110 238 124 q 300 92 276 97 q 347 86 324 86 z "},"p":{"ha":694,"x_min":89,"x_max":617,"o":"m 89 -299 l 89 722 l 197 722 l 197 589 q 227 649 208 621 q 272 696 246 676 q 331 724 299 715 q 396 733 363 733 q 464 724 431 733 q 524 692 497 714 q 569 642 551 671 q 599 580 588 613 q 613 513 610 547 q 617 444 617 479 l 617 278 q 613 209 617 243 q 599 142 610 175 q 569 81 588 110 q 524 30 551 51 q 464 -1 497 8 q 396 -11 431 -11 q 331 -2 363 -11 q 272 26 299 7 q 227 74 246 46 q 197 133 208 101 l 197 -299 l 89 -299 m 353 86 q 399 92 376 86 q 441 111 422 97 q 474 144 460 125 q 495 186 488 164 q 506 231 503 208 q 508 278 508 254 l 508 444 q 506 491 508 468 q 495 536 503 514 q 474 578 488 558 q 441 611 460 597 q 399 631 422 625 q 353 636 376 636 q 306 631 329 636 q 265 611 283 625 q 232 578 246 597 q 210 536 218 558 q 200 491 203 514 q 197 444 197 468 l 197 278 q 200 231 197 254 q 210 186 203 208 q 232 144 218 164 q 265 111 246 125 q 306 92 283 97 q 353 86 329 86 z "},"q":{"ha":694,"x_min":78,"x_max":606,"o":"m 497 -299 l 497 133 q 467 74 486 101 q 422 26 449 46 q 364 -2 396 7 q 299 -11 332 -11 q 231 -1 264 -11 q 170 30 197 8 q 125 81 143 51 q 96 142 107 110 q 81 209 85 175 q 78 278 78 243 l 78 444 q 81 513 78 479 q 96 580 85 547 q 125 642 107 613 q 170 692 143 671 q 231 724 197 714 q 299 733 264 733 q 364 724 332 733 q 422 696 396 715 q 467 649 449 676 q 497 589 486 621 l 497 722 l 606 722 l 606 -299 l 497 -299 m 342 86 q 388 92 365 86 q 430 111 411 97 q 463 144 449 125 q 484 186 476 164 q 494 231 492 208 q 497 278 497 254 l 497 444 q 494 491 497 468 q 484 536 492 514 q 463 578 476 558 q 430 611 449 597 q 388 631 411 625 q 342 636 365 636 q 295 631 318 636 q 253 611 272 625 q 221 578 235 597 q 199 536 207 558 q 189 491 192 514 q 186 444 186 468 l 186 278 q 189 231 186 254 q 199 186 192 208 q 221 144 207 164 q 253 111 235 125 q 295 92 272 97 q 342 86 318 86 z "},"r":{"ha":694,"x_min":172,"x_max":626,"o":"m 172 0 l 172 722 l 281 722 l 281 567 q 303 628 289 597 q 340 683 318 658 q 394 720 363 707 q 458 733 425 733 q 509 727 483 733 q 556 706 535 721 q 591 669 576 690 q 613 623 606 647 q 624 573 621 599 q 626 521 626 547 l 518 521 q 515 562 518 542 q 501 600 511 582 q 472 627 490 618 q 432 636 453 636 q 378 624 404 636 q 335 592 353 613 q 307 545 318 571 q 290 492 296 519 q 283 438 285 465 q 281 383 281 410 l 281 0 l 172 0 z "},"s":{"ha":694,"x_min":86,"x_max":606,"o":"m 346 -11 q 285 -8 315 -11 q 226 5 256 -4 q 172 30 197 14 q 126 69 146 46 q 97 121 107 92 q 86 181 86 150 l 86 188 l 194 188 l 194 183 q 210 138 194 158 q 248 105 225 117 q 296 90 271 93 q 346 86 321 86 q 397 90 371 86 q 444 106 422 94 q 483 138 467 117 q 499 185 499 160 q 485 230 499 210 q 451 263 471 250 q 408 285 431 276 q 363 300 386 293 q 317 315 340 307 q 272 331 294 322 q 229 351 250 340 q 189 377 208 363 q 153 409 169 392 q 125 447 138 426 q 106 490 113 467 q 100 538 100 514 q 109 596 100 567 q 136 649 118 625 q 179 689 154 672 q 232 716 204 706 q 290 730 260 726 q 349 733 319 733 q 407 730 378 733 q 464 717 436 726 q 517 691 492 707 q 560 652 542 675 q 588 601 578 629 q 597 543 597 572 l 597 535 l 489 535 l 489 539 q 476 583 489 563 q 442 616 463 604 q 397 632 421 628 q 349 636 372 636 q 301 632 325 636 q 256 616 276 628 q 221 583 235 604 q 207 538 207 561 q 221 493 207 514 q 254 459 235 472 q 297 438 274 446 q 342 422 319 429 q 388 408 365 415 q 432 391 410 400 q 476 371 454 382 q 516 345 497 360 q 551 313 535 331 q 581 276 568 296 q 599 232 593 256 q 606 185 606 208 q 595 125 606 154 q 566 72 585 96 q 521 32 547 49 q 466 6 494 15 q 407 -8 438 -4 q 346 -11 376 -11 z "},"t":{"ha":694,"x_min":97,"x_max":649,"o":"m 439 -11 q 377 -3 408 -11 q 320 24 346 6 q 277 68 294 42 q 249 124 260 94 q 235 185 239 154 q 231 249 231 217 l 231 625 l 97 625 l 97 722 l 231 722 l 231 1021 l 339 1021 l 339 722 l 583 722 l 583 625 l 339 625 l 339 249 q 340 213 339 231 q 346 177 342 194 q 357 144 350 160 q 376 114 364 128 q 404 93 388 100 q 439 86 421 86 q 473 93 457 86 q 501 113 489 100 q 520 141 513 125 q 532 174 528 157 q 538 208 536 190 q 540 242 540 225 l 540 250 l 649 250 l 649 238 q 643 176 649 207 q 627 117 638 146 q 599 64 617 89 q 556 22 581 39 q 500 -3 531 4 q 439 -11 469 -11 z "},"u":{"ha":694,"x_min":89,"x_max":606,"o":"m 304 -11 q 237 -1 269 -11 q 178 31 204 8 q 134 82 151 53 q 106 144 117 111 q 92 210 96 176 q 89 278 89 244 l 89 722 l 197 722 l 197 278 q 200 231 197 254 q 210 187 203 208 q 230 146 217 165 q 261 113 243 126 q 301 92 279 99 q 347 86 324 86 q 393 92 371 86 q 433 113 415 99 q 465 146 451 126 q 485 187 478 165 q 494 231 492 208 q 497 278 497 254 l 497 722 l 606 722 l 606 0 l 497 0 l 497 132 q 469 74 486 101 q 426 26 451 46 q 368 -2 400 7 q 304 -11 336 -11 z "},"v":{"ha":694,"x_min":61,"x_max":633,"o":"m 285 0 l 61 722 l 175 722 l 314 240 q 331 182 322 211 q 347 124 339 153 q 364 182 356 153 q 381 240 372 211 l 519 722 l 633 722 l 410 0 l 285 0 z "},"w":{"ha":694,"x_min":49,"x_max":646,"o":"m 264 0 l 167 0 l 49 722 l 153 722 l 221 147 l 299 519 l 396 519 l 474 147 l 542 722 l 646 722 l 528 0 l 431 0 l 347 404 l 264 0 z "},"x":{"ha":694,"x_min":74,"x_max":621,"o":"m 74 0 l 290 361 l 74 722 l 200 722 l 347 461 l 494 722 l 621 722 l 404 361 l 621 0 l 494 0 l 347 261 l 200 0 l 74 0 z "},"y":{"ha":694,"x_min":71,"x_max":624,"o":"m 210 -299 q 235 -215 222 -257 q 260 -131 247 -172 l 292 -21 l 71 722 l 183 722 l 349 125 l 511 722 l 624 722 l 322 -299 l 210 -299 z "},"z":{"ha":694,"x_min":89,"x_max":606,"o":"m 89 0 l 89 97 l 488 625 l 89 625 l 89 722 l 606 722 l 606 625 l 207 97 l 606 97 l 606 0 l 89 0 z "},"{":{"ha":694,"x_min":115,"x_max":554,"o":"m 554 -212 q 479 -208 517 -212 q 406 -190 442 -203 q 338 -157 369 -178 q 282 -106 306 -136 q 247 -40 258 -76 q 236 33 236 -4 q 244 97 236 65 q 264 156 251 128 q 290 214 276 185 q 303 275 303 243 q 297 319 303 297 q 277 360 290 342 q 244 391 264 378 q 203 411 225 404 q 160 421 182 418 q 115 424 138 424 l 115 521 q 160 524 138 521 q 203 533 182 526 q 244 553 225 540 q 277 585 264 567 q 297 625 290 603 q 303 669 303 647 q 290 731 303 701 q 264 788 276 760 q 244 848 251 817 q 236 911 236 879 q 247 985 236 949 q 282 1051 258 1021 q 338 1101 306 1081 q 406 1135 369 1122 q 479 1152 442 1147 q 554 1157 517 1157 l 554 1060 q 506 1057 529 1060 q 459 1047 482 1054 q 415 1028 436 1040 q 377 999 393 1017 q 353 958 361 981 q 344 911 344 935 q 351 869 344 889 q 365 830 357 849 q 383 792 374 811 q 398 752 392 772 q 407 711 404 732 q 410 669 410 690 q 401 606 410 638 q 374 547 393 574 q 327 502 354 521 q 271 472 300 483 q 327 442 300 461 q 374 397 354 424 q 401 339 393 371 q 410 275 410 307 q 407 233 410 254 q 398 192 404 213 q 383 153 392 172 q 365 115 374 133 q 351 76 357 96 q 344 33 344 56 q 353 -13 344 10 q 377 -54 361 -36 q 415 -84 393 -72 q 459 -103 436 -96 q 506 -112 482 -110 q 554 -115 529 -115 l 554 -212 z "},"|":{"ha":694,"x_min":293,"x_max":401,"o":"m 293 -199 l 293 1143 l 401 1143 l 401 -199 l 293 -199 z "},"}":{"ha":694,"x_min":140,"x_max":579,"o":"m 140 -212 l 140 -115 q 189 -112 165 -115 q 235 -103 213 -110 q 280 -84 258 -96 q 317 -54 301 -72 q 342 -13 333 -36 q 350 33 350 10 q 344 76 350 56 q 329 115 338 96 q 312 153 321 133 q 297 192 303 172 q 288 233 290 213 q 285 275 285 254 q 293 339 285 307 q 321 397 301 371 q 367 442 340 424 q 424 472 394 461 q 367 502 394 483 q 321 547 340 521 q 293 606 301 574 q 285 669 285 638 q 288 711 285 690 q 297 752 290 732 q 312 792 303 772 q 329 830 321 811 q 344 869 338 849 q 350 911 350 889 q 342 958 350 935 q 317 999 333 981 q 280 1028 301 1017 q 235 1047 258 1040 q 189 1057 213 1054 q 140 1060 165 1060 l 140 1157 q 215 1152 178 1157 q 289 1135 253 1147 q 357 1101 325 1122 q 413 1051 389 1081 q 447 985 436 1021 q 458 911 458 949 q 451 848 458 879 q 431 788 443 817 q 405 731 418 760 q 392 669 392 701 q 398 625 392 647 q 417 585 404 603 q 450 553 431 567 q 491 533 469 540 q 535 524 513 526 q 579 521 557 521 l 579 424 q 535 421 557 424 q 491 411 513 418 q 450 391 469 404 q 417 360 431 378 q 398 319 404 342 q 392 275 392 297 q 405 214 392 243 q 431 156 418 185 q 451 97 443 128 q 458 33 458 65 q 447 -40 458 -4 q 413 -106 436 -76 q 357 -157 389 -136 q 289 -190 325 -178 q 215 -208 253 -203 q 140 -212 178 -212 z "},"~":{"ha":694,"x_min":40,"x_max":654,"o":"m 449 256 q 428 258 438 256 q 409 263 418 260 q 392 272 400 267 q 376 284 383 278 q 363 297 369 290 q 351 312 357 304 q 339 328 344 319 q 328 344 333 336 q 319 361 324 353 q 309 378 314 369 q 299 396 304 386 q 288 415 293 406 q 277 432 282 424 q 267 447 272 440 q 253 463 263 454 q 244 475 244 471 l 249 475 q 242 468 249 474 q 231 456 236 463 q 221 443 225 450 q 214 432 217 436 q 208 423 211 428 q 203 413 206 418 q 197 401 200 407 q 192 390 194 396 q 185 377 189 383 q 178 364 182 371 q 172 349 175 357 q 166 333 169 342 q 159 317 163 325 q 152 299 156 308 q 144 279 149 289 q 138 260 140 269 l 40 292 q 53 323 47 308 q 64 351 58 338 q 75 378 69 365 q 86 403 81 392 q 97 426 92 415 q 107 447 101 436 q 118 465 113 457 q 128 482 124 474 q 142 501 133 490 q 158 522 150 513 q 176 540 167 532 q 197 553 186 547 q 221 563 208 560 q 246 567 233 567 q 267 565 257 567 q 285 559 276 563 q 303 550 294 556 q 318 538 311 544 q 331 525 325 532 q 344 510 338 518 q 356 494 350 503 q 366 478 361 486 q 376 461 371 469 q 385 444 381 453 q 396 426 390 436 q 407 408 401 417 q 417 390 413 399 q 427 375 422 382 q 441 360 432 368 q 450 347 450 351 l 446 347 q 452 354 446 349 q 464 367 458 360 q 474 380 469 374 q 481 390 478 386 q 486 399 483 394 q 492 410 489 404 q 497 421 494 415 q 503 433 500 426 q 509 445 506 439 q 516 458 513 451 q 522 473 519 465 q 528 489 525 481 q 535 506 532 497 q 542 524 539 514 q 550 543 546 533 q 557 563 554 553 l 654 531 q 642 499 647 514 q 631 471 636 485 q 619 444 625 457 q 608 419 614 431 q 598 397 603 407 q 588 376 593 386 q 576 357 582 365 q 566 340 571 349 q 553 321 561 332 q 536 300 544 310 q 518 283 528 290 q 497 269 508 275 q 474 259 486 263 q 449 256 461 256 z "},"":{"ha":694,"x_min":0,"x_max":0,"o":""},"":{"ha":694,"x_min":250,"x_max":446,"o":"m 347 538 q 308 543 328 538 q 275 563 289 549 q 256 597 261 578 q 250 636 250 615 q 256 674 250 656 q 275 708 261 693 q 308 728 289 722 q 347 733 328 733 q 386 728 367 733 q 419 708 406 722 q 440 674 433 693 q 446 636 446 656 q 440 597 446 615 q 419 563 433 578 q 386 543 406 549 q 347 538 367 538 m 293 -299 l 293 361 l 401 361 l 401 -299 l 293 -299 z "},"":{"ha":694,"x_min":78,"x_max":608,"o":"m 297 -149 l 297 -8 q 233 8 264 -4 q 175 40 201 19 q 129 88 149 60 q 98 147 110 115 q 82 211 86 178 q 78 278 78 244 l 78 444 q 82 511 78 478 q 98 576 86 544 q 129 635 110 607 q 175 683 149 663 q 233 715 201 703 q 297 731 264 726 l 297 872 l 397 872 l 397 731 q 483 703 442 724 q 552 647 524 682 q 594 569 581 613 q 608 479 608 525 l 608 472 l 500 472 l 500 476 q 494 528 500 503 q 474 574 488 553 q 438 610 460 596 q 392 631 417 625 l 392 92 q 438 112 417 97 q 474 148 460 126 q 494 194 488 169 q 500 246 500 219 l 500 250 l 608 250 l 608 243 q 594 153 608 197 q 552 75 581 110 q 483 19 524 40 q 397 -8 442 -1 l 397 -149 l 297 -149 m 303 90 l 303 632 q 249 607 274 626 q 210 561 225 588 q 191 505 196 535 q 186 444 186 475 l 186 278 q 191 217 186 247 q 210 161 196 188 q 249 115 225 135 q 303 90 274 96 z "},"":{"ha":694,"x_min":64,"x_max":606,"o":"m 89 0 l 89 97 q 136 156 117 124 q 167 225 156 189 q 180 299 178 261 q 182 374 182 336 l 182 468 l 64 468 l 64 553 l 182 553 l 182 818 q 187 874 182 846 q 203 926 192 901 q 233 973 214 951 q 276 1008 251 994 q 327 1026 300 1021 q 382 1032 354 1032 q 463 1017 424 1032 q 531 972 503 1003 q 571 901 558 942 q 583 819 583 861 q 583 814 583 817 q 582 808 582 811 l 475 808 l 475 815 q 470 857 475 836 q 454 896 465 878 q 424 924 443 914 q 382 935 404 935 q 342 925 361 935 q 310 898 322 915 q 294 860 299 881 q 290 818 290 839 l 290 553 l 429 553 l 429 468 l 290 468 l 290 375 q 289 301 290 338 q 281 230 288 265 q 260 161 274 194 q 226 97 247 128 l 606 97 l 606 0 l 89 0 z "},"":{"ha":694,"x_min":56,"x_max":639,"o":"m 122 183 l 56 244 l 139 329 q 112 398 119 361 q 104 472 104 435 q 112 547 104 510 q 139 615 119 583 l 56 700 l 122 761 l 204 681 q 273 708 236 700 q 347 715 310 715 q 422 708 385 715 q 490 681 458 700 l 572 761 l 639 700 l 556 615 q 583 547 575 583 q 590 472 590 510 q 583 398 590 435 q 556 329 575 361 l 639 244 l 572 183 l 490 264 q 422 237 458 244 q 347 229 385 229 q 273 237 310 229 q 204 264 236 244 l 122 183 m 347 315 q 408 326 378 315 q 458 358 438 336 q 486 411 478 381 q 494 472 494 442 q 486 533 494 503 q 458 586 478 564 q 408 619 438 608 q 347 629 378 629 q 287 619 317 629 q 237 586 257 608 q 208 533 217 564 q 200 472 200 503 q 208 411 200 442 q 237 358 217 381 q 287 326 257 336 q 347 315 317 315 z "},"":{"ha":694,"x_min":63,"x_max":632,"o":"m 293 0 l 293 161 l 89 161 l 89 247 l 293 247 l 293 365 l 89 365 l 89 451 l 278 451 l 63 1021 l 178 1021 l 347 554 l 517 1021 l 632 1021 l 417 451 l 606 451 l 606 365 l 401 365 l 401 247 l 606 247 l 606 161 l 401 161 l 401 0 l 293 0 z "},"":{"ha":694,"x_min":293,"x_max":401,"o":"m 293 536 l 293 1143 l 401 1143 l 401 536 l 293 536 m 293 -199 l 293 408 l 401 408 l 401 -199 l 293 -199 z "},"":{"ha":694,"x_min":86,"x_max":608,"o":"m 346 -210 q 278 -203 311 -210 q 214 -182 244 -197 q 158 -143 183 -167 q 117 -89 133 -119 q 94 -25 101 -58 q 86 43 86 8 l 86 51 l 194 51 l 194 46 q 203 -15 194 15 q 233 -69 213 -46 q 285 -102 254 -92 q 346 -112 315 -112 q 408 -101 378 -112 q 458 -65 438 -89 q 489 -10 479 -42 q 499 51 499 21 q 485 115 499 85 q 447 166 471 144 q 392 200 422 188 q 331 223 363 213 q 269 244 300 233 q 211 273 239 256 q 160 313 183 290 q 121 363 138 335 q 96 423 104 392 q 88 488 88 454 q 94 547 88 517 q 112 603 100 576 q 141 656 124 631 q 182 699 158 681 q 142 737 160 715 q 113 783 125 758 q 94 835 100 808 q 89 890 89 863 q 97 960 89 925 q 119 1026 104 994 q 159 1083 135 1057 q 214 1125 183 1108 q 279 1148 244 1142 q 349 1154 314 1154 q 417 1148 383 1154 q 481 1126 450 1142 q 536 1088 511 1111 q 577 1033 561 1064 q 601 969 593 1003 q 608 901 608 936 l 608 893 l 500 893 l 500 899 q 491 960 500 929 q 461 1013 482 990 q 410 1047 440 1036 q 349 1057 379 1057 q 287 1045 317 1057 q 236 1010 257 1033 q 206 955 215 986 q 196 893 196 924 q 210 830 196 860 q 248 778 224 800 q 302 744 272 757 q 363 722 332 732 q 425 700 394 711 q 483 672 456 689 q 534 632 511 654 q 574 581 557 610 q 599 522 590 553 q 607 457 607 490 q 601 398 607 428 q 583 341 594 368 q 553 289 571 314 q 513 246 536 264 q 552 208 535 229 q 582 161 569 186 q 600 109 594 136 q 606 54 606 82 q 598 -15 606 19 q 575 -81 590 -50 q 535 -138 560 -112 q 481 -181 511 -164 q 415 -203 450 -197 q 346 -210 381 -210 m 406 301 q 446 326 428 310 q 475 363 464 342 q 492 407 486 383 q 499 454 499 431 q 479 527 499 493 q 428 583 460 561 q 361 617 397 604 q 289 643 325 631 q 249 619 267 635 q 219 582 231 603 q 202 538 208 561 q 196 490 196 514 q 215 417 196 451 q 266 362 235 383 q 333 327 297 340 q 406 301 369 314 z "},"":{"ha":694,"x_min":122,"x_max":572,"o":"m 486 844 q 452 849 469 844 q 422 867 435 854 q 405 897 410 879 q 400 931 400 914 q 405 965 400 947 q 422 994 410 982 q 452 1012 435 1007 q 486 1017 469 1017 q 520 1012 503 1017 q 550 994 538 1007 q 567 965 563 982 q 572 931 572 947 q 567 897 572 914 q 550 867 563 879 q 520 849 538 854 q 486 844 503 844 m 208 844 q 174 849 192 844 q 144 867 157 854 q 127 897 132 879 q 122 931 122 914 q 127 965 122 947 q 144 994 132 982 q 174 1012 157 1007 q 208 1017 192 1017 q 242 1012 225 1017 q 272 994 260 1007 q 290 965 285 982 q 294 931 294 947 q 290 897 294 914 q 272 867 285 879 q 242 849 260 854 q 208 844 225 844 z "},"":{"ha":694,"x_min":143,"x_max":543,"o":"m 303 440 q 242 449 272 440 q 188 478 211 457 q 154 528 165 499 q 143 589 143 558 q 151 641 143 615 q 175 686 158 667 q 215 719 192 706 q 264 740 239 732 q 315 750 289 747 q 367 753 340 753 l 449 753 l 449 797 q 440 832 449 815 q 417 859 432 849 q 383 873 401 869 q 346 876 364 876 q 313 874 329 876 q 281 865 296 871 q 256 844 267 858 q 244 814 244 831 l 149 814 l 149 817 q 167 882 149 851 q 214 931 185 913 q 277 956 243 949 q 346 963 311 963 q 395 959 371 963 q 442 947 419 956 q 485 924 465 939 q 518 890 504 910 q 538 845 532 869 q 543 797 543 821 l 543 449 l 449 449 l 449 531 q 424 492 439 510 q 390 462 410 474 q 349 445 371 450 q 303 440 326 440 m 343 526 q 383 532 364 526 q 419 551 403 538 q 442 583 435 564 q 449 624 449 603 l 449 667 l 367 667 q 340 666 353 667 q 313 663 326 665 q 287 656 300 661 q 263 644 274 651 q 245 624 251 636 q 239 599 239 611 q 249 565 239 581 q 274 541 258 550 q 308 529 290 532 q 343 526 325 526 m 151 265 l 151 340 l 543 340 l 543 265 l 151 265 z "},"":{"ha":694,"x_min":50,"x_max":635,"o":"m 550 121 q 506 215 531 169 q 452 303 482 261 q 387 383 422 346 q 308 450 351 419 l 308 494 q 387 562 351 525 q 452 641 422 599 q 506 729 482 683 q 550 824 531 775 l 635 792 q 550 620 600 703 q 429 472 500 538 q 550 324 500 407 q 635 153 600 242 l 550 121 m 292 121 q 248 215 272 169 q 194 303 224 261 q 128 383 164 346 q 50 450 93 419 l 50 494 q 128 562 93 525 q 194 641 164 599 q 248 729 224 683 q 292 824 272 775 l 376 792 q 292 620 342 703 q 171 472 242 538 q 292 324 242 407 q 376 153 342 242 l 292 121 z "},"":{"ha":694,"x_min":89,"x_max":606,"o":"m 606 188 l 503 188 l 503 426 l 89 426 l 89 518 l 606 518 l 606 188 z "},"":{"ha":694,"x_min":89,"x_max":606,"o":"m 606 424 l 89 424 l 89 521 l 606 521 l 606 424 z "},"":{"ha":694,"x_min":25,"x_max":669,"o":"m 226 714 l 226 1122 l 356 1122 q 404 1113 381 1122 q 444 1085 428 1104 q 466 1042 460 1067 q 472 993 472 1018 q 469 956 472 975 q 458 921 467 938 q 435 892 450 904 q 404 872 421 879 l 482 714 l 400 714 l 326 864 l 301 864 l 301 714 l 226 714 m 301 932 l 356 932 q 376 938 367 932 q 390 952 385 943 q 396 972 394 961 q 397 993 397 982 q 396 1015 397 1004 q 390 1034 394 1025 q 376 1049 385 1043 q 356 1054 367 1054 l 301 1054 l 301 932 m 347 596 q 261 603 304 596 q 179 629 218 610 q 109 680 140 649 q 58 750 78 711 q 32 832 39 789 q 25 918 25 875 q 32 1004 25 961 q 58 1086 39 1047 q 109 1156 78 1125 q 179 1207 140 1188 q 261 1233 218 1226 q 347 1240 304 1240 q 433 1233 390 1240 q 515 1207 476 1226 q 585 1156 554 1188 q 636 1086 617 1125 q 663 1004 656 1047 q 669 918 669 961 q 663 832 669 875 q 636 750 656 789 q 585 680 617 711 q 515 629 554 649 q 433 603 476 610 q 347 596 390 596 m 347 663 q 415 669 381 663 q 478 691 449 675 q 531 732 507 707 q 569 787 554 757 q 589 851 583 817 q 594 918 594 885 q 589 985 594 951 q 569 1049 583 1019 q 531 1104 554 1079 q 478 1145 507 1129 q 415 1167 449 1161 q 347 1174 381 1174 q 280 1167 314 1174 q 217 1145 246 1161 q 164 1104 188 1129 q 126 1049 140 1079 q 106 985 111 1019 q 100 918 100 951 q 106 851 100 885 q 126 787 111 817 q 164 732 140 757 q 217 691 188 707 q 280 669 246 675 q 347 663 314 663 z "},"":{"ha":694,"x_min":89,"x_max":606,"o":"m 606 886 l 89 886 l 89 975 l 606 975 l 606 886 z "},"":{"ha":694,"x_min":189,"x_max":506,"o":"m 347 753 q 284 763 315 753 q 230 795 253 772 q 198 849 207 818 q 189 913 189 881 q 198 976 189 944 q 230 1029 207 1007 q 284 1061 253 1051 q 347 1071 315 1071 q 410 1061 379 1071 q 465 1029 442 1051 q 497 976 488 1007 q 506 913 506 944 q 497 849 506 881 q 465 795 488 818 q 410 763 442 772 q 347 753 379 753 m 347 843 q 375 847 361 843 q 399 861 389 851 q 413 885 408 871 q 417 913 417 899 q 413 940 417 926 q 399 963 408 953 q 375 976 389 972 q 347 981 361 981 q 319 976 333 981 q 296 963 306 972 q 282 940 286 953 q 278 913 278 926 q 282 885 278 899 q 296 861 286 871 q 319 847 306 851 q 347 843 333 843 z "},"":{"ha":694,"x_min":89,"x_max":606,"o":"m 296 204 l 296 426 l 89 426 l 89 518 l 296 518 l 296 740 l 399 740 l 399 518 l 606 518 l 606 426 l 399 426 l 399 204 l 296 204 m 89 0 l 89 92 l 606 92 l 606 0 l 89 0 z "},"":{"ha":694,"x_min":149,"x_max":547,"o":"m 151 449 l 151 450 q 153 513 151 482 q 161 576 154 544 q 181 636 168 607 q 212 691 193 665 q 253 739 231 717 q 302 780 276 761 q 355 815 328 799 q 404 854 382 832 q 439 907 426 876 q 451 968 451 938 q 446 1013 451 990 q 426 1051 440 1035 q 391 1076 413 1068 q 349 1085 369 1085 q 309 1079 328 1085 q 275 1061 290 1074 q 252 1030 260 1049 q 244 990 244 1011 l 244 989 l 149 989 l 149 993 q 164 1067 149 1031 q 208 1127 179 1103 q 273 1161 236 1151 q 349 1171 310 1171 q 428 1158 389 1171 q 496 1117 468 1146 q 535 1049 524 1089 q 547 968 547 1008 q 538 901 547 935 q 509 840 528 868 q 464 790 490 811 q 410 748 438 768 q 356 706 383 728 q 308 658 329 685 q 272 601 286 632 q 253 535 258 569 l 543 535 l 543 449 l 151 449 z "},"":{"ha":694,"x_min":142,"x_max":560,"o":"m 350 440 q 273 450 311 440 q 204 484 235 460 q 158 544 174 508 q 142 619 142 581 l 142 624 l 238 624 l 238 622 q 247 582 238 601 q 272 550 256 563 q 309 533 289 538 q 350 528 329 528 q 394 535 372 528 q 433 558 417 542 q 456 596 449 574 q 463 640 463 618 q 451 697 463 669 q 417 743 439 725 q 366 767 394 761 q 308 772 338 772 l 308 860 q 361 865 335 860 q 407 887 388 869 q 437 929 426 904 q 447 981 447 954 q 442 1021 447 1001 q 422 1056 436 1040 q 390 1078 408 1071 q 350 1085 371 1085 q 313 1079 331 1085 q 281 1060 294 1074 q 260 1028 267 1047 q 253 992 253 1010 l 253 989 l 157 989 l 157 994 q 171 1066 157 1031 q 213 1126 185 1101 q 276 1161 240 1151 q 350 1171 313 1171 q 426 1160 389 1171 q 490 1122 463 1149 q 531 1058 517 1094 q 544 983 544 1021 q 538 932 544 957 q 518 885 531 907 q 486 847 506 864 q 444 818 467 829 q 492 788 471 806 q 529 746 514 769 q 552 694 544 722 q 560 639 560 667 q 544 558 560 597 q 500 492 529 519 q 431 452 471 464 q 350 440 390 440 z "},"":{"ha":694,"x_min":243,"x_max":567,"o":"m 319 753 l 243 807 l 472 1114 l 567 1049 l 319 753 z "},"":{"ha":694,"x_min":89,"x_max":606,"o":"m 89 -299 l 89 722 l 197 722 l 197 278 q 200 231 197 254 q 210 187 203 208 q 230 146 217 165 q 261 113 243 126 q 301 92 279 99 q 347 86 324 86 q 393 92 371 86 q 433 113 415 99 q 465 146 451 126 q 485 187 478 165 q 494 231 492 208 q 497 278 497 254 l 497 722 l 606 722 l 606 0 l 497 0 l 497 132 q 469 74 486 101 q 426 26 451 46 q 368 -2 400 7 q 304 -11 336 -11 q 246 -4 275 -11 q 192 19 217 3 q 196 -65 194 -22 q 197 -149 197 -107 l 197 -299 l 89 -299 z "},"":{"ha":694,"x_min":89,"x_max":606,"o":"m 325 0 l 325 471 q 258 479 292 471 q 194 506 224 488 q 144 551 165 524 q 111 611 124 579 q 94 677 99 643 q 89 746 89 711 q 94 815 89 781 q 111 881 99 849 q 144 940 124 913 q 194 987 165 968 q 258 1013 224 1006 q 325 1021 292 1021 l 606 1021 l 606 0 l 518 0 l 518 943 l 413 943 l 413 0 l 325 0 z "},"":{"ha":694,"x_min":239,"x_max":456,"o":"m 347 364 q 304 370 325 364 q 267 392 283 376 q 245 429 251 408 q 239 472 239 450 q 245 515 239 494 q 267 552 251 536 q 304 574 283 568 q 347 581 325 581 q 390 574 369 581 q 427 552 411 568 q 449 515 443 536 q 456 472 456 494 q 449 429 456 450 q 427 392 443 408 q 390 370 411 376 q 347 364 369 364 z "},"":{"ha":694,"x_min":208,"x_max":497,"o":"m 208 -306 l 208 -218 l 347 -218 q 369 -216 358 -218 q 390 -208 381 -214 q 406 -191 400 -201 q 411 -169 411 -181 q 406 -148 411 -158 q 391 -131 400 -137 q 370 -122 382 -124 q 347 -119 358 -119 l 299 -119 l 299 0 l 396 0 l 396 -56 q 437 -72 417 -61 q 471 -98 457 -82 q 491 -135 485 -114 q 497 -179 497 -157 q 486 -233 497 -207 q 453 -276 475 -260 q 403 -299 431 -293 q 347 -306 375 -306 l 208 -306 z "},"":{"ha":694,"x_min":158,"x_max":425,"o":"m 328 449 l 328 1063 l 211 964 l 158 1021 l 328 1164 l 425 1164 l 425 449 l 328 449 z "},"":{"ha":694,"x_min":143,"x_max":551,"o":"m 347 440 q 292 445 319 440 q 241 463 265 450 q 197 494 217 475 q 165 537 178 513 q 148 588 153 561 q 143 643 143 615 l 143 760 q 148 815 143 788 q 165 866 153 842 q 197 909 178 890 q 241 940 217 928 q 292 958 265 953 q 347 963 319 963 q 402 958 375 963 q 453 940 429 953 q 497 909 478 928 q 529 866 517 890 q 547 815 542 842 q 551 760 551 788 l 551 643 q 547 588 551 615 q 529 537 542 561 q 497 494 517 513 q 453 463 478 475 q 402 445 429 450 q 347 440 375 440 m 347 528 q 392 535 369 528 q 428 560 414 543 q 449 599 443 576 q 456 643 456 621 l 456 760 q 449 804 456 782 q 428 843 443 826 q 392 867 414 860 q 347 875 369 875 q 303 867 325 875 q 266 843 281 860 q 245 804 251 826 q 239 760 239 782 l 239 643 q 245 599 239 621 q 266 560 251 576 q 303 535 281 543 q 347 528 325 528 m 151 265 l 151 340 l 543 340 l 543 265 l 151 265 z "},"":{"ha":694,"x_min":60,"x_max":644,"o":"m 403 121 l 318 153 q 403 324 353 242 q 524 472 453 407 q 403 620 453 538 q 318 792 353 703 l 403 824 q 447 729 422 775 q 501 641 471 683 q 566 562 531 599 q 644 494 601 525 l 644 450 q 566 383 601 419 q 501 303 531 346 q 447 215 471 261 q 403 121 422 169 m 144 121 l 60 153 q 144 324 94 242 q 265 472 194 407 q 144 620 194 538 q 60 792 94 703 l 144 824 q 188 729 164 775 q 242 641 213 683 q 308 562 272 599 q 386 494 343 525 l 386 450 q 308 383 343 419 q 242 303 272 346 q 188 215 213 261 q 144 121 164 169 z "},"":{"ha":694,"x_min":89,"x_max":606,"o":"m 606 439 l 89 439 l 89 506 l 606 506 l 606 439 m 326 617 l 326 1086 l 246 1015 l 197 1065 l 326 1178 l 415 1178 l 415 617 l 326 617 m 376 -233 l 376 -94 l 175 -94 l 175 -15 l 371 328 l 463 328 l 267 -15 l 376 -15 l 376 93 l 464 93 l 464 -15 l 514 -15 l 514 -94 l 464 -94 l 464 -233 l 376 -233 z "},"":{"ha":694,"x_min":89,"x_max":606,"o":"m 606 439 l 89 439 l 89 506 l 606 506 l 606 439 m 326 617 l 326 1086 l 246 1015 l 197 1065 l 326 1178 l 415 1178 l 415 617 l 326 617 m 182 -233 l 182 -232 q 183 -182 182 -207 q 189 -132 183 -157 q 205 -84 194 -107 q 230 -41 215 -61 q 263 -3 244 -21 q 303 28 282 14 q 347 55 324 43 q 388 83 369 67 q 418 122 407 99 q 429 171 429 146 q 424 203 429 188 q 408 232 419 219 q 381 249 397 244 q 349 254 365 254 q 320 251 335 254 q 294 241 306 249 q 275 220 282 233 q 268 192 268 207 l 268 190 l 179 190 l 179 194 q 193 253 179 225 q 231 301 207 282 q 287 327 256 319 q 349 335 318 335 q 415 325 382 335 q 472 292 447 315 q 507 237 496 269 q 518 171 518 204 q 510 119 518 144 q 488 72 503 93 q 453 33 474 50 q 410 1 432 15 q 367 -29 389 -14 q 327 -63 346 -44 q 295 -105 308 -82 q 276 -154 282 -128 l 514 -154 l 514 -233 l 182 -233 z "},"":{"ha":694,"x_min":89,"x_max":606,"o":"m 606 439 l 89 439 l 89 506 l 606 506 l 606 439 m 350 611 q 287 617 318 611 q 229 642 256 624 q 188 690 203 661 q 174 751 174 719 l 174 754 l 263 754 l 263 753 q 270 724 263 738 q 291 703 278 711 q 319 693 304 696 q 350 690 335 690 q 383 694 367 690 q 413 710 400 699 q 432 737 425 721 q 439 769 439 753 q 428 812 439 792 q 399 844 418 832 q 358 860 381 857 q 315 864 336 864 l 315 944 q 355 948 335 944 q 392 963 375 951 q 417 994 408 975 q 426 1032 426 1013 q 421 1062 426 1047 q 405 1086 415 1076 q 380 1100 394 1096 q 350 1104 365 1104 q 322 1101 336 1104 q 297 1090 308 1099 q 280 1069 286 1082 q 274 1042 274 1056 l 274 1040 l 186 1040 l 186 1044 q 199 1103 186 1075 q 235 1151 211 1132 q 290 1177 260 1169 q 350 1185 319 1185 q 413 1176 382 1185 q 467 1146 443 1167 q 503 1095 490 1125 q 515 1033 515 1065 q 510 994 515 1014 q 494 958 504 975 q 469 928 483 942 q 438 906 454 914 q 474 883 457 897 q 503 850 490 868 q 521 810 515 832 q 526 768 526 789 q 513 703 526 735 q 474 649 500 671 q 416 619 449 628 q 350 611 383 611 m 376 -233 l 376 -94 l 175 -94 l 175 -15 l 371 328 l 463 328 l 267 -15 l 376 -15 l 376 93 l 464 93 l 464 -15 l 514 -15 l 514 -94 l 464 -94 l 464 -233 l 376 -233 z "},"":{"ha":694,"x_min":89,"x_max":608,"o":"m 347 538 q 308 543 328 538 q 275 563 289 549 q 256 597 261 578 q 250 636 250 615 q 256 674 250 656 q 275 708 261 693 q 308 728 289 722 q 347 733 328 733 q 386 728 367 733 q 419 708 406 722 q 440 674 433 693 q 446 636 446 656 q 440 597 446 615 q 419 563 433 578 q 386 543 406 549 q 347 538 367 538 m 349 -310 q 282 -304 315 -310 q 218 -285 249 -299 q 163 -248 188 -271 q 121 -196 138 -225 q 97 -133 104 -167 q 89 -67 89 -100 q 97 0 89 -33 q 117 64 104 33 q 149 123 131 94 q 188 178 167 151 q 231 230 208 204 q 268 285 253 256 q 288 349 283 315 q 293 415 293 382 l 401 415 q 399 349 401 382 q 387 283 396 315 q 361 220 378 250 q 324 163 344 190 q 282 111 304 136 q 240 58 260 86 q 209 -1 221 31 q 197 -67 197 -33 q 208 -125 197 -96 q 240 -174 218 -154 q 290 -203 261 -194 q 349 -212 319 -212 q 409 -203 379 -212 q 460 -170 439 -193 q 490 -117 481 -147 q 500 -57 500 -87 l 500 -49 l 608 -49 l 608 -61 q 601 -129 608 -96 q 577 -192 593 -162 q 536 -246 561 -222 q 481 -284 511 -269 q 416 -304 450 -299 q 349 -310 382 -310 z "},"":{"ha":694,"x_min":61,"x_max":633,"o":"m 61 0 l 210 681 l 285 1021 l 410 1021 l 633 0 l 522 0 l 468 264 l 226 264 l 172 0 l 61 0 m 246 361 l 449 361 l 383 681 q 365 769 374 725 q 347 858 356 814 q 330 769 339 814 q 311 681 321 725 l 246 361 m 363 1106 l 185 1294 l 267 1358 l 428 1158 l 363 1106 z "},"":{"ha":694,"x_min":61,"x_max":633,"o":"m 61 0 l 210 681 l 285 1021 l 410 1021 l 633 0 l 522 0 l 468 264 l 226 264 l 172 0 l 61 0 m 246 361 l 449 361 l 383 681 q 365 769 374 725 q 347 858 356 814 q 330 769 339 814 q 311 681 321 725 l 246 361 m 332 1106 l 267 1158 l 428 1358 l 510 1294 l 332 1106 z "},"":{"ha":694,"x_min":61,"x_max":633,"o":"m 61 0 l 210 681 l 285 1021 l 410 1021 l 633 0 l 522 0 l 468 264 l 226 264 l 172 0 l 61 0 m 246 361 l 449 361 l 383 681 q 365 769 374 725 q 347 858 356 814 q 330 769 339 814 q 311 681 321 725 l 246 361 m 217 1118 l 151 1164 l 283 1354 l 411 1354 l 543 1164 l 478 1118 l 347 1276 l 217 1118 z "},"":{"ha":694,"x_min":61,"x_max":633,"o":"m 61 0 l 210 681 l 285 1021 l 410 1021 l 633 0 l 522 0 l 468 264 l 226 264 l 172 0 l 61 0 m 246 361 l 449 361 l 383 681 q 365 769 374 725 q 347 858 356 814 q 330 769 339 814 q 311 681 321 725 l 246 361 m 428 1128 q 414 1129 421 1128 q 401 1133 407 1131 q 388 1137 394 1135 q 376 1143 382 1139 q 364 1151 369 1147 q 354 1159 358 1154 q 344 1169 350 1164 q 334 1179 339 1174 q 325 1190 329 1185 q 317 1200 321 1194 q 310 1211 314 1206 q 301 1223 306 1217 q 292 1235 296 1229 q 283 1245 288 1240 q 272 1255 279 1250 q 265 1263 265 1260 l 268 1263 q 263 1258 268 1261 q 255 1251 258 1256 q 248 1244 251 1247 q 242 1238 244 1240 q 238 1232 240 1235 q 234 1226 236 1229 q 230 1220 232 1224 q 226 1213 228 1217 q 221 1205 224 1208 q 216 1197 218 1201 q 211 1188 214 1192 q 206 1178 208 1183 q 200 1168 203 1174 q 194 1157 197 1163 q 189 1145 192 1151 q 183 1133 186 1139 l 94 1171 q 118 1217 107 1196 q 140 1255 129 1238 q 163 1287 151 1272 q 190 1316 174 1301 q 225 1340 206 1331 q 267 1350 244 1350 q 281 1349 274 1350 q 294 1346 288 1347 q 306 1342 300 1344 q 319 1335 313 1339 q 331 1328 325 1332 q 340 1319 336 1324 q 350 1310 344 1315 q 360 1299 356 1304 q 369 1288 365 1293 q 377 1278 374 1283 q 385 1267 381 1272 q 394 1255 389 1261 q 403 1243 399 1249 q 411 1233 407 1238 q 422 1223 415 1228 q 429 1217 429 1218 l 426 1217 l 432 1219 q 440 1226 436 1222 q 447 1235 443 1231 q 452 1241 450 1239 q 456 1246 454 1243 q 460 1252 458 1249 q 465 1259 463 1256 q 469 1266 467 1263 q 474 1274 471 1269 q 478 1282 476 1278 q 483 1291 481 1286 q 489 1301 486 1296 q 494 1310 492 1306 q 500 1321 497 1315 q 506 1333 503 1326 q 511 1344 508 1339 l 600 1308 q 576 1261 588 1282 q 554 1223 565 1240 q 532 1191 543 1206 q 505 1162 521 1176 q 469 1138 489 1147 q 428 1128 450 1128 z "},"":{"ha":694,"x_min":61,"x_max":633,"o":"m 61 0 l 210 681 l 285 1021 l 410 1021 l 633 0 l 522 0 l 468 264 l 226 264 l 172 0 l 61 0 m 246 361 l 449 361 l 383 681 q 365 769 374 725 q 347 858 356 814 q 330 769 339 814 q 311 681 321 725 l 246 361 m 486 1143 q 452 1148 469 1143 q 422 1165 435 1153 q 405 1195 410 1178 q 400 1229 400 1213 q 405 1263 400 1246 q 422 1293 410 1281 q 452 1310 435 1306 q 486 1315 469 1315 q 520 1310 503 1315 q 550 1293 538 1306 q 567 1263 563 1281 q 572 1229 572 1246 q 567 1195 572 1213 q 550 1165 563 1178 q 520 1148 538 1153 q 486 1143 503 1143 m 208 1143 q 174 1148 192 1143 q 144 1165 157 1153 q 127 1195 132 1178 q 122 1229 122 1213 q 127 1263 122 1246 q 144 1293 132 1281 q 174 1310 157 1306 q 208 1315 192 1315 q 242 1310 225 1315 q 272 1293 260 1306 q 290 1263 285 1281 q 294 1229 294 1246 q 290 1195 294 1213 q 272 1165 285 1178 q 242 1148 260 1153 q 208 1143 225 1143 z "},"":{"ha":694,"x_min":61,"x_max":633,"o":"m 61 0 l 210 681 l 285 1021 l 410 1021 l 633 0 l 522 0 l 468 264 l 226 264 l 172 0 l 61 0 m 246 361 l 449 361 l 383 681 q 365 769 374 725 q 347 858 356 814 q 330 769 339 814 q 311 681 321 725 l 246 361 m 347 1101 q 296 1109 321 1101 q 253 1135 271 1117 q 227 1178 235 1153 q 219 1229 219 1203 q 227 1281 219 1256 q 253 1324 235 1306 q 296 1349 271 1342 q 347 1357 321 1357 q 399 1349 374 1357 q 442 1324 424 1342 q 467 1281 460 1306 q 475 1229 475 1256 q 467 1178 475 1203 q 442 1135 460 1153 q 399 1109 424 1117 q 347 1101 374 1101 m 347 1174 q 369 1177 358 1174 q 388 1188 381 1181 q 399 1207 396 1196 q 403 1229 403 1218 q 399 1251 403 1240 q 388 1270 396 1263 q 369 1281 381 1278 q 347 1285 358 1285 q 325 1281 336 1285 q 306 1270 314 1278 q 295 1251 299 1263 q 292 1229 292 1240 q 295 1207 292 1218 q 306 1188 299 1196 q 325 1177 314 1181 q 347 1174 336 1174 z "},"":{"ha":694,"x_min":49,"x_max":624,"o":"m 49 0 l 272 1021 l 624 1021 l 624 924 l 422 924 l 422 579 l 601 579 l 601 482 l 422 482 l 422 97 l 624 97 l 624 0 l 322 0 l 322 271 l 206 271 l 150 0 l 49 0 m 224 361 l 322 361 l 322 839 q 306 759 314 799 q 290 681 297 719 l 224 361 z "},"":{"ha":694,"x_min":78,"x_max":608,"o":"m 343 -11 q 270 -4 307 -11 q 201 21 233 3 q 144 67 169 39 q 104 128 119 94 q 83 198 89 161 q 78 271 78 235 l 78 750 q 83 823 78 786 q 104 893 89 860 q 144 954 119 926 q 201 1000 169 982 q 270 1025 233 1018 q 343 1032 307 1032 q 412 1026 378 1032 q 477 1006 446 1021 q 534 966 508 990 q 576 912 560 942 q 601 848 593 882 q 608 779 608 814 l 608 771 l 500 771 l 500 776 q 490 839 500 808 q 458 892 481 869 q 406 925 436 915 q 343 935 375 935 q 276 921 308 935 q 222 880 243 907 q 194 819 201 853 q 186 750 186 785 l 186 271 q 194 202 186 236 q 222 141 201 168 q 276 100 243 114 q 343 86 308 86 q 406 96 375 86 q 458 128 436 106 q 490 182 481 151 q 500 244 500 213 l 500 250 l 608 250 l 608 242 q 601 173 608 207 q 576 109 593 139 q 534 55 560 79 q 477 15 508 31 q 412 -6 446 0 q 343 -11 378 -11 m 208 -306 l 208 -218 l 347 -218 q 369 -216 358 -218 q 390 -208 381 -214 q 406 -191 400 -201 q 411 -169 411 -181 q 406 -148 411 -158 q 391 -131 400 -137 q 370 -122 382 -124 q 347 -119 358 -119 l 299 -119 l 299 86 l 396 86 l 396 -56 q 437 -72 417 -61 q 471 -98 457 -82 q 491 -135 485 -114 q 497 -179 497 -157 q 486 -233 497 -207 q 453 -276 475 -260 q 403 -299 431 -293 q 347 -306 375 -306 l 208 -306 z "},"":{"ha":694,"x_min":100,"x_max":606,"o":"m 100 0 l 100 1021 l 606 1021 l 606 924 l 208 924 l 208 579 l 528 579 l 528 482 l 208 482 l 208 97 l 606 97 l 606 0 l 100 0 m 363 1106 l 185 1294 l 267 1358 l 428 1158 l 363 1106 z "},"":{"ha":694,"x_min":100,"x_max":606,"o":"m 100 0 l 100 1021 l 606 1021 l 606 924 l 208 924 l 208 579 l 528 579 l 528 482 l 208 482 l 208 97 l 606 97 l 606 0 l 100 0 m 332 1106 l 267 1158 l 428 1358 l 510 1294 l 332 1106 z "},"":{"ha":694,"x_min":100,"x_max":606,"o":"m 100 0 l 100 1021 l 606 1021 l 606 924 l 208 924 l 208 579 l 528 579 l 528 482 l 208 482 l 208 97 l 606 97 l 606 0 l 100 0 m 217 1118 l 151 1164 l 283 1354 l 411 1354 l 543 1164 l 478 1118 l 347 1276 l 217 1118 z "},"":{"ha":694,"x_min":100,"x_max":606,"o":"m 100 0 l 100 1021 l 606 1021 l 606 924 l 208 924 l 208 579 l 528 579 l 528 482 l 208 482 l 208 97 l 606 97 l 606 0 l 100 0 m 486 1143 q 452 1148 469 1143 q 422 1165 435 1153 q 405 1195 410 1178 q 400 1229 400 1213 q 405 1263 400 1246 q 422 1293 410 1281 q 452 1310 435 1306 q 486 1315 469 1315 q 520 1310 503 1315 q 550 1293 538 1306 q 567 1263 563 1281 q 572 1229 572 1246 q 567 1195 572 1213 q 550 1165 563 1178 q 520 1148 538 1153 q 486 1143 503 1143 m 208 1143 q 174 1148 192 1143 q 144 1165 157 1153 q 127 1195 132 1178 q 122 1229 122 1213 q 127 1263 122 1246 q 144 1293 132 1281 q 174 1310 157 1306 q 208 1315 192 1315 q 242 1310 225 1315 q 272 1293 260 1306 q 290 1263 285 1281 q 294 1229 294 1246 q 290 1195 294 1213 q 272 1165 285 1178 q 242 1148 260 1153 q 208 1143 225 1143 z "},"":{"ha":694,"x_min":104,"x_max":590,"o":"m 104 0 l 104 97 l 293 97 l 293 924 l 104 924 l 104 1021 l 590 1021 l 590 924 l 401 924 l 401 97 l 590 97 l 590 0 l 104 0 m 363 1106 l 185 1294 l 267 1358 l 428 1158 l 363 1106 z "},"":{"ha":694,"x_min":104,"x_max":590,"o":"m 104 0 l 104 97 l 293 97 l 293 924 l 104 924 l 104 1021 l 590 1021 l 590 924 l 401 924 l 401 97 l 590 97 l 590 0 l 104 0 m 332 1106 l 267 1158 l 428 1358 l 510 1294 l 332 1106 z "},"":{"ha":694,"x_min":104,"x_max":590,"o":"m 104 0 l 104 97 l 293 97 l 293 924 l 104 924 l 104 1021 l 590 1021 l 590 924 l 401 924 l 401 97 l 590 97 l 590 0 l 104 0 m 217 1118 l 151 1164 l 283 1354 l 411 1354 l 543 1164 l 478 1118 l 347 1276 l 217 1118 z "},"":{"ha":694,"x_min":104,"x_max":590,"o":"m 104 0 l 104 97 l 293 97 l 293 924 l 104 924 l 104 1021 l 590 1021 l 590 924 l 401 924 l 401 97 l 590 97 l 590 0 l 104 0 m 486 1143 q 452 1148 469 1143 q 422 1165 435 1153 q 405 1195 410 1178 q 400 1229 400 1213 q 405 1263 400 1246 q 422 1293 410 1281 q 452 1310 435 1306 q 486 1315 469 1315 q 520 1310 503 1315 q 550 1293 538 1306 q 567 1263 563 1281 q 572 1229 572 1246 q 567 1195 572 1213 q 550 1165 563 1178 q 520 1148 538 1153 q 486 1143 503 1143 m 208 1143 q 174 1148 192 1143 q 144 1165 157 1153 q 127 1195 132 1178 q 122 1229 122 1213 q 127 1263 122 1246 q 144 1293 132 1281 q 174 1310 157 1306 q 208 1315 192 1315 q 242 1310 225 1315 q 272 1293 260 1306 q 290 1263 285 1281 q 294 1229 294 1246 q 290 1195 294 1213 q 272 1165 285 1178 q 242 1148 260 1153 q 208 1143 225 1143 z "},"":{"ha":694,"x_min":25,"x_max":617,"o":"m 89 0 l 89 468 l 25 468 l 25 553 l 89 553 l 89 1021 l 308 1021 q 389 1014 349 1021 q 466 990 429 1007 q 533 944 503 972 q 583 881 564 917 q 609 804 601 844 q 617 724 617 764 l 617 299 q 609 217 617 257 q 583 140 601 176 q 533 76 564 104 q 466 31 503 49 q 389 7 429 14 q 308 0 349 0 l 89 0 m 197 97 l 308 97 q 361 102 335 97 q 412 119 388 107 q 456 150 436 131 q 487 194 475 169 q 503 244 499 218 q 508 299 508 271 l 508 724 q 503 776 508 750 q 487 827 499 803 q 456 871 475 851 q 412 902 436 890 q 361 919 388 914 q 307 924 335 924 l 197 924 l 197 553 l 340 553 l 340 468 l 197 468 l 197 97 z "},"":{"ha":694,"x_min":89,"x_max":606,"o":"m 89 0 l 89 1021 l 219 1021 l 394 515 l 511 172 q 503 393 508 283 q 497 613 497 503 l 497 1021 l 606 1021 l 606 0 l 475 0 l 183 849 q 192 628 186 738 q 197 408 197 518 l 197 0 l 89 0 m 428 1128 q 414 1129 421 1128 q 401 1133 407 1131 q 388 1137 394 1135 q 376 1143 382 1139 q 364 1151 369 1147 q 354 1159 358 1154 q 344 1169 350 1164 q 334 1179 339 1174 q 325 1190 329 1185 q 317 1200 321 1194 q 310 1211 314 1206 q 301 1223 306 1217 q 292 1235 296 1229 q 283 1245 288 1240 q 272 1255 279 1250 q 265 1263 265 1260 l 268 1263 q 263 1258 268 1261 q 255 1251 258 1256 q 248 1244 251 1247 q 242 1238 244 1240 q 238 1232 240 1235 q 234 1226 236 1229 q 230 1220 232 1224 q 226 1213 228 1217 q 221 1205 224 1208 q 216 1197 218 1201 q 211 1188 214 1192 q 206 1178 208 1183 q 200 1168 203 1174 q 194 1157 197 1163 q 189 1145 192 1151 q 183 1133 186 1139 l 94 1171 q 118 1217 107 1196 q 140 1255 129 1238 q 163 1287 151 1272 q 190 1316 174 1301 q 225 1340 206 1331 q 267 1350 244 1350 q 281 1349 274 1350 q 294 1346 288 1347 q 306 1342 300 1344 q 319 1335 313 1339 q 331 1328 325 1332 q 340 1319 336 1324 q 350 1310 344 1315 q 360 1299 356 1304 q 369 1288 365 1293 q 377 1278 374 1283 q 385 1267 381 1272 q 394 1255 389 1261 q 403 1243 399 1249 q 411 1233 407 1238 q 422 1223 415 1228 q 429 1217 429 1218 l 426 1217 l 432 1219 q 440 1226 436 1222 q 447 1235 443 1231 q 452 1241 450 1239 q 456 1246 454 1243 q 460 1252 458 1249 q 465 1259 463 1256 q 469 1266 467 1263 q 474 1274 471 1269 q 478 1282 476 1278 q 483 1291 481 1286 q 489 1301 486 1296 q 494 1310 492 1306 q 500 1321 497 1315 q 506 1333 503 1326 q 511 1344 508 1339 l 600 1308 q 576 1261 588 1282 q 554 1223 565 1240 q 532 1191 543 1206 q 505 1162 521 1176 q 469 1138 489 1147 q 428 1128 450 1128 z "},"":{"ha":694,"x_min":78,"x_max":617,"o":"m 347 -11 q 273 -4 310 -11 q 204 20 236 3 q 147 65 172 38 q 106 126 121 93 q 84 197 90 160 q 78 271 78 233 l 78 750 q 84 824 78 788 q 106 894 90 861 q 147 956 121 928 q 204 1001 172 983 q 273 1025 236 1018 q 347 1032 310 1032 q 422 1025 385 1032 q 490 1001 458 1018 q 548 956 522 983 q 589 894 574 928 q 610 824 604 861 q 617 750 617 788 l 617 271 q 610 197 617 233 q 589 126 604 160 q 548 65 574 93 q 490 20 522 38 q 422 -4 458 3 q 347 -11 385 -11 m 347 86 q 394 91 371 86 q 436 108 417 96 q 470 140 456 121 q 494 180 485 158 q 506 224 503 201 q 508 271 508 247 l 508 750 q 506 797 508 774 q 494 841 503 819 q 470 881 485 863 q 436 913 456 900 q 394 930 417 925 q 347 935 371 935 q 301 930 324 935 q 258 913 278 925 q 224 881 239 900 q 201 841 210 863 q 189 797 192 819 q 186 750 186 774 l 186 271 q 189 224 186 247 q 201 180 192 201 q 224 140 210 158 q 258 108 239 121 q 301 91 278 96 q 347 86 324 86 m 363 1106 l 185 1294 l 267 1358 l 428 1158 l 363 1106 z "},"":{"ha":694,"x_min":78,"x_max":617,"o":"m 347 -11 q 273 -4 310 -11 q 204 20 236 3 q 147 65 172 38 q 106 126 121 93 q 84 197 90 160 q 78 271 78 233 l 78 750 q 84 824 78 788 q 106 894 90 861 q 147 956 121 928 q 204 1001 172 983 q 273 1025 236 1018 q 347 1032 310 1032 q 422 1025 385 1032 q 490 1001 458 1018 q 548 956 522 983 q 589 894 574 928 q 610 824 604 861 q 617 750 617 788 l 617 271 q 610 197 617 233 q 589 126 604 160 q 548 65 574 93 q 490 20 522 38 q 422 -4 458 3 q 347 -11 385 -11 m 347 86 q 394 91 371 86 q 436 108 417 96 q 470 140 456 121 q 494 180 485 158 q 506 224 503 201 q 508 271 508 247 l 508 750 q 506 797 508 774 q 494 841 503 819 q 470 881 485 863 q 436 913 456 900 q 394 930 417 925 q 347 935 371 935 q 301 930 324 935 q 258 913 278 925 q 224 881 239 900 q 201 841 210 863 q 189 797 192 819 q 186 750 186 774 l 186 271 q 189 224 186 247 q 201 180 192 201 q 224 140 210 158 q 258 108 239 121 q 301 91 278 96 q 347 86 324 86 m 332 1106 l 267 1158 l 428 1358 l 510 1294 l 332 1106 z "},"":{"ha":694,"x_min":78,"x_max":617,"o":"m 347 -11 q 273 -4 310 -11 q 204 20 236 3 q 147 65 172 38 q 106 126 121 93 q 84 197 90 160 q 78 271 78 233 l 78 750 q 84 824 78 788 q 106 894 90 861 q 147 956 121 928 q 204 1001 172 983 q 273 1025 236 1018 q 347 1032 310 1032 q 422 1025 385 1032 q 490 1001 458 1018 q 548 956 522 983 q 589 894 574 928 q 610 824 604 861 q 617 750 617 788 l 617 271 q 610 197 617 233 q 589 126 604 160 q 548 65 574 93 q 490 20 522 38 q 422 -4 458 3 q 347 -11 385 -11 m 347 86 q 394 91 371 86 q 436 108 417 96 q 470 140 456 121 q 494 180 485 158 q 506 224 503 201 q 508 271 508 247 l 508 750 q 506 797 508 774 q 494 841 503 819 q 470 881 485 863 q 436 913 456 900 q 394 930 417 925 q 347 935 371 935 q 301 930 324 935 q 258 913 278 925 q 224 881 239 900 q 201 841 210 863 q 189 797 192 819 q 186 750 186 774 l 186 271 q 189 224 186 247 q 201 180 192 201 q 224 140 210 158 q 258 108 239 121 q 301 91 278 96 q 347 86 324 86 m 217 1118 l 151 1164 l 283 1354 l 411 1354 l 543 1164 l 478 1118 l 347 1276 l 217 1118 z "},"":{"ha":694,"x_min":78,"x_max":617,"o":"m 347 -11 q 273 -4 310 -11 q 204 20 236 3 q 147 65 172 38 q 106 126 121 93 q 84 197 90 160 q 78 271 78 233 l 78 750 q 84 824 78 788 q 106 894 90 861 q 147 956 121 928 q 204 1001 172 983 q 273 1025 236 1018 q 347 1032 310 1032 q 422 1025 385 1032 q 490 1001 458 1018 q 548 956 522 983 q 589 894 574 928 q 610 824 604 861 q 617 750 617 788 l 617 271 q 610 197 617 233 q 589 126 604 160 q 548 65 574 93 q 490 20 522 38 q 422 -4 458 3 q 347 -11 385 -11 m 347 86 q 394 91 371 86 q 436 108 417 96 q 470 140 456 121 q 494 180 485 158 q 506 224 503 201 q 508 271 508 247 l 508 750 q 506 797 508 774 q 494 841 503 819 q 470 881 485 863 q 436 913 456 900 q 394 930 417 925 q 347 935 371 935 q 301 930 324 935 q 258 913 278 925 q 224 881 239 900 q 201 841 210 863 q 189 797 192 819 q 186 750 186 774 l 186 271 q 189 224 186 247 q 201 180 192 201 q 224 140 210 158 q 258 108 239 121 q 301 91 278 96 q 347 86 324 86 m 428 1128 q 414 1129 421 1128 q 401 1133 407 1131 q 388 1137 394 1135 q 376 1143 382 1139 q 364 1151 369 1147 q 354 1159 358 1154 q 344 1169 350 1164 q 334 1179 339 1174 q 325 1190 329 1185 q 317 1200 321 1194 q 310 1211 314 1206 q 301 1223 306 1217 q 292 1235 296 1229 q 283 1245 288 1240 q 272 1255 279 1250 q 265 1263 265 1260 l 268 1263 q 263 1258 268 1261 q 255 1251 258 1256 q 248 1244 251 1247 q 242 1238 244 1240 q 238 1232 240 1235 q 234 1226 236 1229 q 230 1220 232 1224 q 226 1213 228 1217 q 221 1205 224 1208 q 216 1197 218 1201 q 211 1188 214 1192 q 206 1178 208 1183 q 200 1168 203 1174 q 194 1157 197 1163 q 189 1145 192 1151 q 183 1133 186 1139 l 94 1171 q 118 1217 107 1196 q 140 1255 129 1238 q 163 1287 151 1272 q 190 1316 174 1301 q 225 1340 206 1331 q 267 1350 244 1350 q 281 1349 274 1350 q 294 1346 288 1347 q 306 1342 300 1344 q 319 1335 313 1339 q 331 1328 325 1332 q 340 1319 336 1324 q 350 1310 344 1315 q 360 1299 356 1304 q 369 1288 365 1293 q 377 1278 374 1283 q 385 1267 381 1272 q 394 1255 389 1261 q 403 1243 399 1249 q 411 1233 407 1238 q 422 1223 415 1228 q 429 1217 429 1218 l 426 1217 l 432 1219 q 440 1226 436 1222 q 447 1235 443 1231 q 452 1241 450 1239 q 456 1246 454 1243 q 460 1252 458 1249 q 465 1259 463 1256 q 469 1266 467 1263 q 474 1274 471 1269 q 478 1282 476 1278 q 483 1291 481 1286 q 489 1301 486 1296 q 494 1310 492 1306 q 500 1321 497 1315 q 506 1333 503 1326 q 511 1344 508 1339 l 600 1308 q 576 1261 588 1282 q 554 1223 565 1240 q 532 1191 543 1206 q 505 1162 521 1176 q 469 1138 489 1147 q 428 1128 450 1128 z "},"":{"ha":694,"x_min":78,"x_max":617,"o":"m 347 -11 q 273 -4 310 -11 q 204 20 236 3 q 147 65 172 38 q 106 126 121 93 q 84 197 90 160 q 78 271 78 233 l 78 750 q 84 824 78 788 q 106 894 90 861 q 147 956 121 928 q 204 1001 172 983 q 273 1025 236 1018 q 347 1032 310 1032 q 422 1025 385 1032 q 490 1001 458 1018 q 548 956 522 983 q 589 894 574 928 q 610 824 604 861 q 617 750 617 788 l 617 271 q 610 197 617 233 q 589 126 604 160 q 548 65 574 93 q 490 20 522 38 q 422 -4 458 3 q 347 -11 385 -11 m 347 86 q 394 91 371 86 q 436 108 417 96 q 470 140 456 121 q 494 180 485 158 q 506 224 503 201 q 508 271 508 247 l 508 750 q 506 797 508 774 q 494 841 503 819 q 470 881 485 863 q 436 913 456 900 q 394 930 417 925 q 347 935 371 935 q 301 930 324 935 q 258 913 278 925 q 224 881 239 900 q 201 841 210 863 q 189 797 192 819 q 186 750 186 774 l 186 271 q 189 224 186 247 q 201 180 192 201 q 224 140 210 158 q 258 108 239 121 q 301 91 278 96 q 347 86 324 86 m 486 1143 q 452 1148 469 1143 q 422 1165 435 1153 q 405 1195 410 1178 q 400 1229 400 1213 q 405 1263 400 1246 q 422 1293 410 1281 q 452 1310 435 1306 q 486 1315 469 1315 q 520 1310 503 1315 q 550 1293 538 1306 q 567 1263 563 1281 q 572 1229 572 1246 q 567 1195 572 1213 q 550 1165 563 1178 q 520 1148 538 1153 q 486 1143 503 1143 m 208 1143 q 174 1148 192 1143 q 144 1165 157 1153 q 127 1195 132 1178 q 122 1229 122 1213 q 127 1263 122 1246 q 144 1293 132 1281 q 174 1310 157 1306 q 208 1315 192 1315 q 242 1310 225 1315 q 272 1293 260 1306 q 290 1263 285 1281 q 294 1229 294 1246 q 290 1195 294 1213 q 272 1165 285 1178 q 242 1148 260 1153 q 208 1143 225 1143 z "},"":{"ha":694,"x_min":31,"x_max":664,"o":"m 103 160 l 31 224 l 278 472 l 31 721 l 103 785 l 347 542 l 592 785 l 664 721 l 417 472 l 664 224 l 592 160 l 347 403 l 103 160 z "},"":{"ha":694,"x_min":76,"x_max":618,"o":"m 164 -67 l 76 -35 l 126 89 q 103 131 113 108 q 88 176 93 153 q 80 223 82 199 q 78 271 78 247 l 78 750 q 84 824 78 788 q 106 894 90 861 q 147 956 121 928 q 204 1001 172 983 q 273 1025 236 1018 q 347 1032 310 1032 q 424 1024 386 1032 q 494 999 461 1017 l 531 1088 l 618 1056 l 568 932 q 592 890 582 913 q 607 845 601 868 q 615 798 613 822 q 617 750 617 774 l 617 271 q 610 197 617 233 q 589 126 604 160 q 548 65 574 93 q 490 20 522 38 q 422 -4 458 3 q 347 -11 385 -11 q 271 -3 308 -11 q 200 22 233 4 l 164 -67 m 188 238 l 454 899 q 404 926 432 918 q 347 935 376 935 q 301 930 324 935 q 258 913 278 925 q 224 881 239 900 q 201 841 210 863 q 189 797 192 819 q 186 750 186 774 l 186 271 q 186 254 186 263 q 188 238 186 246 m 347 86 q 394 91 371 86 q 436 108 417 96 q 470 140 456 121 q 494 180 485 158 q 506 224 503 201 q 508 271 508 247 l 508 750 q 508 767 508 758 q 507 783 508 775 l 240 122 q 290 94 263 103 q 347 86 318 86 z "},"":{"ha":694,"x_min":89,"x_max":606,"o":"m 347 -11 q 275 -3 311 -11 q 208 22 239 4 q 153 68 176 40 q 115 129 129 96 q 94 199 100 163 q 89 271 89 235 l 89 1021 l 197 1021 l 197 271 q 200 226 197 249 q 210 182 203 203 q 231 142 218 161 q 262 110 243 124 q 303 92 281 97 q 347 86 325 86 q 392 92 369 86 q 433 110 414 97 q 464 142 451 124 q 484 182 476 161 q 494 226 492 203 q 497 271 497 249 l 497 1021 l 606 1021 l 606 271 q 600 199 606 235 q 580 129 594 163 q 542 68 565 96 q 487 22 518 40 q 419 -3 456 4 q 347 -11 383 -11 m 363 1106 l 185 1294 l 267 1358 l 428 1158 l 363 1106 z "},"":{"ha":694,"x_min":89,"x_max":606,"o":"m 347 -11 q 275 -3 311 -11 q 208 22 239 4 q 153 68 176 40 q 115 129 129 96 q 94 199 100 163 q 89 271 89 235 l 89 1021 l 197 1021 l 197 271 q 200 226 197 249 q 210 182 203 203 q 231 142 218 161 q 262 110 243 124 q 303 92 281 97 q 347 86 325 86 q 392 92 369 86 q 433 110 414 97 q 464 142 451 124 q 484 182 476 161 q 494 226 492 203 q 497 271 497 249 l 497 1021 l 606 1021 l 606 271 q 600 199 606 235 q 580 129 594 163 q 542 68 565 96 q 487 22 518 40 q 419 -3 456 4 q 347 -11 383 -11 m 332 1106 l 267 1158 l 428 1358 l 510 1294 l 332 1106 z "},"":{"ha":694,"x_min":89,"x_max":606,"o":"m 347 -11 q 275 -3 311 -11 q 208 22 239 4 q 153 68 176 40 q 115 129 129 96 q 94 199 100 163 q 89 271 89 235 l 89 1021 l 197 1021 l 197 271 q 200 226 197 249 q 210 182 203 203 q 231 142 218 161 q 262 110 243 124 q 303 92 281 97 q 347 86 325 86 q 392 92 369 86 q 433 110 414 97 q 464 142 451 124 q 484 182 476 161 q 494 226 492 203 q 497 271 497 249 l 497 1021 l 606 1021 l 606 271 q 600 199 606 235 q 580 129 594 163 q 542 68 565 96 q 487 22 518 40 q 419 -3 456 4 q 347 -11 383 -11 m 217 1118 l 151 1164 l 283 1354 l 411 1354 l 543 1164 l 478 1118 l 347 1276 l 217 1118 z "},"":{"ha":694,"x_min":89,"x_max":606,"o":"m 347 -11 q 275 -3 311 -11 q 208 22 239 4 q 153 68 176 40 q 115 129 129 96 q 94 199 100 163 q 89 271 89 235 l 89 1021 l 197 1021 l 197 271 q 200 226 197 249 q 210 182 203 203 q 231 142 218 161 q 262 110 243 124 q 303 92 281 97 q 347 86 325 86 q 392 92 369 86 q 433 110 414 97 q 464 142 451 124 q 484 182 476 161 q 494 226 492 203 q 497 271 497 249 l 497 1021 l 606 1021 l 606 271 q 600 199 606 235 q 580 129 594 163 q 542 68 565 96 q 487 22 518 40 q 419 -3 456 4 q 347 -11 383 -11 m 486 1143 q 452 1148 469 1143 q 422 1165 435 1153 q 405 1195 410 1178 q 400 1229 400 1213 q 405 1263 400 1246 q 422 1293 410 1281 q 452 1310 435 1306 q 486 1315 469 1315 q 520 1310 503 1315 q 550 1293 538 1306 q 567 1263 563 1281 q 572 1229 572 1246 q 567 1195 572 1213 q 550 1165 563 1178 q 520 1148 538 1153 q 486 1143 503 1143 m 208 1143 q 174 1148 192 1143 q 144 1165 157 1153 q 127 1195 132 1178 q 122 1229 122 1213 q 127 1263 122 1246 q 144 1293 132 1281 q 174 1310 157 1306 q 208 1315 192 1315 q 242 1310 225 1315 q 272 1293 260 1306 q 290 1263 285 1281 q 294 1229 294 1246 q 290 1195 294 1213 q 272 1165 285 1178 q 242 1148 260 1153 q 208 1143 225 1143 z "},"":{"ha":694,"x_min":63,"x_max":632,"o":"m 293 0 l 293 411 l 63 1021 l 178 1021 l 347 554 l 517 1021 l 632 1021 l 401 411 l 401 0 l 293 0 m 332 1106 l 267 1158 l 428 1358 l 510 1294 l 332 1106 z "},"":{"ha":694,"x_min":111,"x_max":617,"o":"m 111 0 l 111 1021 l 219 1021 l 219 826 l 289 826 q 375 819 332 826 q 457 794 418 813 q 528 746 496 776 q 581 677 560 715 q 609 597 601 639 q 617 511 617 554 q 609 424 617 467 q 581 344 601 382 q 528 275 560 306 q 457 226 496 244 q 375 201 418 208 q 289 194 332 194 l 219 194 l 219 0 l 111 0 m 219 292 l 289 292 q 347 297 318 292 q 403 315 376 301 q 451 349 429 328 q 485 396 472 369 q 503 451 499 422 q 508 511 508 481 q 503 569 508 540 q 485 625 499 599 q 451 672 472 651 q 403 706 429 693 q 347 724 376 719 q 289 729 318 729 l 219 729 l 219 292 z "},"":{"ha":694,"x_min":89,"x_max":617,"o":"m 89 0 l 89 722 q 93 797 89 760 q 110 870 97 835 q 144 937 122 906 q 195 990 165 968 q 262 1022 225 1013 q 336 1032 299 1032 q 405 1024 371 1032 q 469 999 439 1017 q 521 953 499 981 q 556 894 543 926 q 576 828 569 863 q 583 760 583 794 q 576 693 583 726 q 556 630 569 660 q 522 573 543 600 q 476 525 501 546 q 538 483 510 508 q 583 424 565 457 q 609 354 601 392 q 617 279 617 317 q 608 201 617 240 q 579 127 600 161 q 526 67 558 93 q 458 26 494 42 q 381 6 421 11 q 301 0 342 0 l 244 0 l 244 97 l 301 97 q 353 101 328 97 q 403 114 379 104 q 449 140 428 124 q 483 179 469 157 q 503 227 497 201 q 508 279 508 253 q 494 356 508 318 q 449 419 479 394 q 379 452 418 443 q 301 461 340 461 l 301 560 q 373 576 339 560 q 430 622 407 593 q 465 686 453 650 q 476 758 476 722 q 473 800 476 779 q 463 841 469 821 q 444 879 456 861 q 415 910 432 897 q 378 929 399 924 q 336 935 357 935 q 290 926 313 935 q 250 900 267 917 q 223 862 233 883 q 207 817 213 840 q 199 769 201 793 q 197 722 197 746 l 197 0 l 89 0 z "},"":{"ha":694,"x_min":78,"x_max":606,"o":"m 297 -11 q 212 1 254 -11 q 138 42 169 13 q 92 113 107 71 q 78 199 78 156 q 87 268 78 233 q 118 330 96 303 q 171 376 140 357 q 235 406 201 394 q 303 421 268 417 q 374 425 338 425 l 497 425 l 497 493 q 488 551 497 522 q 456 600 478 581 q 404 628 433 619 q 346 636 375 636 q 293 631 319 636 q 244 612 267 626 q 208 574 221 597 q 194 524 194 550 l 194 521 l 86 521 l 86 525 q 96 587 86 557 q 124 642 106 617 q 167 686 142 668 q 223 715 193 704 q 283 729 253 725 q 346 733 314 733 q 413 728 379 733 q 476 710 446 724 q 533 674 507 696 q 575 622 558 651 q 599 560 592 593 q 606 493 606 526 l 606 0 l 497 0 l 497 119 q 466 65 486 90 q 419 21 446 39 q 361 -4 393 3 q 297 -11 329 -11 m 342 86 q 405 97 374 86 q 458 131 436 107 q 488 186 479 154 q 497 250 497 218 l 497 328 l 374 328 q 332 326 353 328 q 291 319 311 324 q 251 306 271 314 q 217 283 232 297 q 194 249 201 269 q 186 208 186 229 q 199 155 186 181 q 234 113 211 129 q 285 92 257 97 q 342 86 313 86 m 363 807 l 185 996 l 267 1060 l 428 860 l 363 807 z "},"":{"ha":694,"x_min":78,"x_max":606,"o":"m 297 -11 q 212 1 254 -11 q 138 42 169 13 q 92 113 107 71 q 78 199 78 156 q 87 268 78 233 q 118 330 96 303 q 171 376 140 357 q 235 406 201 394 q 303 421 268 417 q 374 425 338 425 l 497 425 l 497 493 q 488 551 497 522 q 456 600 478 581 q 404 628 433 619 q 346 636 375 636 q 293 631 319 636 q 244 612 267 626 q 208 574 221 597 q 194 524 194 550 l 194 521 l 86 521 l 86 525 q 96 587 86 557 q 124 642 106 617 q 167 686 142 668 q 223 715 193 704 q 283 729 253 725 q 346 733 314 733 q 413 728 379 733 q 476 710 446 724 q 533 674 507 696 q 575 622 558 651 q 599 560 592 593 q 606 493 606 526 l 606 0 l 497 0 l 497 119 q 466 65 486 90 q 419 21 446 39 q 361 -4 393 3 q 297 -11 329 -11 m 342 86 q 405 97 374 86 q 458 131 436 107 q 488 186 479 154 q 497 250 497 218 l 497 328 l 374 328 q 332 326 353 328 q 291 319 311 324 q 251 306 271 314 q 217 283 232 297 q 194 249 201 269 q 186 208 186 229 q 199 155 186 181 q 234 113 211 129 q 285 92 257 97 q 342 86 313 86 m 332 807 l 267 860 l 428 1060 l 510 996 l 332 807 z "},"":{"ha":694,"x_min":78,"x_max":606,"o":"m 297 -11 q 212 1 254 -11 q 138 42 169 13 q 92 113 107 71 q 78 199 78 156 q 87 268 78 233 q 118 330 96 303 q 171 376 140 357 q 235 406 201 394 q 303 421 268 417 q 374 425 338 425 l 497 425 l 497 493 q 488 551 497 522 q 456 600 478 581 q 404 628 433 619 q 346 636 375 636 q 293 631 319 636 q 244 612 267 626 q 208 574 221 597 q 194 524 194 550 l 194 521 l 86 521 l 86 525 q 96 587 86 557 q 124 642 106 617 q 167 686 142 668 q 223 715 193 704 q 283 729 253 725 q 346 733 314 733 q 413 728 379 733 q 476 710 446 724 q 533 674 507 696 q 575 622 558 651 q 599 560 592 593 q 606 493 606 526 l 606 0 l 497 0 l 497 119 q 466 65 486 90 q 419 21 446 39 q 361 -4 393 3 q 297 -11 329 -11 m 342 86 q 405 97 374 86 q 458 131 436 107 q 488 186 479 154 q 497 250 497 218 l 497 328 l 374 328 q 332 326 353 328 q 291 319 311 324 q 251 306 271 314 q 217 283 232 297 q 194 249 201 269 q 186 208 186 229 q 199 155 186 181 q 234 113 211 129 q 285 92 257 97 q 342 86 313 86 m 217 819 l 151 865 l 283 1056 l 411 1056 l 543 865 l 478 819 l 347 978 l 217 819 z "},"":{"ha":694,"x_min":78,"x_max":606,"o":"m 297 -11 q 212 1 254 -11 q 138 42 169 13 q 92 113 107 71 q 78 199 78 156 q 87 268 78 233 q 118 330 96 303 q 171 376 140 357 q 235 406 201 394 q 303 421 268 417 q 374 425 338 425 l 497 425 l 497 493 q 488 551 497 522 q 456 600 478 581 q 404 628 433 619 q 346 636 375 636 q 293 631 319 636 q 244 612 267 626 q 208 574 221 597 q 194 524 194 550 l 194 521 l 86 521 l 86 525 q 96 587 86 557 q 124 642 106 617 q 167 686 142 668 q 223 715 193 704 q 283 729 253 725 q 346 733 314 733 q 413 728 379 733 q 476 710 446 724 q 533 674 507 696 q 575 622 558 651 q 599 560 592 593 q 606 493 606 526 l 606 0 l 497 0 l 497 119 q 466 65 486 90 q 419 21 446 39 q 361 -4 393 3 q 297 -11 329 -11 m 342 86 q 405 97 374 86 q 458 131 436 107 q 488 186 479 154 q 497 250 497 218 l 497 328 l 374 328 q 332 326 353 328 q 291 319 311 324 q 251 306 271 314 q 217 283 232 297 q 194 249 201 269 q 186 208 186 229 q 199 155 186 181 q 234 113 211 129 q 285 92 257 97 q 342 86 313 86 m 428 829 q 414 831 421 829 q 401 834 407 832 q 388 838 394 836 q 376 844 382 840 q 364 852 369 849 q 354 860 358 856 q 344 870 350 865 q 334 881 339 875 q 325 891 329 886 q 317 901 321 896 q 310 913 314 907 q 301 924 306 918 q 292 936 296 931 q 283 947 288 942 q 272 956 279 951 q 265 964 265 961 l 268 964 q 263 960 268 963 q 255 953 258 957 q 248 945 251 949 q 242 939 244 942 q 238 933 240 936 q 234 928 236 931 q 230 922 232 925 q 226 914 228 918 q 221 906 224 910 q 216 898 218 903 q 211 889 214 893 q 206 880 208 885 q 200 869 203 875 q 194 858 197 864 q 189 847 192 853 q 183 835 186 840 l 94 872 q 118 918 107 897 q 140 956 129 939 q 163 988 151 974 q 190 1017 174 1003 q 225 1042 206 1032 q 267 1051 244 1051 q 281 1050 274 1051 q 294 1047 288 1049 q 306 1043 300 1046 q 319 1037 313 1040 q 331 1029 325 1033 q 340 1021 336 1025 q 350 1011 344 1017 q 360 1000 356 1006 q 369 990 365 994 q 377 979 374 985 q 385 968 381 974 q 394 956 389 963 q 403 944 399 950 q 411 934 407 939 q 422 924 415 929 q 429 918 429 919 l 426 918 l 432 921 q 440 928 436 924 q 447 936 443 932 q 452 942 450 940 q 456 947 454 944 q 460 953 458 950 q 465 960 463 957 q 469 967 467 964 q 474 975 471 971 q 478 983 476 979 q 483 992 481 988 q 489 1002 486 997 q 494 1012 492 1007 q 500 1022 497 1017 q 506 1034 503 1028 q 511 1046 508 1040 l 600 1010 q 576 963 588 983 q 554 924 565 942 q 532 892 543 907 q 505 863 521 878 q 469 839 489 849 q 428 829 450 829 z "},"":{"ha":694,"x_min":78,"x_max":606,"o":"m 297 -11 q 212 1 254 -11 q 138 42 169 13 q 92 113 107 71 q 78 199 78 156 q 87 268 78 233 q 118 330 96 303 q 171 376 140 357 q 235 406 201 394 q 303 421 268 417 q 374 425 338 425 l 497 425 l 497 493 q 488 551 497 522 q 456 600 478 581 q 404 628 433 619 q 346 636 375 636 q 293 631 319 636 q 244 612 267 626 q 208 574 221 597 q 194 524 194 550 l 194 521 l 86 521 l 86 525 q 96 587 86 557 q 124 642 106 617 q 167 686 142 668 q 223 715 193 704 q 283 729 253 725 q 346 733 314 733 q 413 728 379 733 q 476 710 446 724 q 533 674 507 696 q 575 622 558 651 q 599 560 592 593 q 606 493 606 526 l 606 0 l 497 0 l 497 119 q 466 65 486 90 q 419 21 446 39 q 361 -4 393 3 q 297 -11 329 -11 m 342 86 q 405 97 374 86 q 458 131 436 107 q 488 186 479 154 q 497 250 497 218 l 497 328 l 374 328 q 332 326 353 328 q 291 319 311 324 q 251 306 271 314 q 217 283 232 297 q 194 249 201 269 q 186 208 186 229 q 199 155 186 181 q 234 113 211 129 q 285 92 257 97 q 342 86 313 86 m 486 844 q 452 849 469 844 q 422 867 435 854 q 405 897 410 879 q 400 931 400 914 q 405 965 400 947 q 422 994 410 982 q 452 1012 435 1007 q 486 1017 469 1017 q 520 1012 503 1017 q 550 994 538 1007 q 567 965 563 982 q 572 931 572 947 q 567 897 572 914 q 550 867 563 879 q 520 849 538 854 q 486 844 503 844 m 208 844 q 174 849 192 844 q 144 867 157 854 q 127 897 132 879 q 122 931 122 914 q 127 965 122 947 q 144 994 132 982 q 174 1012 157 1007 q 208 1017 192 1017 q 242 1012 225 1017 q 272 994 260 1007 q 290 965 285 982 q 294 931 294 947 q 290 897 294 914 q 272 867 285 879 q 242 849 260 854 q 208 844 225 844 z "},"":{"ha":694,"x_min":78,"x_max":606,"o":"m 297 -11 q 212 1 254 -11 q 138 42 169 13 q 92 113 107 71 q 78 199 78 156 q 87 268 78 233 q 118 330 96 303 q 171 376 140 357 q 235 406 201 394 q 303 421 268 417 q 374 425 338 425 l 497 425 l 497 493 q 488 551 497 522 q 456 600 478 581 q 404 628 433 619 q 346 636 375 636 q 293 631 319 636 q 244 612 267 626 q 208 574 221 597 q 194 524 194 550 l 194 521 l 86 521 l 86 525 q 96 587 86 557 q 124 642 106 617 q 167 686 142 668 q 223 715 193 704 q 283 729 253 725 q 346 733 314 733 q 413 728 379 733 q 476 710 446 724 q 533 674 507 696 q 575 622 558 651 q 599 560 592 593 q 606 493 606 526 l 606 0 l 497 0 l 497 119 q 466 65 486 90 q 419 21 446 39 q 361 -4 393 3 q 297 -11 329 -11 m 342 86 q 405 97 374 86 q 458 131 436 107 q 488 186 479 154 q 497 250 497 218 l 497 328 l 374 328 q 332 326 353 328 q 291 319 311 324 q 251 306 271 314 q 217 283 232 297 q 194 249 201 269 q 186 208 186 229 q 199 155 186 181 q 234 113 211 129 q 285 92 257 97 q 342 86 313 86 m 347 803 q 296 810 321 803 q 253 836 271 818 q 227 879 235 854 q 219 931 219 904 q 227 982 219 957 q 253 1025 235 1007 q 296 1051 271 1043 q 347 1058 321 1058 q 399 1051 374 1058 q 442 1025 424 1043 q 467 982 460 1007 q 475 931 475 957 q 467 879 475 904 q 442 836 460 854 q 399 810 424 818 q 347 803 374 803 m 347 875 q 369 878 358 875 q 388 890 381 882 q 399 908 396 897 q 403 931 403 919 q 399 953 403 942 q 388 972 396 964 q 369 983 381 979 q 347 986 358 986 q 325 983 336 986 q 306 972 314 979 q 295 953 299 964 q 292 931 292 942 q 295 908 292 919 q 306 890 299 897 q 325 878 314 882 q 347 875 336 875 z "},"":{"ha":694,"x_min":60,"x_max":635,"o":"m 228 -11 q 178 -4 203 -11 q 132 18 153 3 q 97 55 111 33 q 74 101 82 76 q 63 151 65 125 q 60 203 60 176 q 63 257 60 229 q 77 310 67 285 q 105 358 88 336 q 145 395 122 381 q 195 416 168 410 q 250 422 222 422 l 297 422 l 297 567 q 294 594 297 581 q 282 619 290 608 q 260 637 274 631 q 233 643 247 643 q 201 630 215 643 q 180 599 186 617 q 171 564 174 582 q 168 526 168 546 l 168 521 l 68 521 l 68 532 q 72 580 68 556 q 84 628 75 604 q 107 672 93 651 q 141 706 121 692 q 185 727 161 721 q 233 733 208 733 q 297 724 265 733 q 351 692 328 714 q 404 724 374 714 q 467 733 435 733 q 515 728 490 733 q 560 708 539 722 q 596 674 581 694 q 620 631 611 654 q 632 584 629 608 q 635 535 635 560 l 635 315 l 397 315 l 397 188 q 400 151 397 169 q 410 117 403 133 q 432 90 417 101 q 465 79 447 79 q 498 92 483 79 q 519 123 513 106 q 529 158 526 140 q 532 196 532 176 l 532 201 l 632 201 l 632 190 q 628 142 632 167 q 616 94 625 117 q 592 51 607 71 q 558 16 578 31 q 513 -5 538 1 q 465 -11 489 -11 q 399 1 431 -11 q 344 38 367 13 q 292 1 322 13 q 228 -11 261 -11 m 397 407 l 535 407 l 535 535 q 532 571 535 553 q 522 605 529 589 q 499 632 514 621 q 467 643 483 643 q 433 632 449 643 q 410 605 418 621 q 400 571 403 589 q 397 535 397 553 l 397 407 m 228 79 q 254 87 242 79 q 274 106 267 94 q 286 130 282 117 q 293 156 290 143 q 297 183 296 169 q 297 211 297 197 l 297 331 l 250 331 q 209 320 229 331 q 178 291 189 310 q 163 250 167 272 q 160 207 160 228 q 163 167 160 186 q 172 128 165 147 q 194 94 179 108 q 228 79 208 79 z "},"":{"ha":694,"x_min":78,"x_max":608,"o":"m 343 -11 q 269 -3 306 -11 q 200 23 232 4 q 144 70 168 42 q 104 133 119 99 q 83 203 89 167 q 78 278 78 240 l 78 444 q 83 519 78 482 q 104 590 89 556 q 144 652 119 624 q 200 699 168 681 q 269 726 232 718 q 343 733 306 733 q 413 728 378 733 q 478 707 447 722 q 534 667 508 692 q 576 613 560 643 q 601 548 593 582 q 608 479 608 514 l 608 472 l 500 472 l 500 476 q 490 539 500 508 q 458 592 481 569 q 406 626 436 615 q 343 636 375 636 q 297 631 319 636 q 254 611 274 625 q 222 578 235 597 q 200 537 208 558 q 189 492 192 515 q 186 444 186 468 l 186 278 q 189 231 186 254 q 200 185 192 207 q 222 144 208 164 q 254 111 235 125 q 297 92 274 97 q 343 86 319 86 q 406 97 375 86 q 458 130 436 107 q 490 183 481 153 q 500 246 500 214 l 500 250 l 608 250 l 608 243 q 601 174 608 208 q 576 110 593 140 q 534 55 560 79 q 478 15 508 31 q 413 -6 447 0 q 343 -11 378 -11 m 208 -306 l 208 -218 l 347 -218 q 369 -216 358 -218 q 390 -208 381 -214 q 406 -191 400 -201 q 411 -169 411 -181 q 406 -148 411 -158 q 391 -131 400 -137 q 370 -122 382 -124 q 347 -119 358 -119 l 299 -119 l 299 86 l 396 86 l 396 -56 q 437 -72 417 -61 q 471 -98 457 -82 q 491 -135 485 -114 q 497 -179 497 -157 q 486 -233 497 -207 q 453 -276 475 -260 q 403 -299 431 -293 q 347 -306 375 -306 l 208 -306 z "},"":{"ha":694,"x_min":78,"x_max":617,"o":"m 347 -11 q 273 -3 310 -11 q 203 22 236 4 q 145 69 171 40 q 104 131 119 97 q 83 203 89 165 q 78 278 78 240 l 78 444 q 83 519 78 482 q 104 591 89 557 q 145 653 119 625 q 203 700 171 682 q 273 726 236 718 q 347 733 310 733 q 422 726 385 733 q 491 700 458 718 q 549 653 524 682 q 590 591 575 625 q 611 519 606 557 q 617 444 617 482 l 617 313 l 186 313 l 186 278 q 189 231 186 254 q 200 185 192 207 q 223 143 208 163 q 257 110 238 124 q 300 92 276 97 q 347 86 324 86 q 402 91 375 86 q 453 110 429 96 q 491 149 476 125 q 506 201 506 174 l 614 201 q 603 139 614 169 q 574 83 593 108 q 529 38 556 57 q 473 8 503 19 q 411 -7 443 -3 q 347 -11 379 -11 m 508 410 l 508 444 q 506 492 508 468 q 494 538 503 515 q 472 579 486 560 q 438 612 457 599 q 394 631 418 625 q 347 636 371 636 q 300 631 324 636 q 257 612 276 625 q 223 579 238 599 q 200 538 208 560 q 189 492 192 515 q 186 444 186 468 l 186 410 l 508 410 m 363 807 l 185 996 l 267 1060 l 428 860 l 363 807 z "},"":{"ha":694,"x_min":78,"x_max":617,"o":"m 347 -11 q 273 -3 310 -11 q 203 22 236 4 q 145 69 171 40 q 104 131 119 97 q 83 203 89 165 q 78 278 78 240 l 78 444 q 83 519 78 482 q 104 591 89 557 q 145 653 119 625 q 203 700 171 682 q 273 726 236 718 q 347 733 310 733 q 422 726 385 733 q 491 700 458 718 q 549 653 524 682 q 590 591 575 625 q 611 519 606 557 q 617 444 617 482 l 617 313 l 186 313 l 186 278 q 189 231 186 254 q 200 185 192 207 q 223 143 208 163 q 257 110 238 124 q 300 92 276 97 q 347 86 324 86 q 402 91 375 86 q 453 110 429 96 q 491 149 476 125 q 506 201 506 174 l 614 201 q 603 139 614 169 q 574 83 593 108 q 529 38 556 57 q 473 8 503 19 q 411 -7 443 -3 q 347 -11 379 -11 m 508 410 l 508 444 q 506 492 508 468 q 494 538 503 515 q 472 579 486 560 q 438 612 457 599 q 394 631 418 625 q 347 636 371 636 q 300 631 324 636 q 257 612 276 625 q 223 579 238 599 q 200 538 208 560 q 189 492 192 515 q 186 444 186 468 l 186 410 l 508 410 m 332 807 l 267 860 l 428 1060 l 510 996 l 332 807 z "},"":{"ha":694,"x_min":78,"x_max":617,"o":"m 347 -11 q 273 -3 310 -11 q 203 22 236 4 q 145 69 171 40 q 104 131 119 97 q 83 203 89 165 q 78 278 78 240 l 78 444 q 83 519 78 482 q 104 591 89 557 q 145 653 119 625 q 203 700 171 682 q 273 726 236 718 q 347 733 310 733 q 422 726 385 733 q 491 700 458 718 q 549 653 524 682 q 590 591 575 625 q 611 519 606 557 q 617 444 617 482 l 617 313 l 186 313 l 186 278 q 189 231 186 254 q 200 185 192 207 q 223 143 208 163 q 257 110 238 124 q 300 92 276 97 q 347 86 324 86 q 402 91 375 86 q 453 110 429 96 q 491 149 476 125 q 506 201 506 174 l 614 201 q 603 139 614 169 q 574 83 593 108 q 529 38 556 57 q 473 8 503 19 q 411 -7 443 -3 q 347 -11 379 -11 m 508 410 l 508 444 q 506 492 508 468 q 494 538 503 515 q 472 579 486 560 q 438 612 457 599 q 394 631 418 625 q 347 636 371 636 q 300 631 324 636 q 257 612 276 625 q 223 579 238 599 q 200 538 208 560 q 189 492 192 515 q 186 444 186 468 l 186 410 l 508 410 m 217 819 l 151 865 l 283 1056 l 411 1056 l 543 865 l 478 819 l 347 978 l 217 819 z "},"":{"ha":694,"x_min":78,"x_max":617,"o":"m 347 -11 q 273 -3 310 -11 q 203 22 236 4 q 145 69 171 40 q 104 131 119 97 q 83 203 89 165 q 78 278 78 240 l 78 444 q 83 519 78 482 q 104 591 89 557 q 145 653 119 625 q 203 700 171 682 q 273 726 236 718 q 347 733 310 733 q 422 726 385 733 q 491 700 458 718 q 549 653 524 682 q 590 591 575 625 q 611 519 606 557 q 617 444 617 482 l 617 313 l 186 313 l 186 278 q 189 231 186 254 q 200 185 192 207 q 223 143 208 163 q 257 110 238 124 q 300 92 276 97 q 347 86 324 86 q 402 91 375 86 q 453 110 429 96 q 491 149 476 125 q 506 201 506 174 l 614 201 q 603 139 614 169 q 574 83 593 108 q 529 38 556 57 q 473 8 503 19 q 411 -7 443 -3 q 347 -11 379 -11 m 508 410 l 508 444 q 506 492 508 468 q 494 538 503 515 q 472 579 486 560 q 438 612 457 599 q 394 631 418 625 q 347 636 371 636 q 300 631 324 636 q 257 612 276 625 q 223 579 238 599 q 200 538 208 560 q 189 492 192 515 q 186 444 186 468 l 186 410 l 508 410 m 486 844 q 452 849 469 844 q 422 867 435 854 q 405 897 410 879 q 400 931 400 914 q 405 965 400 947 q 422 994 410 982 q 452 1012 435 1007 q 486 1017 469 1017 q 520 1012 503 1017 q 550 994 538 1007 q 567 965 563 982 q 572 931 572 947 q 567 897 572 914 q 550 867 563 879 q 520 849 538 854 q 486 844 503 844 m 208 844 q 174 849 192 844 q 144 867 157 854 q 127 897 132 879 q 122 931 122 914 q 127 965 122 947 q 144 994 132 982 q 174 1012 157 1007 q 208 1017 192 1017 q 242 1012 225 1017 q 272 994 260 1007 q 290 965 285 982 q 294 931 294 947 q 290 897 294 914 q 272 867 285 879 q 242 849 260 854 q 208 844 225 844 z "},"":{"ha":694,"x_min":104,"x_max":590,"o":"m 104 0 l 104 97 l 303 97 l 303 625 l 124 625 l 124 722 l 411 722 l 411 97 l 590 97 l 590 0 l 104 0 m 369 807 l 192 996 l 274 1060 l 435 860 l 369 807 z "},"":{"ha":694,"x_min":104,"x_max":590,"o":"m 104 0 l 104 97 l 303 97 l 303 625 l 124 625 l 124 722 l 411 722 l 411 97 l 590 97 l 590 0 l 104 0 m 339 807 l 274 860 l 435 1060 l 517 996 l 339 807 z "},"":{"ha":694,"x_min":104,"x_max":590,"o":"m 104 0 l 104 97 l 303 97 l 303 625 l 124 625 l 124 722 l 411 722 l 411 97 l 590 97 l 590 0 l 104 0 m 224 819 l 158 865 l 290 1056 l 418 1056 l 550 865 l 485 819 l 354 978 l 224 819 z "},"":{"ha":694,"x_min":104,"x_max":590,"o":"m 104 0 l 104 97 l 303 97 l 303 625 l 124 625 l 124 722 l 411 722 l 411 97 l 590 97 l 590 0 l 104 0 m 486 844 q 452 849 469 844 q 422 867 435 854 q 405 897 410 879 q 400 931 400 914 q 405 965 400 947 q 422 994 410 982 q 452 1012 435 1007 q 486 1017 469 1017 q 520 1012 503 1017 q 550 994 538 1007 q 567 965 563 982 q 572 931 572 947 q 567 897 572 914 q 550 867 563 879 q 520 849 538 854 q 486 844 503 844 m 208 844 q 174 849 192 844 q 144 867 157 854 q 127 897 132 879 q 122 931 122 914 q 127 965 122 947 q 144 994 132 982 q 174 1012 157 1007 q 208 1017 192 1017 q 242 1012 225 1017 q 272 994 260 1007 q 290 965 285 982 q 294 931 294 947 q 290 897 294 914 q 272 867 285 879 q 242 849 260 854 q 208 844 225 844 z "},"":{"ha":694,"x_min":78,"x_max":617,"o":"m 347 -11 q 268 -2 307 -11 q 197 29 229 7 q 140 84 164 51 q 101 153 115 117 q 83 230 88 190 q 78 310 78 269 q 82 382 78 346 q 97 453 86 418 q 125 521 107 489 q 170 577 143 553 q 233 613 197 601 q 304 624 268 624 q 369 615 336 624 q 427 586 401 606 q 472 539 453 567 q 503 481 490 511 q 472 614 494 549 q 414 738 450 679 l 153 667 l 128 749 l 357 811 q 269 881 318 851 q 167 928 221 911 l 196 1021 q 347 952 276 999 q 469 842 418 906 l 568 868 l 592 786 l 521 767 q 567 668 547 719 q 599 563 588 617 q 613 454 610 508 q 617 344 617 400 l 617 307 q 611 228 617 267 q 592 152 606 189 q 554 83 578 115 q 497 28 531 50 q 425 -2 464 7 q 347 -11 386 -11 m 347 86 q 399 94 374 86 q 443 118 424 101 q 476 158 463 135 q 496 205 489 181 q 506 255 503 229 q 508 306 508 281 q 506 358 508 332 q 496 408 503 383 q 476 455 489 432 q 443 494 463 478 q 399 519 424 511 q 347 526 374 526 q 296 519 321 526 q 251 494 271 511 q 219 456 232 478 q 199 408 206 433 q 189 358 192 383 q 186 307 186 332 q 189 255 186 281 q 199 205 192 229 q 219 158 206 181 q 251 118 232 135 q 296 94 271 101 q 347 86 321 86 z "},"":{"ha":694,"x_min":89,"x_max":606,"o":"m 89 0 l 89 722 l 197 722 l 197 590 q 226 649 208 621 q 269 696 243 676 q 326 724 294 715 q 390 733 358 733 q 458 724 425 733 q 517 692 490 714 q 560 640 543 669 q 588 578 578 611 q 602 512 599 546 q 606 444 606 478 l 606 0 l 497 0 l 497 444 q 494 491 497 468 q 485 535 492 514 q 465 576 478 557 q 433 610 451 596 q 393 630 415 624 q 347 636 371 636 q 301 630 324 636 q 261 610 279 624 q 230 576 243 596 q 210 535 217 557 q 200 491 203 514 q 197 444 197 468 l 197 0 l 89 0 m 428 829 q 414 831 421 829 q 401 834 407 832 q 388 838 394 836 q 376 844 382 840 q 364 852 369 849 q 354 860 358 856 q 344 870 350 865 q 334 881 339 875 q 325 891 329 886 q 317 901 321 896 q 310 913 314 907 q 301 924 306 918 q 292 936 296 931 q 283 947 288 942 q 272 956 279 951 q 265 964 265 961 l 268 964 q 263 960 268 963 q 255 953 258 957 q 248 945 251 949 q 242 939 244 942 q 238 933 240 936 q 234 928 236 931 q 230 922 232 925 q 226 914 228 918 q 221 906 224 910 q 216 898 218 903 q 211 889 214 893 q 206 880 208 885 q 200 869 203 875 q 194 858 197 864 q 189 847 192 853 q 183 835 186 840 l 94 872 q 118 918 107 897 q 140 956 129 939 q 163 988 151 974 q 190 1017 174 1003 q 225 1042 206 1032 q 267 1051 244 1051 q 281 1050 274 1051 q 294 1047 288 1049 q 306 1043 300 1046 q 319 1037 313 1040 q 331 1029 325 1033 q 340 1021 336 1025 q 350 1011 344 1017 q 360 1000 356 1006 q 369 990 365 994 q 377 979 374 985 q 385 968 381 974 q 394 956 389 963 q 403 944 399 950 q 411 934 407 939 q 422 924 415 929 q 429 918 429 919 l 426 918 l 432 921 q 440 928 436 924 q 447 936 443 932 q 452 942 450 940 q 456 947 454 944 q 460 953 458 950 q 465 960 463 957 q 469 967 467 964 q 474 975 471 971 q 478 983 476 979 q 483 992 481 988 q 489 1002 486 997 q 494 1012 492 1007 q 500 1022 497 1017 q 506 1034 503 1028 q 511 1046 508 1040 l 600 1010 q 576 963 588 983 q 554 924 565 942 q 532 892 543 907 q 505 863 521 878 q 469 839 489 849 q 428 829 450 829 z "},"":{"ha":694,"x_min":78,"x_max":617,"o":"m 347 -11 q 273 -3 310 -11 q 203 22 236 4 q 145 69 171 40 q 104 131 119 97 q 83 203 89 165 q 78 278 78 240 l 78 444 q 83 519 78 482 q 104 591 89 557 q 145 653 119 625 q 203 700 171 682 q 273 726 236 718 q 347 733 310 733 q 422 726 385 733 q 491 700 458 718 q 549 653 524 682 q 590 591 575 625 q 611 519 606 557 q 617 444 617 482 l 617 278 q 611 203 617 240 q 590 131 606 165 q 549 69 575 97 q 491 22 524 40 q 422 -3 458 4 q 347 -11 385 -11 m 347 86 q 394 92 371 86 q 438 110 418 97 q 472 143 457 124 q 494 185 486 163 q 506 231 503 207 q 508 278 508 254 l 508 444 q 506 492 508 468 q 494 538 503 515 q 472 579 486 560 q 438 612 457 599 q 394 631 418 625 q 347 636 371 636 q 300 631 324 636 q 257 612 276 625 q 223 579 238 599 q 200 538 208 560 q 189 492 192 515 q 186 444 186 468 l 186 278 q 189 231 186 254 q 200 185 192 207 q 223 143 208 163 q 257 110 238 124 q 300 92 276 97 q 347 86 324 86 m 363 807 l 185 996 l 267 1060 l 428 860 l 363 807 z "},"":{"ha":694,"x_min":78,"x_max":617,"o":"m 347 -11 q 273 -3 310 -11 q 203 22 236 4 q 145 69 171 40 q 104 131 119 97 q 83 203 89 165 q 78 278 78 240 l 78 444 q 83 519 78 482 q 104 591 89 557 q 145 653 119 625 q 203 700 171 682 q 273 726 236 718 q 347 733 310 733 q 422 726 385 733 q 491 700 458 718 q 549 653 524 682 q 590 591 575 625 q 611 519 606 557 q 617 444 617 482 l 617 278 q 611 203 617 240 q 590 131 606 165 q 549 69 575 97 q 491 22 524 40 q 422 -3 458 4 q 347 -11 385 -11 m 347 86 q 394 92 371 86 q 438 110 418 97 q 472 143 457 124 q 494 185 486 163 q 506 231 503 207 q 508 278 508 254 l 508 444 q 506 492 508 468 q 494 538 503 515 q 472 579 486 560 q 438 612 457 599 q 394 631 418 625 q 347 636 371 636 q 300 631 324 636 q 257 612 276 625 q 223 579 238 599 q 200 538 208 560 q 189 492 192 515 q 186 444 186 468 l 186 278 q 189 231 186 254 q 200 185 192 207 q 223 143 208 163 q 257 110 238 124 q 300 92 276 97 q 347 86 324 86 m 332 807 l 267 860 l 428 1060 l 510 996 l 332 807 z "},"":{"ha":694,"x_min":78,"x_max":617,"o":"m 347 -11 q 273 -3 310 -11 q 203 22 236 4 q 145 69 171 40 q 104 131 119 97 q 83 203 89 165 q 78 278 78 240 l 78 444 q 83 519 78 482 q 104 591 89 557 q 145 653 119 625 q 203 700 171 682 q 273 726 236 718 q 347 733 310 733 q 422 726 385 733 q 491 700 458 718 q 549 653 524 682 q 590 591 575 625 q 611 519 606 557 q 617 444 617 482 l 617 278 q 611 203 617 240 q 590 131 606 165 q 549 69 575 97 q 491 22 524 40 q 422 -3 458 4 q 347 -11 385 -11 m 347 86 q 394 92 371 86 q 438 110 418 97 q 472 143 457 124 q 494 185 486 163 q 506 231 503 207 q 508 278 508 254 l 508 444 q 506 492 508 468 q 494 538 503 515 q 472 579 486 560 q 438 612 457 599 q 394 631 418 625 q 347 636 371 636 q 300 631 324 636 q 257 612 276 625 q 223 579 238 599 q 200 538 208 560 q 189 492 192 515 q 186 444 186 468 l 186 278 q 189 231 186 254 q 200 185 192 207 q 223 143 208 163 q 257 110 238 124 q 300 92 276 97 q 347 86 324 86 m 217 819 l 151 865 l 283 1056 l 411 1056 l 543 865 l 478 819 l 347 978 l 217 819 z "},"":{"ha":694,"x_min":78,"x_max":617,"o":"m 347 -11 q 273 -3 310 -11 q 203 22 236 4 q 145 69 171 40 q 104 131 119 97 q 83 203 89 165 q 78 278 78 240 l 78 444 q 83 519 78 482 q 104 591 89 557 q 145 653 119 625 q 203 700 171 682 q 273 726 236 718 q 347 733 310 733 q 422 726 385 733 q 491 700 458 718 q 549 653 524 682 q 590 591 575 625 q 611 519 606 557 q 617 444 617 482 l 617 278 q 611 203 617 240 q 590 131 606 165 q 549 69 575 97 q 491 22 524 40 q 422 -3 458 4 q 347 -11 385 -11 m 347 86 q 394 92 371 86 q 438 110 418 97 q 472 143 457 124 q 494 185 486 163 q 506 231 503 207 q 508 278 508 254 l 508 444 q 506 492 508 468 q 494 538 503 515 q 472 579 486 560 q 438 612 457 599 q 394 631 418 625 q 347 636 371 636 q 300 631 324 636 q 257 612 276 625 q 223 579 238 599 q 200 538 208 560 q 189 492 192 515 q 186 444 186 468 l 186 278 q 189 231 186 254 q 200 185 192 207 q 223 143 208 163 q 257 110 238 124 q 300 92 276 97 q 347 86 324 86 m 428 829 q 414 831 421 829 q 401 834 407 832 q 388 838 394 836 q 376 844 382 840 q 364 852 369 849 q 354 860 358 856 q 344 870 350 865 q 334 881 339 875 q 325 891 329 886 q 317 901 321 896 q 310 913 314 907 q 301 924 306 918 q 292 936 296 931 q 283 947 288 942 q 272 956 279 951 q 265 964 265 961 l 268 964 q 263 960 268 963 q 255 953 258 957 q 248 945 251 949 q 242 939 244 942 q 238 933 240 936 q 234 928 236 931 q 230 922 232 925 q 226 914 228 918 q 221 906 224 910 q 216 898 218 903 q 211 889 214 893 q 206 880 208 885 q 200 869 203 875 q 194 858 197 864 q 189 847 192 853 q 183 835 186 840 l 94 872 q 118 918 107 897 q 140 956 129 939 q 163 988 151 974 q 190 1017 174 1003 q 225 1042 206 1032 q 267 1051 244 1051 q 281 1050 274 1051 q 294 1047 288 1049 q 306 1043 300 1046 q 319 1037 313 1040 q 331 1029 325 1033 q 340 1021 336 1025 q 350 1011 344 1017 q 360 1000 356 1006 q 369 990 365 994 q 377 979 374 985 q 385 968 381 974 q 394 956 389 963 q 403 944 399 950 q 411 934 407 939 q 422 924 415 929 q 429 918 429 919 l 426 918 l 432 921 q 440 928 436 924 q 447 936 443 932 q 452 942 450 940 q 456 947 454 944 q 460 953 458 950 q 465 960 463 957 q 469 967 467 964 q 474 975 471 971 q 478 983 476 979 q 483 992 481 988 q 489 1002 486 997 q 494 1012 492 1007 q 500 1022 497 1017 q 506 1034 503 1028 q 511 1046 508 1040 l 600 1010 q 576 963 588 983 q 554 924 565 942 q 532 892 543 907 q 505 863 521 878 q 469 839 489 849 q 428 829 450 829 z "},"":{"ha":694,"x_min":78,"x_max":617,"o":"m 347 -11 q 273 -3 310 -11 q 203 22 236 4 q 145 69 171 40 q 104 131 119 97 q 83 203 89 165 q 78 278 78 240 l 78 444 q 83 519 78 482 q 104 591 89 557 q 145 653 119 625 q 203 700 171 682 q 273 726 236 718 q 347 733 310 733 q 422 726 385 733 q 491 700 458 718 q 549 653 524 682 q 590 591 575 625 q 611 519 606 557 q 617 444 617 482 l 617 278 q 611 203 617 240 q 590 131 606 165 q 549 69 575 97 q 491 22 524 40 q 422 -3 458 4 q 347 -11 385 -11 m 347 86 q 394 92 371 86 q 438 110 418 97 q 472 143 457 124 q 494 185 486 163 q 506 231 503 207 q 508 278 508 254 l 508 444 q 506 492 508 468 q 494 538 503 515 q 472 579 486 560 q 438 612 457 599 q 394 631 418 625 q 347 636 371 636 q 300 631 324 636 q 257 612 276 625 q 223 579 238 599 q 200 538 208 560 q 189 492 192 515 q 186 444 186 468 l 186 278 q 189 231 186 254 q 200 185 192 207 q 223 143 208 163 q 257 110 238 124 q 300 92 276 97 q 347 86 324 86 m 486 844 q 452 849 469 844 q 422 867 435 854 q 405 897 410 879 q 400 931 400 914 q 405 965 400 947 q 422 994 410 982 q 452 1012 435 1007 q 486 1017 469 1017 q 520 1012 503 1017 q 550 994 538 1007 q 567 965 563 982 q 572 931 572 947 q 567 897 572 914 q 550 867 563 879 q 520 849 538 854 q 486 844 503 844 m 208 844 q 174 849 192 844 q 144 867 157 854 q 127 897 132 879 q 122 931 122 914 q 127 965 122 947 q 144 994 132 982 q 174 1012 157 1007 q 208 1017 192 1017 q 242 1012 225 1017 q 272 994 260 1007 q 290 965 285 982 q 294 931 294 947 q 290 897 294 914 q 272 867 285 879 q 242 849 260 854 q 208 844 225 844 z "},"":{"ha":694,"x_min":89,"x_max":606,"o":"m 347 638 q 310 643 328 638 q 278 662 292 649 q 260 693 265 675 q 254 731 254 711 q 260 768 254 750 q 278 799 265 786 q 310 818 292 813 q 347 824 328 824 q 385 818 367 824 q 416 799 403 813 q 435 768 429 786 q 440 731 440 750 q 435 693 440 711 q 416 662 429 675 q 385 643 403 649 q 347 638 367 638 m 606 426 l 89 426 l 89 518 l 606 518 l 606 426 m 347 121 q 310 126 328 121 q 278 145 292 132 q 260 176 265 158 q 254 214 254 194 q 260 251 254 233 q 278 283 265 269 q 310 301 292 296 q 347 307 328 307 q 385 301 367 307 q 416 283 403 296 q 435 251 429 269 q 440 214 440 233 q 435 176 440 194 q 416 145 429 158 q 385 126 403 132 q 347 121 367 121 z "},"":{"ha":694,"x_min":78,"x_max":617,"o":"m 161 -57 l 79 -15 l 135 82 q 107 126 118 101 q 89 175 96 150 q 80 226 82 200 q 78 278 78 251 l 78 444 q 83 519 78 482 q 104 591 89 557 q 145 653 119 625 q 203 700 171 682 q 273 726 236 718 q 347 733 310 733 q 420 726 383 733 q 489 701 457 719 l 533 779 l 615 738 l 560 640 q 588 597 576 621 q 606 547 599 572 q 615 497 613 522 q 617 444 617 471 l 617 278 q 611 203 617 240 q 590 131 606 165 q 549 69 575 97 q 491 22 524 40 q 422 -3 458 4 q 347 -11 385 -11 q 274 -4 311 -11 q 206 21 238 3 l 161 -57 m 197 192 l 438 611 q 394 631 418 625 q 347 636 371 636 q 300 631 324 636 q 257 612 276 625 q 223 579 238 599 q 200 538 208 560 q 189 492 192 515 q 186 444 186 468 l 186 278 q 188 234 186 256 q 197 192 190 213 m 347 86 q 394 92 371 86 q 438 110 418 97 q 472 143 457 124 q 494 185 486 163 q 506 231 503 207 q 508 278 508 254 l 508 444 q 506 488 508 467 q 497 531 504 510 l 257 111 q 300 92 276 97 q 347 86 324 86 z "},"":{"ha":694,"x_min":89,"x_max":606,"o":"m 304 -11 q 237 -1 269 -11 q 178 31 204 8 q 134 82 151 53 q 106 144 117 111 q 92 210 96 176 q 89 278 89 244 l 89 722 l 197 722 l 197 278 q 200 231 197 254 q 210 187 203 208 q 230 146 217 165 q 261 113 243 126 q 301 92 279 99 q 347 86 324 86 q 393 92 371 86 q 433 113 415 99 q 465 146 451 126 q 485 187 478 165 q 494 231 492 208 q 497 278 497 254 l 497 722 l 606 722 l 606 0 l 497 0 l 497 132 q 469 74 486 101 q 426 26 451 46 q 368 -2 400 7 q 304 -11 336 -11 m 363 807 l 185 996 l 267 1060 l 428 860 l 363 807 z "},"":{"ha":694,"x_min":89,"x_max":606,"o":"m 304 -11 q 237 -1 269 -11 q 178 31 204 8 q 134 82 151 53 q 106 144 117 111 q 92 210 96 176 q 89 278 89 244 l 89 722 l 197 722 l 197 278 q 200 231 197 254 q 210 187 203 208 q 230 146 217 165 q 261 113 243 126 q 301 92 279 99 q 347 86 324 86 q 393 92 371 86 q 433 113 415 99 q 465 146 451 126 q 485 187 478 165 q 494 231 492 208 q 497 278 497 254 l 497 722 l 606 722 l 606 0 l 497 0 l 497 132 q 469 74 486 101 q 426 26 451 46 q 368 -2 400 7 q 304 -11 336 -11 m 332 807 l 267 860 l 428 1060 l 510 996 l 332 807 z "},"":{"ha":694,"x_min":89,"x_max":606,"o":"m 304 -11 q 237 -1 269 -11 q 178 31 204 8 q 134 82 151 53 q 106 144 117 111 q 92 210 96 176 q 89 278 89 244 l 89 722 l 197 722 l 197 278 q 200 231 197 254 q 210 187 203 208 q 230 146 217 165 q 261 113 243 126 q 301 92 279 99 q 347 86 324 86 q 393 92 371 86 q 433 113 415 99 q 465 146 451 126 q 485 187 478 165 q 494 231 492 208 q 497 278 497 254 l 497 722 l 606 722 l 606 0 l 497 0 l 497 132 q 469 74 486 101 q 426 26 451 46 q 368 -2 400 7 q 304 -11 336 -11 m 217 819 l 151 865 l 283 1056 l 411 1056 l 543 865 l 478 819 l 347 978 l 217 819 z "},"":{"ha":694,"x_min":89,"x_max":606,"o":"m 304 -11 q 237 -1 269 -11 q 178 31 204 8 q 134 82 151 53 q 106 144 117 111 q 92 210 96 176 q 89 278 89 244 l 89 722 l 197 722 l 197 278 q 200 231 197 254 q 210 187 203 208 q 230 146 217 165 q 261 113 243 126 q 301 92 279 99 q 347 86 324 86 q 393 92 371 86 q 433 113 415 99 q 465 146 451 126 q 485 187 478 165 q 494 231 492 208 q 497 278 497 254 l 497 722 l 606 722 l 606 0 l 497 0 l 497 132 q 469 74 486 101 q 426 26 451 46 q 368 -2 400 7 q 304 -11 336 -11 m 486 844 q 452 849 469 844 q 422 867 435 854 q 405 897 410 879 q 400 931 400 914 q 405 965 400 947 q 422 994 410 982 q 452 1012 435 1007 q 486 1017 469 1017 q 520 1012 503 1017 q 550 994 538 1007 q 567 965 563 982 q 572 931 572 947 q 567 897 572 914 q 550 867 563 879 q 520 849 538 854 q 486 844 503 844 m 208 844 q 174 849 192 844 q 144 867 157 854 q 127 897 132 879 q 122 931 122 914 q 127 965 122 947 q 144 994 132 982 q 174 1012 157 1007 q 208 1017 192 1017 q 242 1012 225 1017 q 272 994 260 1007 q 290 965 285 982 q 294 931 294 947 q 290 897 294 914 q 272 867 285 879 q 242 849 260 854 q 208 844 225 844 z "},"":{"ha":694,"x_min":71,"x_max":624,"o":"m 210 -299 q 235 -215 222 -257 q 260 -131 247 -172 l 292 -21 l 71 722 l 183 722 l 349 125 l 511 722 l 624 722 l 322 -299 l 210 -299 m 332 807 l 267 860 l 428 1060 l 510 996 l 332 807 z "},"":{"ha":694,"x_min":89,"x_max":617,"o":"m 89 -299 l 89 1021 l 197 1021 l 197 589 q 227 649 208 621 q 272 696 246 676 q 331 724 299 715 q 396 733 363 733 q 464 724 431 733 q 524 692 497 714 q 569 642 551 671 q 599 580 588 613 q 613 513 610 547 q 617 444 617 479 l 617 278 q 613 209 617 243 q 599 142 610 175 q 569 81 588 110 q 524 30 551 51 q 464 -1 497 8 q 396 -11 431 -11 q 331 -2 363 -11 q 272 26 299 7 q 227 74 246 46 q 197 133 208 101 l 197 -299 l 89 -299 m 353 86 q 399 92 376 86 q 441 111 422 97 q 474 144 460 125 q 495 186 488 164 q 506 231 503 208 q 508 278 508 254 l 508 444 q 506 491 508 468 q 495 536 503 514 q 474 578 488 558 q 441 611 460 597 q 399 631 422 625 q 353 636 376 636 q 306 631 329 636 q 265 611 283 625 q 232 578 246 597 q 210 536 218 558 q 200 491 203 514 q 197 444 197 468 l 197 278 q 200 231 197 254 q 210 186 203 208 q 232 144 218 164 q 265 111 246 125 q 306 92 283 97 q 353 86 329 86 z "},"":{"ha":694,"x_min":71,"x_max":624,"o":"m 210 -299 q 235 -215 222 -257 q 260 -131 247 -172 l 292 -21 l 71 722 l 183 722 l 349 125 l 511 722 l 624 722 l 322 -299 l 210 -299 m 486 844 q 452 849 469 844 q 422 867 435 854 q 405 897 410 879 q 400 931 400 914 q 405 965 400 947 q 422 994 410 982 q 452 1012 435 1007 q 486 1017 469 1017 q 520 1012 503 1017 q 550 994 538 1007 q 567 965 563 982 q 572 931 572 947 q 567 897 572 914 q 550 867 563 879 q 520 849 538 854 q 486 844 503 844 m 208 844 q 174 849 192 844 q 144 867 157 854 q 127 897 132 879 q 122 931 122 914 q 127 965 122 947 q 144 994 132 982 q 174 1012 157 1007 q 208 1017 192 1017 q 242 1012 225 1017 q 272 994 260 1007 q 290 965 285 982 q 294 931 294 947 q 290 897 294 914 q 272 867 285 879 q 242 849 260 854 q 208 844 225 844 z "},"":{"ha":694,"x_min":61,"x_max":633,"o":"m 61 0 l 210 681 l 285 1021 l 410 1021 l 633 0 l 522 0 l 468 264 l 226 264 l 172 0 l 61 0 m 246 361 l 449 361 l 383 681 q 365 769 374 725 q 347 858 356 814 q 330 769 339 814 q 311 681 321 725 l 246 361 m 556 1185 l 139 1185 l 139 1274 l 556 1274 l 556 1185 z "},"":{"ha":694,"x_min":78,"x_max":606,"o":"m 297 -11 q 212 1 254 -11 q 138 42 169 13 q 92 113 107 71 q 78 199 78 156 q 87 268 78 233 q 118 330 96 303 q 171 376 140 357 q 235 406 201 394 q 303 421 268 417 q 374 425 338 425 l 497 425 l 497 493 q 488 551 497 522 q 456 600 478 581 q 404 628 433 619 q 346 636 375 636 q 293 631 319 636 q 244 612 267 626 q 208 574 221 597 q 194 524 194 550 l 194 521 l 86 521 l 86 525 q 96 587 86 557 q 124 642 106 617 q 167 686 142 668 q 223 715 193 704 q 283 729 253 725 q 346 733 314 733 q 413 728 379 733 q 476 710 446 724 q 533 674 507 696 q 575 622 558 651 q 599 560 592 593 q 606 493 606 526 l 606 0 l 497 0 l 497 119 q 466 65 486 90 q 419 21 446 39 q 361 -4 393 3 q 297 -11 329 -11 m 342 86 q 405 97 374 86 q 458 131 436 107 q 488 186 479 154 q 497 250 497 218 l 497 328 l 374 328 q 332 326 353 328 q 291 319 311 324 q 251 306 271 314 q 217 283 232 297 q 194 249 201 269 q 186 208 186 229 q 199 155 186 181 q 234 113 211 129 q 285 92 257 97 q 342 86 313 86 m 556 886 l 139 886 l 139 975 l 556 975 l 556 886 z "},"":{"ha":694,"x_min":61,"x_max":633,"o":"m 61 0 l 210 681 l 285 1021 l 410 1021 l 633 0 l 522 0 l 468 264 l 226 264 l 172 0 l 61 0 m 246 361 l 449 361 l 383 681 q 365 769 374 725 q 347 858 356 814 q 330 769 339 814 q 311 681 321 725 l 246 361 m 347 1132 q 265 1142 306 1132 q 193 1179 225 1153 q 147 1245 161 1206 q 132 1326 132 1285 l 229 1326 q 238 1282 229 1304 q 263 1245 246 1260 q 302 1225 279 1231 q 347 1219 325 1219 q 392 1225 369 1219 q 432 1245 415 1231 q 457 1282 449 1260 q 465 1326 465 1304 l 563 1326 q 548 1245 563 1285 q 501 1179 533 1206 q 429 1142 469 1153 q 347 1132 389 1132 z "},"":{"ha":694,"x_min":78,"x_max":606,"o":"m 297 -11 q 212 1 254 -11 q 138 42 169 13 q 92 113 107 71 q 78 199 78 156 q 87 268 78 233 q 118 330 96 303 q 171 376 140 357 q 235 406 201 394 q 303 421 268 417 q 374 425 338 425 l 497 425 l 497 493 q 488 551 497 522 q 456 600 478 581 q 404 628 433 619 q 346 636 375 636 q 293 631 319 636 q 244 612 267 626 q 208 574 221 597 q 194 524 194 550 l 194 521 l 86 521 l 86 525 q 96 587 86 557 q 124 642 106 617 q 167 686 142 668 q 223 715 193 704 q 283 729 253 725 q 346 733 314 733 q 413 728 379 733 q 476 710 446 724 q 533 674 507 696 q 575 622 558 651 q 599 560 592 593 q 606 493 606 526 l 606 0 l 497 0 l 497 119 q 466 65 486 90 q 419 21 446 39 q 361 -4 393 3 q 297 -11 329 -11 m 342 86 q 405 97 374 86 q 458 131 436 107 q 488 186 479 154 q 497 250 497 218 l 497 328 l 374 328 q 332 326 353 328 q 291 319 311 324 q 251 306 271 314 q 217 283 232 297 q 194 249 201 269 q 186 208 186 229 q 199 155 186 181 q 234 113 211 129 q 285 92 257 97 q 342 86 313 86 m 347 833 q 265 844 306 833 q 193 881 225 854 q 147 947 161 907 q 132 1028 132 986 l 229 1028 q 238 983 229 1006 q 263 947 246 961 q 302 926 279 932 q 347 921 325 921 q 392 926 369 921 q 432 947 415 932 q 457 983 449 961 q 465 1028 465 1006 l 563 1028 q 548 947 563 986 q 501 881 533 907 q 429 844 469 854 q 347 833 389 833 z "},"":{"ha":694,"x_min":61,"x_max":633,"o":"m 61 0 l 210 681 l 285 1021 l 410 1021 l 633 0 l 522 0 l 468 264 l 226 264 l 172 0 l 61 0 m 246 361 l 449 361 l 383 681 q 365 769 374 725 q 347 858 356 814 q 330 769 339 814 q 311 681 321 725 l 246 361 m 575 -310 q 515 -302 544 -310 q 460 -277 485 -294 q 423 -232 436 -260 q 410 -175 410 -204 q 428 -98 410 -135 q 473 -32 446 -61 q 534 19 500 -3 q 606 56 568 40 l 606 0 q 569 -31 586 -14 q 540 -69 553 -49 q 517 -112 526 -89 q 507 -158 507 -135 q 513 -185 507 -172 q 531 -207 519 -199 q 556 -219 542 -215 q 583 -222 569 -222 q 603 -221 593 -222 q 624 -217 614 -219 l 624 -304 q 599 -308 611 -307 q 575 -310 586 -310 z "},"":{"ha":694,"x_min":78,"x_max":624,"o":"m 297 -11 q 212 1 254 -11 q 138 42 169 13 q 92 113 107 71 q 78 199 78 156 q 87 268 78 233 q 118 330 96 303 q 171 376 140 357 q 235 406 201 394 q 303 421 268 417 q 374 425 338 425 l 497 425 l 497 493 q 488 551 497 522 q 456 600 478 581 q 404 628 433 619 q 346 636 375 636 q 293 631 319 636 q 244 612 267 626 q 208 574 221 597 q 194 524 194 550 l 194 521 l 86 521 l 86 525 q 96 587 86 557 q 124 642 106 617 q 167 686 142 668 q 223 715 193 704 q 283 729 253 725 q 346 733 314 733 q 413 728 379 733 q 476 710 446 724 q 533 674 507 696 q 575 622 558 651 q 599 560 592 593 q 606 493 606 526 l 606 0 l 497 0 l 497 119 q 466 65 486 90 q 419 21 446 39 q 361 -4 393 3 q 297 -11 329 -11 m 342 86 q 405 97 374 86 q 458 131 436 107 q 488 186 479 154 q 497 250 497 218 l 497 328 l 374 328 q 332 326 353 328 q 291 319 311 324 q 251 306 271 314 q 217 283 232 297 q 194 249 201 269 q 186 208 186 229 q 199 155 186 181 q 234 113 211 129 q 285 92 257 97 q 342 86 313 86 m 575 -310 q 515 -302 544 -310 q 460 -277 485 -294 q 423 -232 436 -260 q 410 -175 410 -204 q 428 -98 410 -135 q 473 -32 446 -61 q 534 19 500 -3 q 606 56 568 40 l 606 0 q 569 -31 586 -14 q 540 -69 553 -49 q 517 -112 526 -89 q 507 -158 507 -135 q 513 -185 507 -172 q 531 -207 519 -199 q 556 -219 542 -215 q 583 -222 569 -222 q 603 -221 593 -222 q 624 -217 614 -219 l 624 -304 q 599 -308 611 -307 q 575 -310 586 -310 z "},"":{"ha":694,"x_min":78,"x_max":608,"o":"m 343 -11 q 270 -4 307 -11 q 201 21 233 3 q 144 67 169 39 q 104 128 119 94 q 83 198 89 161 q 78 271 78 235 l 78 750 q 83 823 78 786 q 104 893 89 860 q 144 954 119 926 q 201 1000 169 982 q 270 1025 233 1018 q 343 1032 307 1032 q 412 1026 378 1032 q 477 1006 446 1021 q 534 966 508 990 q 576 912 560 942 q 601 848 593 882 q 608 779 608 814 l 608 771 l 500 771 l 500 776 q 490 839 500 808 q 458 892 481 869 q 406 925 436 915 q 343 935 375 935 q 276 921 308 935 q 222 880 243 907 q 194 819 201 853 q 186 750 186 785 l 186 271 q 194 202 186 236 q 222 141 201 168 q 276 100 243 114 q 343 86 308 86 q 406 96 375 86 q 458 128 436 106 q 490 182 481 151 q 500 244 500 213 l 500 250 l 608 250 l 608 242 q 601 173 608 207 q 576 109 593 139 q 534 55 560 79 q 477 15 508 31 q 412 -6 446 0 q 343 -11 378 -11 m 332 1106 l 267 1158 l 428 1358 l 510 1294 l 332 1106 z "},"":{"ha":694,"x_min":78,"x_max":608,"o":"m 343 -11 q 269 -3 306 -11 q 200 23 232 4 q 144 70 168 42 q 104 133 119 99 q 83 203 89 167 q 78 278 78 240 l 78 444 q 83 519 78 482 q 104 590 89 556 q 144 652 119 624 q 200 699 168 681 q 269 726 232 718 q 343 733 306 733 q 413 728 378 733 q 478 707 447 722 q 534 667 508 692 q 576 613 560 643 q 601 548 593 582 q 608 479 608 514 l 608 472 l 500 472 l 500 476 q 490 539 500 508 q 458 592 481 569 q 406 626 436 615 q 343 636 375 636 q 297 631 319 636 q 254 611 274 625 q 222 578 235 597 q 200 537 208 558 q 189 492 192 515 q 186 444 186 468 l 186 278 q 189 231 186 254 q 200 185 192 207 q 222 144 208 164 q 254 111 235 125 q 297 92 274 97 q 343 86 319 86 q 406 97 375 86 q 458 130 436 107 q 490 183 481 153 q 500 246 500 214 l 500 250 l 608 250 l 608 243 q 601 174 608 208 q 576 110 593 140 q 534 55 560 79 q 478 15 508 31 q 413 -6 447 0 q 343 -11 378 -11 m 332 807 l 267 860 l 428 1060 l 510 996 l 332 807 z "},"":{"ha":694,"x_min":78,"x_max":608,"o":"m 343 -11 q 270 -4 307 -11 q 201 21 233 3 q 144 67 169 39 q 104 128 119 94 q 83 198 89 161 q 78 271 78 235 l 78 750 q 83 823 78 786 q 104 893 89 860 q 144 954 119 926 q 201 1000 169 982 q 270 1025 233 1018 q 343 1032 307 1032 q 412 1026 378 1032 q 477 1006 446 1021 q 534 966 508 990 q 576 912 560 942 q 601 848 593 882 q 608 779 608 814 l 608 771 l 500 771 l 500 776 q 490 839 500 808 q 458 892 481 869 q 406 925 436 915 q 343 935 375 935 q 276 921 308 935 q 222 880 243 907 q 194 819 201 853 q 186 750 186 785 l 186 271 q 194 202 186 236 q 222 141 201 168 q 276 100 243 114 q 343 86 308 86 q 406 96 375 86 q 458 128 436 106 q 490 182 481 151 q 500 244 500 213 l 500 250 l 608 250 l 608 242 q 601 173 608 207 q 576 109 593 139 q 534 55 560 79 q 477 15 508 31 q 412 -6 446 0 q 343 -11 378 -11 m 217 1118 l 151 1164 l 283 1354 l 411 1354 l 543 1164 l 478 1118 l 347 1276 l 217 1118 z "},"":{"ha":694,"x_min":78,"x_max":608,"o":"m 343 -11 q 269 -3 306 -11 q 200 23 232 4 q 144 70 168 42 q 104 133 119 99 q 83 203 89 167 q 78 278 78 240 l 78 444 q 83 519 78 482 q 104 590 89 556 q 144 652 119 624 q 200 699 168 681 q 269 726 232 718 q 343 733 306 733 q 413 728 378 733 q 478 707 447 722 q 534 667 508 692 q 576 613 560 643 q 601 548 593 582 q 608 479 608 514 l 608 472 l 500 472 l 500 476 q 490 539 500 508 q 458 592 481 569 q 406 626 436 615 q 343 636 375 636 q 297 631 319 636 q 254 611 274 625 q 222 578 235 597 q 200 537 208 558 q 189 492 192 515 q 186 444 186 468 l 186 278 q 189 231 186 254 q 200 185 192 207 q 222 144 208 164 q 254 111 235 125 q 297 92 274 97 q 343 86 319 86 q 406 97 375 86 q 458 130 436 107 q 490 183 481 153 q 500 246 500 214 l 500 250 l 608 250 l 608 243 q 601 174 608 208 q 576 110 593 140 q 534 55 560 79 q 478 15 508 31 q 413 -6 447 0 q 343 -11 378 -11 m 217 819 l 151 865 l 283 1056 l 411 1056 l 543 865 l 478 819 l 347 978 l 217 819 z "},"":{"ha":694,"x_min":78,"x_max":608,"o":"m 343 -11 q 270 -4 307 -11 q 201 21 233 3 q 144 67 169 39 q 104 128 119 94 q 83 198 89 161 q 78 271 78 235 l 78 750 q 83 823 78 786 q 104 893 89 860 q 144 954 119 926 q 201 1000 169 982 q 270 1025 233 1018 q 343 1032 307 1032 q 412 1026 378 1032 q 477 1006 446 1021 q 534 966 508 990 q 576 912 560 942 q 601 848 593 882 q 608 779 608 814 l 608 771 l 500 771 l 500 776 q 490 839 500 808 q 458 892 481 869 q 406 925 436 915 q 343 935 375 935 q 276 921 308 935 q 222 880 243 907 q 194 819 201 853 q 186 750 186 785 l 186 271 q 194 202 186 236 q 222 141 201 168 q 276 100 243 114 q 343 86 308 86 q 406 96 375 86 q 458 128 436 106 q 490 182 481 151 q 500 244 500 213 l 500 250 l 608 250 l 608 242 q 601 173 608 207 q 576 109 593 139 q 534 55 560 79 q 477 15 508 31 q 412 -6 446 0 q 343 -11 378 -11 m 347 1143 q 313 1148 329 1143 q 283 1165 296 1153 q 266 1194 271 1178 q 261 1229 261 1211 q 266 1264 261 1247 q 283 1293 271 1281 q 313 1311 296 1306 q 347 1317 329 1317 q 382 1311 365 1317 q 411 1293 399 1306 q 429 1264 424 1281 q 435 1229 435 1247 q 429 1194 435 1211 q 411 1165 424 1178 q 382 1148 399 1153 q 347 1143 365 1143 z "},"":{"ha":694,"x_min":78,"x_max":608,"o":"m 343 -11 q 269 -3 306 -11 q 200 23 232 4 q 144 70 168 42 q 104 133 119 99 q 83 203 89 167 q 78 278 78 240 l 78 444 q 83 519 78 482 q 104 590 89 556 q 144 652 119 624 q 200 699 168 681 q 269 726 232 718 q 343 733 306 733 q 413 728 378 733 q 478 707 447 722 q 534 667 508 692 q 576 613 560 643 q 601 548 593 582 q 608 479 608 514 l 608 472 l 500 472 l 500 476 q 490 539 500 508 q 458 592 481 569 q 406 626 436 615 q 343 636 375 636 q 297 631 319 636 q 254 611 274 625 q 222 578 235 597 q 200 537 208 558 q 189 492 192 515 q 186 444 186 468 l 186 278 q 189 231 186 254 q 200 185 192 207 q 222 144 208 164 q 254 111 235 125 q 297 92 274 97 q 343 86 319 86 q 406 97 375 86 q 458 130 436 107 q 490 183 481 153 q 500 246 500 214 l 500 250 l 608 250 l 608 243 q 601 174 608 208 q 576 110 593 140 q 534 55 560 79 q 478 15 508 31 q 413 -6 447 0 q 343 -11 378 -11 m 347 844 q 313 849 329 844 q 283 867 296 854 q 266 896 271 879 q 261 931 261 913 q 266 965 261 949 q 283 994 271 982 q 313 1013 296 1007 q 347 1018 329 1018 q 382 1013 365 1018 q 411 994 399 1007 q 429 965 424 982 q 435 931 435 949 q 429 896 435 913 q 411 867 424 879 q 382 849 399 854 q 347 844 365 844 z "},"":{"ha":694,"x_min":78,"x_max":608,"o":"m 343 -11 q 270 -4 307 -11 q 201 21 233 3 q 144 67 169 39 q 104 128 119 94 q 83 198 89 161 q 78 271 78 235 l 78 750 q 83 823 78 786 q 104 893 89 860 q 144 954 119 926 q 201 1000 169 982 q 270 1025 233 1018 q 343 1032 307 1032 q 412 1026 378 1032 q 477 1006 446 1021 q 534 966 508 990 q 576 912 560 942 q 601 848 593 882 q 608 779 608 814 l 608 771 l 500 771 l 500 776 q 490 839 500 808 q 458 892 481 869 q 406 925 436 915 q 343 935 375 935 q 276 921 308 935 q 222 880 243 907 q 194 819 201 853 q 186 750 186 785 l 186 271 q 194 202 186 236 q 222 141 201 168 q 276 100 243 114 q 343 86 308 86 q 406 96 375 86 q 458 128 436 106 q 490 182 481 151 q 500 244 500 213 l 500 250 l 608 250 l 608 242 q 601 173 608 207 q 576 109 593 139 q 534 55 560 79 q 477 15 508 31 q 412 -6 446 0 q 343 -11 378 -11 m 283 1132 l 151 1322 l 217 1368 l 347 1210 l 478 1368 l 543 1322 l 411 1132 l 283 1132 z "},"":{"ha":694,"x_min":78,"x_max":608,"o":"m 343 -11 q 269 -3 306 -11 q 200 23 232 4 q 144 70 168 42 q 104 133 119 99 q 83 203 89 167 q 78 278 78 240 l 78 444 q 83 519 78 482 q 104 590 89 556 q 144 652 119 624 q 200 699 168 681 q 269 726 232 718 q 343 733 306 733 q 413 728 378 733 q 478 707 447 722 q 534 667 508 692 q 576 613 560 643 q 601 548 593 582 q 608 479 608 514 l 608 472 l 500 472 l 500 476 q 490 539 500 508 q 458 592 481 569 q 406 626 436 615 q 343 636 375 636 q 297 631 319 636 q 254 611 274 625 q 222 578 235 597 q 200 537 208 558 q 189 492 192 515 q 186 444 186 468 l 186 278 q 189 231 186 254 q 200 185 192 207 q 222 144 208 164 q 254 111 235 125 q 297 92 274 97 q 343 86 319 86 q 406 97 375 86 q 458 130 436 107 q 490 183 481 153 q 500 246 500 214 l 500 250 l 608 250 l 608 243 q 601 174 608 208 q 576 110 593 140 q 534 55 560 79 q 478 15 508 31 q 413 -6 447 0 q 343 -11 378 -11 m 283 833 l 151 1024 l 217 1069 l 347 911 l 478 1069 l 543 1024 l 411 833 l 283 833 z "},"":{"ha":694,"x_min":89,"x_max":617,"o":"m 89 0 l 89 1021 l 308 1021 q 389 1014 349 1021 q 466 990 429 1007 q 533 944 503 972 q 583 881 564 917 q 609 804 601 844 q 617 724 617 764 l 617 299 q 609 217 617 257 q 583 140 601 176 q 533 76 564 104 q 466 31 503 49 q 389 7 429 14 q 308 0 349 0 l 89 0 m 197 97 l 308 97 q 361 102 335 97 q 412 119 388 107 q 456 150 436 131 q 487 194 475 169 q 503 244 499 218 q 508 299 508 271 l 508 724 q 503 776 508 750 q 487 827 499 803 q 456 871 475 851 q 412 902 436 890 q 361 919 388 914 q 307 924 335 924 l 197 924 l 197 97 m 283 1132 l 151 1322 l 217 1368 l 347 1210 l 478 1368 l 543 1322 l 411 1132 l 283 1132 z "},"":{"ha":694,"x_min":78,"x_max":733,"o":"m 651 790 l 599 836 q 631 879 618 856 q 650 929 643 903 q 628 936 639 931 q 611 951 618 942 q 601 972 604 960 q 599 994 599 983 q 603 1021 599 1008 q 616 1043 607 1033 q 638 1057 625 1053 q 665 1061 651 1061 q 692 1057 679 1061 q 715 1043 706 1053 q 728 1021 724 1033 q 732 994 732 1008 q 727 938 732 967 q 713 883 722 910 q 688 833 703 857 q 651 790 672 810 m 281 -11 q 217 -1 249 -11 q 161 29 186 8 q 120 78 136 50 q 94 137 104 106 q 81 200 85 168 q 78 264 78 232 l 78 458 q 81 522 78 490 q 94 585 85 554 q 120 644 104 617 q 161 693 136 672 q 217 724 186 714 q 281 733 249 733 q 341 725 311 733 q 394 699 371 717 q 435 655 418 681 q 463 601 453 629 l 463 1021 l 571 1021 l 571 0 l 463 0 l 463 121 q 435 67 453 93 q 394 24 418 42 q 341 -3 371 6 q 281 -11 311 -11 m 324 86 q 367 92 346 86 q 404 110 388 97 q 433 142 421 124 q 451 180 444 160 q 460 222 458 200 q 463 264 463 243 l 463 458 q 460 501 463 479 q 451 542 458 522 q 433 581 444 563 q 404 612 421 599 q 367 631 388 625 q 325 636 346 636 q 282 631 303 636 q 244 612 261 625 q 216 581 228 599 q 197 542 204 563 q 188 501 190 522 q 186 458 186 479 l 186 264 q 188 222 186 243 q 197 180 190 200 q 216 142 204 160 q 244 110 228 124 q 282 92 261 97 q 324 86 303 86 z "},"":{"ha":694,"x_min":25,"x_max":617,"o":"m 89 0 l 89 468 l 25 468 l 25 553 l 89 553 l 89 1021 l 308 1021 q 389 1014 349 1021 q 466 990 429 1007 q 533 944 503 972 q 583 881 564 917 q 609 804 601 844 q 617 724 617 764 l 617 299 q 609 217 617 257 q 583 140 601 176 q 533 76 564 104 q 466 31 503 49 q 389 7 429 14 q 308 0 349 0 l 89 0 m 197 97 l 308 97 q 361 102 335 97 q 412 119 388 107 q 456 150 436 131 q 487 194 475 169 q 503 244 499 218 q 508 299 508 271 l 508 724 q 503 776 508 750 q 487 827 499 803 q 456 871 475 851 q 412 902 436 890 q 361 919 388 914 q 307 924 335 924 l 197 924 l 197 553 l 340 553 l 340 468 l 197 468 l 197 97 z "},"":{"ha":694,"x_min":78,"x_max":669,"o":"m 299 -11 q 231 -1 264 -11 q 170 30 197 8 q 125 81 143 51 q 96 142 107 110 q 81 209 85 175 q 78 278 78 243 l 78 444 q 81 513 78 479 q 96 580 85 547 q 125 642 107 613 q 170 692 143 671 q 231 724 197 714 q 299 733 264 733 q 364 724 332 733 q 422 696 396 715 q 467 649 449 676 q 497 589 486 621 l 497 829 l 350 829 l 350 914 l 497 914 l 497 1021 l 606 1021 l 606 914 l 669 914 l 669 829 l 606 829 l 606 0 l 497 0 l 497 133 q 467 74 486 101 q 422 26 449 46 q 364 -2 396 7 q 299 -11 332 -11 m 342 86 q 388 92 365 86 q 430 111 411 97 q 463 144 449 125 q 484 186 476 164 q 494 231 492 208 q 497 278 497 254 l 497 444 q 494 491 497 468 q 484 536 492 514 q 463 578 476 558 q 430 611 449 597 q 388 631 411 625 q 342 636 365 636 q 295 631 318 636 q 253 611 272 625 q 221 578 235 597 q 199 536 207 558 q 189 491 192 514 q 186 444 186 468 l 186 278 q 189 231 186 254 q 199 186 192 208 q 221 144 207 164 q 253 111 235 125 q 295 92 272 97 q 342 86 318 86 z "},"":{"ha":694,"x_min":100,"x_max":606,"o":"m 100 0 l 100 1021 l 606 1021 l 606 924 l 208 924 l 208 579 l 528 579 l 528 482 l 208 482 l 208 97 l 606 97 l 606 0 l 100 0 m 556 1185 l 139 1185 l 139 1274 l 556 1274 l 556 1185 z "},"":{"ha":694,"x_min":78,"x_max":617,"o":"m 347 -11 q 273 -3 310 -11 q 203 22 236 4 q 145 69 171 40 q 104 131 119 97 q 83 203 89 165 q 78 278 78 240 l 78 444 q 83 519 78 482 q 104 591 89 557 q 145 653 119 625 q 203 700 171 682 q 273 726 236 718 q 347 733 310 733 q 422 726 385 733 q 491 700 458 718 q 549 653 524 682 q 590 591 575 625 q 611 519 606 557 q 617 444 617 482 l 617 313 l 186 313 l 186 278 q 189 231 186 254 q 200 185 192 207 q 223 143 208 163 q 257 110 238 124 q 300 92 276 97 q 347 86 324 86 q 402 91 375 86 q 453 110 429 96 q 491 149 476 125 q 506 201 506 174 l 614 201 q 603 139 614 169 q 574 83 593 108 q 529 38 556 57 q 473 8 503 19 q 411 -7 443 -3 q 347 -11 379 -11 m 508 410 l 508 444 q 506 492 508 468 q 494 538 503 515 q 472 579 486 560 q 438 612 457 599 q 394 631 418 625 q 347 636 371 636 q 300 631 324 636 q 257 612 276 625 q 223 579 238 599 q 200 538 208 560 q 189 492 192 515 q 186 444 186 468 l 186 410 l 508 410 m 556 886 l 139 886 l 139 975 l 556 975 l 556 886 z "},"":{"ha":694,"x_min":100,"x_max":606,"o":"m 100 0 l 100 1021 l 606 1021 l 606 924 l 208 924 l 208 579 l 528 579 l 528 482 l 208 482 l 208 97 l 606 97 l 606 0 l 100 0 m 347 1132 q 265 1142 306 1132 q 193 1179 225 1153 q 147 1245 161 1206 q 132 1326 132 1285 l 229 1326 q 238 1282 229 1304 q 263 1245 246 1260 q 302 1225 279 1231 q 347 1219 325 1219 q 392 1225 369 1219 q 432 1245 415 1231 q 457 1282 449 1260 q 465 1326 465 1304 l 563 1326 q 548 1245 563 1285 q 501 1179 533 1206 q 429 1142 469 1153 q 347 1132 389 1132 z "},"":{"ha":694,"x_min":78,"x_max":617,"o":"m 347 -11 q 273 -3 310 -11 q 203 22 236 4 q 145 69 171 40 q 104 131 119 97 q 83 203 89 165 q 78 278 78 240 l 78 444 q 83 519 78 482 q 104 591 89 557 q 145 653 119 625 q 203 700 171 682 q 273 726 236 718 q 347 733 310 733 q 422 726 385 733 q 491 700 458 718 q 549 653 524 682 q 590 591 575 625 q 611 519 606 557 q 617 444 617 482 l 617 313 l 186 313 l 186 278 q 189 231 186 254 q 200 185 192 207 q 223 143 208 163 q 257 110 238 124 q 300 92 276 97 q 347 86 324 86 q 402 91 375 86 q 453 110 429 96 q 491 149 476 125 q 506 201 506 174 l 614 201 q 603 139 614 169 q 574 83 593 108 q 529 38 556 57 q 473 8 503 19 q 411 -7 443 -3 q 347 -11 379 -11 m 508 410 l 508 444 q 506 492 508 468 q 494 538 503 515 q 472 579 486 560 q 438 612 457 599 q 394 631 418 625 q 347 636 371 636 q 300 631 324 636 q 257 612 276 625 q 223 579 238 599 q 200 538 208 560 q 189 492 192 515 q 186 444 186 468 l 186 410 l 508 410 m 347 833 q 265 844 306 833 q 193 881 225 854 q 147 947 161 907 q 132 1028 132 986 l 229 1028 q 238 983 229 1006 q 263 947 246 961 q 302 926 279 932 q 347 921 325 921 q 392 926 369 921 q 432 947 415 932 q 457 983 449 961 q 465 1028 465 1006 l 563 1028 q 548 947 563 986 q 501 881 533 907 q 429 844 469 854 q 347 833 389 833 z "},"":{"ha":694,"x_min":100,"x_max":606,"o":"m 100 0 l 100 1021 l 606 1021 l 606 924 l 208 924 l 208 579 l 528 579 l 528 482 l 208 482 l 208 97 l 606 97 l 606 0 l 100 0 m 347 1143 q 313 1148 329 1143 q 283 1165 296 1153 q 266 1194 271 1178 q 261 1229 261 1211 q 266 1264 261 1247 q 283 1293 271 1281 q 313 1311 296 1306 q 347 1317 329 1317 q 382 1311 365 1317 q 411 1293 399 1306 q 429 1264 424 1281 q 435 1229 435 1247 q 429 1194 435 1211 q 411 1165 424 1178 q 382 1148 399 1153 q 347 1143 365 1143 z "},"":{"ha":694,"x_min":78,"x_max":617,"o":"m 347 -11 q 273 -3 310 -11 q 203 22 236 4 q 145 69 171 40 q 104 131 119 97 q 83 203 89 165 q 78 278 78 240 l 78 444 q 83 519 78 482 q 104 591 89 557 q 145 653 119 625 q 203 700 171 682 q 273 726 236 718 q 347 733 310 733 q 422 726 385 733 q 491 700 458 718 q 549 653 524 682 q 590 591 575 625 q 611 519 606 557 q 617 444 617 482 l 617 313 l 186 313 l 186 278 q 189 231 186 254 q 200 185 192 207 q 223 143 208 163 q 257 110 238 124 q 300 92 276 97 q 347 86 324 86 q 402 91 375 86 q 453 110 429 96 q 491 149 476 125 q 506 201 506 174 l 614 201 q 603 139 614 169 q 574 83 593 108 q 529 38 556 57 q 473 8 503 19 q 411 -7 443 -3 q 347 -11 379 -11 m 508 410 l 508 444 q 506 492 508 468 q 494 538 503 515 q 472 579 486 560 q 438 612 457 599 q 394 631 418 625 q 347 636 371 636 q 300 631 324 636 q 257 612 276 625 q 223 579 238 599 q 200 538 208 560 q 189 492 192 515 q 186 444 186 468 l 186 410 l 508 410 m 347 844 q 313 849 329 844 q 283 867 296 854 q 266 896 271 879 q 261 931 261 913 q 266 965 261 949 q 283 994 271 982 q 313 1013 296 1007 q 347 1018 329 1018 q 382 1013 365 1018 q 411 994 399 1007 q 429 965 424 982 q 435 931 435 949 q 429 896 435 913 q 411 867 424 879 q 382 849 399 854 q 347 844 365 844 z "},"":{"ha":694,"x_min":100,"x_max":624,"o":"m 100 0 l 100 1021 l 606 1021 l 606 924 l 208 924 l 208 579 l 528 579 l 528 482 l 208 482 l 208 97 l 606 97 l 606 0 l 100 0 m 575 -310 q 515 -302 544 -310 q 460 -277 485 -294 q 423 -232 436 -260 q 410 -175 410 -204 q 428 -98 410 -135 q 473 -32 446 -61 q 534 19 500 -3 q 606 56 568 40 l 606 0 q 569 -31 586 -14 q 540 -69 553 -49 q 517 -112 526 -89 q 507 -158 507 -135 q 513 -185 507 -172 q 531 -207 519 -199 q 556 -219 542 -215 q 583 -222 569 -222 q 603 -221 593 -222 q 624 -217 614 -219 l 624 -304 q 599 -308 611 -307 q 575 -310 586 -310 z "},"":{"ha":694,"x_min":78,"x_max":617,"o":"m 560 -311 q 503 -303 531 -311 q 452 -276 475 -294 q 417 -231 429 -257 q 404 -175 404 -204 q 413 -122 404 -147 q 435 -72 421 -96 q 465 -26 449 -49 q 496 18 481 -4 q 423 -5 461 1 q 347 -11 385 -11 q 273 -3 310 -11 q 203 22 236 4 q 145 69 171 40 q 104 131 119 97 q 83 203 89 165 q 78 278 78 240 l 78 444 q 83 519 78 482 q 104 591 89 557 q 145 653 119 625 q 203 700 171 682 q 273 726 236 718 q 347 733 310 733 q 422 726 385 733 q 491 700 458 718 q 549 653 524 682 q 590 591 575 625 q 611 519 606 557 q 617 444 617 482 l 617 313 l 186 313 l 186 278 q 189 231 186 254 q 200 185 192 207 q 223 143 208 163 q 257 110 238 124 q 300 92 276 97 q 347 86 324 86 q 402 91 375 86 q 453 110 429 96 q 491 149 476 125 q 506 201 506 174 l 614 201 q 611 154 614 178 q 603 107 608 131 q 590 61 597 83 q 572 17 582 39 q 551 -26 563 -4 q 530 -69 540 -47 q 510 -112 519 -90 q 501 -158 501 -135 q 507 -185 501 -172 q 524 -206 513 -197 q 549 -219 535 -215 q 576 -222 563 -222 q 595 -221 586 -222 q 614 -217 604 -219 l 614 -304 q 588 -309 601 -307 q 560 -311 574 -311 m 508 410 l 508 444 q 506 492 508 468 q 494 538 503 515 q 472 579 486 560 q 438 612 457 599 q 394 631 418 625 q 347 636 371 636 q 300 631 324 636 q 257 612 276 625 q 223 579 238 599 q 200 538 208 560 q 189 492 192 515 q 186 444 186 468 l 186 410 l 508 410 z "},"":{"ha":694,"x_min":100,"x_max":606,"o":"m 100 0 l 100 1021 l 606 1021 l 606 924 l 208 924 l 208 579 l 528 579 l 528 482 l 208 482 l 208 97 l 606 97 l 606 0 l 100 0 m 283 1132 l 151 1322 l 217 1368 l 347 1210 l 478 1368 l 543 1322 l 411 1132 l 283 1132 z "},"":{"ha":694,"x_min":78,"x_max":617,"o":"m 347 -11 q 273 -3 310 -11 q 203 22 236 4 q 145 69 171 40 q 104 131 119 97 q 83 203 89 165 q 78 278 78 240 l 78 444 q 83 519 78 482 q 104 591 89 557 q 145 653 119 625 q 203 700 171 682 q 273 726 236 718 q 347 733 310 733 q 422 726 385 733 q 491 700 458 718 q 549 653 524 682 q 590 591 575 625 q 611 519 606 557 q 617 444 617 482 l 617 313 l 186 313 l 186 278 q 189 231 186 254 q 200 185 192 207 q 223 143 208 163 q 257 110 238 124 q 300 92 276 97 q 347 86 324 86 q 402 91 375 86 q 453 110 429 96 q 491 149 476 125 q 506 201 506 174 l 614 201 q 603 139 614 169 q 574 83 593 108 q 529 38 556 57 q 473 8 503 19 q 411 -7 443 -3 q 347 -11 379 -11 m 508 410 l 508 444 q 506 492 508 468 q 494 538 503 515 q 472 579 486 560 q 438 612 457 599 q 394 631 418 625 q 347 636 371 636 q 300 631 324 636 q 257 612 276 625 q 223 579 238 599 q 200 538 208 560 q 189 492 192 515 q 186 444 186 468 l 186 410 l 508 410 m 283 833 l 151 1024 l 217 1069 l 347 911 l 478 1069 l 543 1024 l 411 833 l 283 833 z "},"":{"ha":694,"x_min":78,"x_max":608,"o":"m 299 -11 q 232 -2 265 -11 q 172 28 199 7 q 126 77 144 49 q 97 138 107 106 q 82 203 86 169 q 78 271 78 238 l 78 750 q 83 823 78 786 q 104 893 89 860 q 144 954 119 926 q 201 1000 169 982 q 270 1025 233 1018 q 343 1032 307 1032 q 412 1026 378 1032 q 477 1006 446 1021 q 534 966 508 990 q 576 912 560 942 q 601 848 593 882 q 608 779 608 814 l 608 771 l 500 771 l 500 776 q 490 839 500 808 q 458 892 481 869 q 406 925 436 915 q 343 935 375 935 q 276 922 308 935 q 222 881 243 908 q 194 819 201 853 q 186 750 186 785 l 186 271 q 189 226 186 249 q 200 181 192 203 q 222 141 208 160 q 255 110 236 122 q 297 92 274 97 q 342 86 319 86 q 387 92 364 86 q 428 110 410 97 q 461 141 447 122 q 483 181 475 160 q 494 226 492 203 q 497 271 497 249 l 497 458 l 347 458 l 347 556 l 606 556 l 606 0 l 508 0 l 508 164 q 481 94 499 128 q 436 36 464 61 q 372 0 408 11 q 299 -11 336 -11 m 217 1118 l 151 1164 l 283 1354 l 411 1354 l 543 1164 l 478 1118 l 347 1276 l 217 1118 z "},"":{"ha":694,"x_min":78,"x_max":606,"o":"m 344 -310 q 283 -306 314 -310 q 224 -292 253 -303 q 170 -265 196 -282 q 126 -224 144 -247 q 97 -171 107 -200 q 86 -111 88 -142 l 194 -111 q 210 -158 194 -136 q 247 -192 225 -179 q 293 -208 268 -204 q 344 -212 318 -212 q 390 -206 367 -212 q 431 -187 413 -200 q 463 -154 450 -174 q 484 -112 476 -135 q 494 -67 492 -90 q 497 -21 497 -44 l 497 133 q 467 74 486 101 q 422 26 449 46 q 364 -2 396 7 q 299 -11 332 -11 q 231 -1 264 -11 q 170 30 197 8 q 125 81 143 51 q 96 142 107 110 q 81 209 85 175 q 78 278 78 243 l 78 444 q 81 513 78 479 q 96 580 85 547 q 125 642 107 613 q 170 692 143 671 q 231 724 197 714 q 299 733 264 733 q 364 724 332 733 q 422 696 396 715 q 467 649 449 676 q 497 589 486 621 l 497 722 l 606 722 l 606 -21 q 600 -95 606 -58 q 580 -165 594 -132 q 542 -228 565 -199 q 486 -276 518 -257 q 417 -302 454 -294 q 344 -310 381 -310 m 342 86 q 388 92 365 86 q 430 111 411 97 q 463 144 449 125 q 484 186 476 164 q 494 231 492 208 q 497 278 497 254 l 497 444 q 494 491 497 468 q 484 536 492 514 q 463 578 476 558 q 430 611 449 597 q 388 631 411 625 q 342 636 365 636 q 295 631 318 636 q 253 611 272 625 q 221 578 235 597 q 199 536 207 558 q 189 491 192 514 q 186 444 186 468 l 186 278 q 189 231 186 254 q 199 186 192 208 q 221 144 207 164 q 253 111 235 125 q 295 92 272 97 q 342 86 318 86 m 217 819 l 151 865 l 283 1056 l 411 1056 l 543 865 l 478 819 l 347 978 l 217 819 z "},"":{"ha":694,"x_min":78,"x_max":608,"o":"m 299 -11 q 232 -2 265 -11 q 172 28 199 7 q 126 77 144 49 q 97 138 107 106 q 82 203 86 169 q 78 271 78 238 l 78 750 q 83 823 78 786 q 104 893 89 860 q 144 954 119 926 q 201 1000 169 982 q 270 1025 233 1018 q 343 1032 307 1032 q 412 1026 378 1032 q 477 1006 446 1021 q 534 966 508 990 q 576 912 560 942 q 601 848 593 882 q 608 779 608 814 l 608 771 l 500 771 l 500 776 q 490 839 500 808 q 458 892 481 869 q 406 925 436 915 q 343 935 375 935 q 276 922 308 935 q 222 881 243 908 q 194 819 201 853 q 186 750 186 785 l 186 271 q 189 226 186 249 q 200 181 192 203 q 222 141 208 160 q 255 110 236 122 q 297 92 274 97 q 342 86 319 86 q 387 92 364 86 q 428 110 410 97 q 461 141 447 122 q 483 181 475 160 q 494 226 492 203 q 497 271 497 249 l 497 458 l 347 458 l 347 556 l 606 556 l 606 0 l 508 0 l 508 164 q 481 94 499 128 q 436 36 464 61 q 372 0 408 11 q 299 -11 336 -11 m 347 1132 q 265 1142 306 1132 q 193 1179 225 1153 q 147 1245 161 1206 q 132 1326 132 1285 l 229 1326 q 238 1282 229 1304 q 263 1245 246 1260 q 302 1225 279 1231 q 347 1219 325 1219 q 392 1225 369 1219 q 432 1245 415 1231 q 457 1282 449 1260 q 465 1326 465 1304 l 563 1326 q 548 1245 563 1285 q 501 1179 533 1206 q 429 1142 469 1153 q 347 1132 389 1132 z "},"":{"ha":694,"x_min":78,"x_max":606,"o":"m 344 -310 q 283 -306 314 -310 q 224 -292 253 -303 q 170 -265 196 -282 q 126 -224 144 -247 q 97 -171 107 -200 q 86 -111 88 -142 l 194 -111 q 210 -158 194 -136 q 247 -192 225 -179 q 293 -208 268 -204 q 344 -212 318 -212 q 390 -206 367 -212 q 431 -187 413 -200 q 463 -154 450 -174 q 484 -112 476 -135 q 494 -67 492 -90 q 497 -21 497 -44 l 497 133 q 467 74 486 101 q 422 26 449 46 q 364 -2 396 7 q 299 -11 332 -11 q 231 -1 264 -11 q 170 30 197 8 q 125 81 143 51 q 96 142 107 110 q 81 209 85 175 q 78 278 78 243 l 78 444 q 81 513 78 479 q 96 580 85 547 q 125 642 107 613 q 170 692 143 671 q 231 724 197 714 q 299 733 264 733 q 364 724 332 733 q 422 696 396 715 q 467 649 449 676 q 497 589 486 621 l 497 722 l 606 722 l 606 -21 q 600 -95 606 -58 q 580 -165 594 -132 q 542 -228 565 -199 q 486 -276 518 -257 q 417 -302 454 -294 q 344 -310 381 -310 m 342 86 q 388 92 365 86 q 430 111 411 97 q 463 144 449 125 q 484 186 476 164 q 494 231 492 208 q 497 278 497 254 l 497 444 q 494 491 497 468 q 484 536 492 514 q 463 578 476 558 q 430 611 449 597 q 388 631 411 625 q 342 636 365 636 q 295 631 318 636 q 253 611 272 625 q 221 578 235 597 q 199 536 207 558 q 189 491 192 514 q 186 444 186 468 l 186 278 q 189 231 186 254 q 199 186 192 208 q 221 144 207 164 q 253 111 235 125 q 295 92 272 97 q 342 86 318 86 m 347 833 q 265 844 306 833 q 193 881 225 854 q 147 947 161 907 q 132 1028 132 986 l 229 1028 q 238 983 229 1006 q 263 947 246 961 q 302 926 279 932 q 347 921 325 921 q 392 926 369 921 q 432 947 415 932 q 457 983 449 961 q 465 1028 465 1006 l 563 1028 q 548 947 563 986 q 501 881 533 907 q 429 844 469 854 q 347 833 389 833 z "},"":{"ha":694,"x_min":78,"x_max":608,"o":"m 299 -11 q 232 -2 265 -11 q 172 28 199 7 q 126 77 144 49 q 97 138 107 106 q 82 203 86 169 q 78 271 78 238 l 78 750 q 83 823 78 786 q 104 893 89 860 q 144 954 119 926 q 201 1000 169 982 q 270 1025 233 1018 q 343 1032 307 1032 q 412 1026 378 1032 q 477 1006 446 1021 q 534 966 508 990 q 576 912 560 942 q 601 848 593 882 q 608 779 608 814 l 608 771 l 500 771 l 500 776 q 490 839 500 808 q 458 892 481 869 q 406 925 436 915 q 343 935 375 935 q 276 922 308 935 q 222 881 243 908 q 194 819 201 853 q 186 750 186 785 l 186 271 q 189 226 186 249 q 200 181 192 203 q 222 141 208 160 q 255 110 236 122 q 297 92 274 97 q 342 86 319 86 q 387 92 364 86 q 428 110 410 97 q 461 141 447 122 q 483 181 475 160 q 494 226 492 203 q 497 271 497 249 l 497 458 l 347 458 l 347 556 l 606 556 l 606 0 l 508 0 l 508 164 q 481 94 499 128 q 436 36 464 61 q 372 0 408 11 q 299 -11 336 -11 m 347 1143 q 313 1148 329 1143 q 283 1165 296 1153 q 266 1194 271 1178 q 261 1229 261 1211 q 266 1264 261 1247 q 283 1293 271 1281 q 313 1311 296 1306 q 347 1317 329 1317 q 382 1311 365 1317 q 411 1293 399 1306 q 429 1264 424 1281 q 435 1229 435 1247 q 429 1194 435 1211 q 411 1165 424 1178 q 382 1148 399 1153 q 347 1143 365 1143 z "},"":{"ha":694,"x_min":78,"x_max":606,"o":"m 344 -310 q 283 -306 314 -310 q 224 -292 253 -303 q 170 -265 196 -282 q 126 -224 144 -247 q 97 -171 107 -200 q 86 -111 88 -142 l 194 -111 q 210 -158 194 -136 q 247 -192 225 -179 q 293 -208 268 -204 q 344 -212 318 -212 q 390 -206 367 -212 q 431 -187 413 -200 q 463 -154 450 -174 q 484 -112 476 -135 q 494 -67 492 -90 q 497 -21 497 -44 l 497 133 q 467 74 486 101 q 422 26 449 46 q 364 -2 396 7 q 299 -11 332 -11 q 231 -1 264 -11 q 170 30 197 8 q 125 81 143 51 q 96 142 107 110 q 81 209 85 175 q 78 278 78 243 l 78 444 q 81 513 78 479 q 96 580 85 547 q 125 642 107 613 q 170 692 143 671 q 231 724 197 714 q 299 733 264 733 q 364 724 332 733 q 422 696 396 715 q 467 649 449 676 q 497 589 486 621 l 497 722 l 606 722 l 606 -21 q 600 -95 606 -58 q 580 -165 594 -132 q 542 -228 565 -199 q 486 -276 518 -257 q 417 -302 454 -294 q 344 -310 381 -310 m 342 86 q 388 92 365 86 q 430 111 411 97 q 463 144 449 125 q 484 186 476 164 q 494 231 492 208 q 497 278 497 254 l 497 444 q 494 491 497 468 q 484 536 492 514 q 463 578 476 558 q 430 611 449 597 q 388 631 411 625 q 342 636 365 636 q 295 631 318 636 q 253 611 272 625 q 221 578 235 597 q 199 536 207 558 q 189 491 192 514 q 186 444 186 468 l 186 278 q 189 231 186 254 q 199 186 192 208 q 221 144 207 164 q 253 111 235 125 q 295 92 272 97 q 342 86 318 86 m 347 844 q 313 849 329 844 q 283 867 296 854 q 266 896 271 879 q 261 931 261 913 q 266 965 261 949 q 283 994 271 982 q 313 1013 296 1007 q 347 1018 329 1018 q 382 1013 365 1018 q 411 994 399 1007 q 429 965 424 982 q 435 931 435 949 q 429 896 435 913 q 411 867 424 879 q 382 849 399 854 q 347 844 365 844 z "},"":{"ha":694,"x_min":78,"x_max":608,"o":"m 299 -11 q 232 -2 265 -11 q 172 28 199 7 q 126 77 144 49 q 97 138 107 106 q 82 203 86 169 q 78 271 78 238 l 78 750 q 83 823 78 786 q 104 893 89 860 q 144 954 119 926 q 201 1000 169 982 q 270 1025 233 1018 q 343 1032 307 1032 q 412 1026 378 1032 q 477 1006 446 1021 q 534 966 508 990 q 576 912 560 942 q 601 848 593 882 q 608 779 608 814 l 608 771 l 500 771 l 500 776 q 490 839 500 808 q 458 892 481 869 q 406 925 436 915 q 343 935 375 935 q 276 922 308 935 q 222 881 243 908 q 194 819 201 853 q 186 750 186 785 l 186 271 q 189 226 186 249 q 200 181 192 203 q 222 141 208 160 q 255 110 236 122 q 297 92 274 97 q 342 86 319 86 q 387 92 364 86 q 428 110 410 97 q 461 141 447 122 q 483 181 475 160 q 494 226 492 203 q 497 271 497 249 l 497 458 l 347 458 l 347 556 l 606 556 l 606 0 l 508 0 l 508 164 q 481 94 499 128 q 436 36 464 61 q 372 0 408 11 q 299 -11 336 -11 m 333 -342 l 281 -296 q 313 -252 300 -276 q 332 -203 325 -228 q 310 -195 321 -201 q 293 -180 300 -189 q 283 -160 286 -171 q 281 -137 281 -149 q 285 -110 281 -124 q 298 -88 289 -97 q 320 -75 307 -79 q 347 -71 333 -71 q 374 -75 361 -71 q 397 -88 388 -79 q 410 -110 406 -97 q 414 -137 414 -124 q 409 -193 414 -165 q 394 -247 404 -221 q 369 -298 385 -274 q 333 -342 354 -322 z "},"":{"ha":694,"x_min":78,"x_max":606,"o":"m 344 -310 q 283 -306 314 -310 q 224 -292 253 -303 q 170 -265 196 -282 q 126 -224 144 -247 q 97 -171 107 -200 q 86 -111 88 -142 l 194 -111 q 210 -158 194 -136 q 247 -192 225 -179 q 293 -208 268 -204 q 344 -212 318 -212 q 390 -206 367 -212 q 431 -187 413 -200 q 463 -154 450 -174 q 484 -112 476 -135 q 494 -67 492 -90 q 497 -21 497 -44 l 497 133 q 467 74 486 101 q 422 26 449 46 q 364 -2 396 7 q 299 -11 332 -11 q 231 -1 264 -11 q 170 30 197 8 q 125 81 143 51 q 96 142 107 110 q 81 209 85 175 q 78 278 78 243 l 78 444 q 81 513 78 479 q 96 580 85 547 q 125 642 107 613 q 170 692 143 671 q 231 724 197 714 q 299 733 264 733 q 364 724 332 733 q 422 696 396 715 q 467 649 449 676 q 497 589 486 621 l 497 722 l 606 722 l 606 -21 q 600 -95 606 -58 q 580 -165 594 -132 q 542 -228 565 -199 q 486 -276 518 -257 q 417 -302 454 -294 q 344 -310 381 -310 m 342 86 q 388 92 365 86 q 430 111 411 97 q 463 144 449 125 q 484 186 476 164 q 494 231 492 208 q 497 278 497 254 l 497 444 q 494 491 497 468 q 484 536 492 514 q 463 578 476 558 q 430 611 449 597 q 388 631 411 625 q 342 636 365 636 q 295 631 318 636 q 253 611 272 625 q 221 578 235 597 q 199 536 207 558 q 189 491 192 514 q 186 444 186 468 l 186 278 q 189 231 186 254 q 199 186 192 208 q 221 144 207 164 q 253 111 235 125 q 295 92 272 97 q 342 86 318 86 m 347 793 q 320 797 333 793 q 298 810 307 801 q 285 833 289 819 q 281 860 281 846 q 285 915 281 888 q 300 969 290 943 q 325 1020 310 996 q 361 1064 340 1044 l 414 1018 q 382 974 394 999 q 363 925 369 950 q 384 917 374 924 q 401 902 394 911 q 411 882 408 893 q 414 860 414 871 q 410 833 414 846 q 397 810 406 819 q 374 797 388 801 q 347 793 361 793 z "},"":{"ha":694,"x_min":89,"x_max":606,"o":"m 89 0 l 89 1021 l 197 1021 l 197 576 l 497 576 l 497 1021 l 606 1021 l 606 0 l 497 0 l 497 479 l 197 479 l 197 0 l 89 0 m 217 1118 l 151 1164 l 283 1354 l 411 1354 l 543 1164 l 478 1118 l 347 1276 l 217 1118 z "},"":{"ha":694,"x_min":-54,"x_max":606,"o":"m 89 0 l 89 1021 l 197 1021 l 197 590 q 226 649 208 621 q 269 696 243 676 q 326 724 294 715 q 390 733 358 733 q 458 724 425 733 q 517 692 490 714 q 560 640 543 669 q 588 578 578 611 q 602 512 599 546 q 606 444 606 478 l 606 0 l 497 0 l 497 444 q 494 491 497 468 q 485 535 492 514 q 465 576 478 557 q 433 610 451 596 q 393 630 415 624 q 347 636 371 636 q 301 630 324 636 q 261 610 279 624 q 230 576 243 596 q 210 535 217 557 q 200 491 203 514 q 197 444 197 468 l 197 0 l 89 0 m 13 1118 l -53 1164 l 79 1354 l 207 1354 l 339 1164 l 274 1118 l 143 1276 l 13 1118 z "},"":{"ha":694,"x_min":26,"x_max":668,"o":"m 89 0 l 89 756 l 26 756 l 26 840 l 89 840 l 89 1021 l 197 1021 l 197 840 l 497 840 l 497 1021 l 606 1021 l 606 840 l 668 840 l 668 756 l 606 756 l 606 0 l 497 0 l 497 479 l 197 479 l 197 0 l 89 0 m 197 576 l 497 576 l 497 756 l 197 756 l 197 576 z "},"":{"ha":694,"x_min":26,"x_max":606,"o":"m 89 0 l 89 814 l 26 814 l 26 899 l 89 899 l 89 1021 l 197 1021 l 197 899 l 347 899 l 347 814 l 197 814 l 197 590 q 226 649 208 621 q 269 696 243 676 q 326 724 294 715 q 390 733 358 733 q 458 724 425 733 q 517 692 490 714 q 560 640 543 669 q 588 578 578 611 q 602 512 599 546 q 606 444 606 478 l 606 0 l 497 0 l 497 444 q 494 491 497 468 q 485 535 492 514 q 465 576 478 557 q 433 610 451 596 q 393 630 415 624 q 347 636 371 636 q 301 630 324 636 q 261 610 279 624 q 230 576 243 596 q 210 535 217 557 q 200 491 203 514 q 197 444 197 468 l 197 0 l 89 0 z "},"":{"ha":694,"x_min":94,"x_max":600,"o":"m 104 0 l 104 97 l 293 97 l 293 924 l 104 924 l 104 1021 l 590 1021 l 590 924 l 401 924 l 401 97 l 590 97 l 590 0 l 104 0 m 428 1128 q 414 1129 421 1128 q 401 1133 407 1131 q 388 1137 394 1135 q 376 1143 382 1139 q 364 1151 369 1147 q 354 1159 358 1154 q 344 1169 350 1164 q 334 1179 339 1174 q 325 1190 329 1185 q 317 1200 321 1194 q 310 1211 314 1206 q 301 1223 306 1217 q 292 1235 296 1229 q 283 1245 288 1240 q 272 1255 279 1250 q 265 1263 265 1260 l 268 1263 q 263 1258 268 1261 q 255 1251 258 1256 q 248 1244 251 1247 q 242 1238 244 1240 q 238 1232 240 1235 q 234 1226 236 1229 q 230 1220 232 1224 q 226 1213 228 1217 q 221 1205 224 1208 q 216 1197 218 1201 q 211 1188 214 1192 q 206 1178 208 1183 q 200 1168 203 1174 q 194 1157 197 1163 q 189 1145 192 1151 q 183 1133 186 1139 l 94 1171 q 118 1217 107 1196 q 140 1255 129 1238 q 163 1287 151 1272 q 190 1316 174 1301 q 225 1340 206 1331 q 267 1350 244 1350 q 281 1349 274 1350 q 294 1346 288 1347 q 306 1342 300 1344 q 319 1335 313 1339 q 331 1328 325 1332 q 340 1319 336 1324 q 350 1310 344 1315 q 360 1299 356 1304 q 369 1288 365 1293 q 377 1278 374 1283 q 385 1267 381 1272 q 394 1255 389 1261 q 403 1243 399 1249 q 411 1233 407 1238 q 422 1223 415 1228 q 429 1217 429 1218 l 426 1217 l 432 1219 q 440 1226 436 1222 q 447 1235 443 1231 q 452 1241 450 1239 q 456 1246 454 1243 q 460 1252 458 1249 q 465 1259 463 1256 q 469 1266 467 1263 q 474 1274 471 1269 q 478 1282 476 1278 q 483 1291 481 1286 q 489 1301 486 1296 q 494 1310 492 1306 q 500 1321 497 1315 q 506 1333 503 1326 q 511 1344 508 1339 l 600 1308 q 576 1261 588 1282 q 554 1223 565 1240 q 532 1191 543 1206 q 505 1162 521 1176 q 469 1138 489 1147 q 428 1128 450 1128 z "},"":{"ha":694,"x_min":94,"x_max":600,"o":"m 104 0 l 104 97 l 303 97 l 303 625 l 124 625 l 124 722 l 411 722 l 411 97 l 590 97 l 590 0 l 104 0 m 428 829 q 414 831 421 829 q 401 834 407 832 q 388 838 394 836 q 376 844 382 840 q 364 852 369 849 q 354 860 358 856 q 344 870 350 865 q 334 881 339 875 q 325 891 329 886 q 317 901 321 896 q 310 913 314 907 q 301 924 306 918 q 292 936 296 931 q 283 947 288 942 q 272 956 279 951 q 265 964 265 961 l 268 964 q 263 960 268 963 q 255 953 258 957 q 248 945 251 949 q 242 939 244 942 q 238 933 240 936 q 234 928 236 931 q 230 922 232 925 q 226 914 228 918 q 221 906 224 910 q 216 898 218 903 q 211 889 214 893 q 206 880 208 885 q 200 869 203 875 q 194 858 197 864 q 189 847 192 853 q 183 835 186 840 l 94 872 q 118 918 107 897 q 140 956 129 939 q 163 988 151 974 q 190 1017 174 1003 q 225 1042 206 1032 q 267 1051 244 1051 q 281 1050 274 1051 q 294 1047 288 1049 q 306 1043 300 1046 q 319 1037 313 1040 q 331 1029 325 1033 q 340 1021 336 1025 q 350 1011 344 1017 q 360 1000 356 1006 q 369 990 365 994 q 377 979 374 985 q 385 968 381 974 q 394 956 389 963 q 403 944 399 950 q 411 934 407 939 q 422 924 415 929 q 429 918 429 919 l 426 918 l 432 921 q 440 928 436 924 q 447 936 443 932 q 452 942 450 940 q 456 947 454 944 q 460 953 458 950 q 465 960 463 957 q 469 967 467 964 q 474 975 471 971 q 478 983 476 979 q 483 992 481 988 q 489 1002 486 997 q 494 1012 492 1007 q 500 1022 497 1017 q 506 1034 503 1028 q 511 1046 508 1040 l 600 1010 q 576 963 588 983 q 554 924 565 942 q 532 892 543 907 q 505 863 521 878 q 469 839 489 849 q 428 829 450 829 z "},"":{"ha":694,"x_min":104,"x_max":590,"o":"m 104 0 l 104 97 l 293 97 l 293 924 l 104 924 l 104 1021 l 590 1021 l 590 924 l 401 924 l 401 97 l 590 97 l 590 0 l 104 0 m 556 1185 l 139 1185 l 139 1274 l 556 1274 l 556 1185 z "},"":{"ha":694,"x_min":104,"x_max":590,"o":"m 104 0 l 104 97 l 303 97 l 303 625 l 124 625 l 124 722 l 411 722 l 411 97 l 590 97 l 590 0 l 104 0 m 556 886 l 139 886 l 139 975 l 556 975 l 556 886 z "},"":{"ha":694,"x_min":104,"x_max":590,"o":"m 104 0 l 104 97 l 293 97 l 293 924 l 104 924 l 104 1021 l 590 1021 l 590 924 l 401 924 l 401 97 l 590 97 l 590 0 l 104 0 m 347 1132 q 265 1142 306 1132 q 193 1179 225 1153 q 147 1245 161 1206 q 132 1326 132 1285 l 229 1326 q 238 1282 229 1304 q 263 1245 246 1260 q 302 1225 279 1231 q 347 1219 325 1219 q 392 1225 369 1219 q 432 1245 415 1231 q 457 1282 449 1260 q 465 1326 465 1304 l 563 1326 q 548 1245 563 1285 q 501 1179 533 1206 q 429 1142 469 1153 q 347 1132 389 1132 z "},"":{"ha":694,"x_min":104,"x_max":590,"o":"m 104 0 l 104 97 l 303 97 l 303 625 l 124 625 l 124 722 l 411 722 l 411 97 l 590 97 l 590 0 l 104 0 m 347 833 q 265 844 306 833 q 193 881 225 854 q 147 947 161 907 q 132 1028 132 986 l 229 1028 q 238 983 229 1006 q 263 947 246 961 q 302 926 279 932 q 347 921 325 921 q 392 926 369 921 q 432 947 415 932 q 457 983 449 961 q 465 1028 465 1006 l 563 1028 q 548 947 563 986 q 501 881 533 907 q 429 844 469 854 q 347 833 389 833 z "},"":{"ha":694,"x_min":104,"x_max":608,"o":"m 104 0 l 104 97 l 293 97 l 293 924 l 104 924 l 104 1021 l 590 1021 l 590 924 l 401 924 l 401 97 l 590 97 l 590 0 l 104 0 m 560 -310 q 499 -302 529 -310 q 445 -277 469 -294 q 408 -232 421 -260 q 394 -175 394 -204 q 413 -98 394 -135 q 458 -32 431 -61 q 519 19 485 -3 q 590 56 553 40 l 590 0 q 554 -31 571 -14 q 524 -69 538 -49 q 501 -112 511 -89 q 492 -158 492 -135 q 498 -185 492 -172 q 515 -207 504 -199 q 540 -219 526 -215 q 568 -222 554 -222 q 588 -221 578 -222 q 608 -217 599 -219 l 608 -304 q 583 -308 596 -307 q 560 -310 571 -310 z "},"":{"ha":694,"x_min":104,"x_max":608,"o":"m 104 0 l 104 97 l 303 97 l 303 625 l 124 625 l 124 722 l 411 722 l 411 97 l 590 97 l 590 0 l 104 0 m 354 844 q 319 849 336 844 q 290 867 303 854 q 273 896 278 879 q 268 931 268 913 q 273 965 268 949 q 290 994 278 982 q 319 1013 303 1007 q 354 1018 336 1018 q 389 1013 372 1018 q 418 994 406 1007 q 436 965 431 982 q 442 931 442 949 q 436 896 442 913 q 418 867 431 879 q 389 849 406 854 q 354 844 372 844 m 560 -310 q 499 -302 529 -310 q 445 -277 469 -294 q 408 -232 421 -260 q 394 -175 394 -204 q 413 -98 394 -135 q 458 -32 431 -61 q 519 19 485 -3 q 590 56 553 40 l 590 0 q 554 -31 571 -14 q 524 -69 538 -49 q 501 -112 511 -89 q 492 -158 492 -135 q 498 -185 492 -172 q 515 -207 504 -199 q 540 -219 526 -215 q 568 -222 554 -222 q 588 -221 578 -222 q 608 -217 599 -219 l 608 -304 q 583 -308 596 -307 q 560 -310 571 -310 z "},"":{"ha":694,"x_min":104,"x_max":590,"o":"m 104 0 l 104 97 l 293 97 l 293 924 l 104 924 l 104 1021 l 590 1021 l 590 924 l 401 924 l 401 97 l 590 97 l 590 0 l 104 0 m 347 1143 q 313 1148 329 1143 q 283 1165 296 1153 q 266 1194 271 1178 q 261 1229 261 1211 q 266 1264 261 1247 q 283 1293 271 1281 q 313 1311 296 1306 q 347 1317 329 1317 q 382 1311 365 1317 q 411 1293 399 1306 q 429 1264 424 1281 q 435 1229 435 1247 q 429 1194 435 1211 q 411 1165 424 1178 q 382 1148 399 1153 q 347 1143 365 1143 z "},"":{"ha":694,"x_min":104,"x_max":590,"o":"m 104 0 l 104 97 l 303 97 l 303 625 l 124 625 l 124 722 l 411 722 l 411 97 l 590 97 l 590 0 l 104 0 z "},"":{"ha":694,"x_min":64,"x_max":688,"o":"m 318 -11 q 250 -5 283 -11 q 187 17 217 1 q 133 56 157 32 q 94 111 110 81 q 71 175 78 142 q 64 242 64 208 l 64 250 l 172 250 l 172 244 q 181 184 172 214 q 209 131 189 154 q 258 97 229 108 q 318 86 288 86 q 362 92 340 86 q 401 111 383 97 q 432 144 419 125 q 451 183 444 163 q 461 226 458 204 q 464 271 464 249 l 464 924 l 275 924 l 275 1021 l 571 1021 l 571 271 q 566 199 571 235 q 547 131 561 164 q 510 69 533 97 q 456 22 486 40 q 390 -3 425 4 q 318 -11 354 -11 m 360 1118 l 294 1164 l 426 1354 l 554 1354 l 686 1164 l 621 1118 l 490 1276 l 360 1118 z "},"":{"ha":694,"x_min":28,"x_max":621,"o":"m 257 -310 q 198 -305 228 -310 q 142 -287 168 -300 q 93 -252 115 -274 q 56 -205 71 -231 q 35 -149 42 -179 q 28 -90 28 -119 l 136 -90 q 144 -138 136 -115 q 169 -179 153 -161 q 210 -205 186 -197 q 257 -212 233 -212 q 298 -205 278 -212 q 333 -183 318 -197 q 357 -149 347 -168 q 372 -110 367 -131 q 379 -69 378 -90 q 381 -28 381 -49 l 381 625 l 192 625 l 192 722 l 489 722 l 489 -28 q 485 -97 489 -62 q 469 -163 481 -131 q 437 -224 457 -196 q 388 -273 417 -253 q 326 -301 360 -293 q 257 -310 292 -310 m 293 819 l 228 865 l 360 1056 l 488 1056 l 619 865 l 554 819 l 424 978 l 293 819 z "},"":{"ha":694,"x_min":111,"x_max":618,"o":"m 501 0 l 283 457 l 218 350 l 218 0 l 111 0 l 111 1021 l 218 1021 l 218 538 l 497 1021 l 618 1021 l 343 558 l 618 0 l 501 0 m 333 -342 l 281 -296 q 313 -252 300 -276 q 332 -203 325 -228 q 310 -195 321 -201 q 293 -180 300 -189 q 283 -160 286 -171 q 281 -137 281 -149 q 285 -110 281 -124 q 298 -88 289 -97 q 320 -75 307 -79 q 347 -71 333 -71 q 374 -75 361 -71 q 397 -88 388 -79 q 410 -110 406 -97 q 414 -137 414 -124 q 409 -193 414 -165 q 394 -247 404 -221 q 369 -298 385 -274 q 333 -342 354 -322 z "},"":{"ha":694,"x_min":111,"x_max":615,"o":"m 111 0 l 111 1021 l 218 1021 l 218 374 l 485 722 l 615 722 l 356 393 l 615 0 l 490 0 l 292 313 l 218 219 l 218 0 l 111 0 m 333 -342 l 281 -296 q 313 -252 300 -276 q 332 -203 325 -228 q 310 -195 321 -201 q 293 -180 300 -189 q 283 -160 286 -171 q 281 -137 281 -149 q 285 -110 281 -124 q 298 -88 289 -97 q 320 -75 307 -79 q 347 -71 333 -71 q 374 -75 361 -71 q 397 -88 388 -79 q 410 -110 406 -97 q 414 -137 414 -124 q 409 -193 414 -165 q 394 -247 404 -221 q 369 -298 385 -274 q 333 -342 354 -322 z "},"":{"ha":694,"x_min":111,"x_max":615,"o":"m 111 0 l 111 722 l 218 722 l 218 374 l 485 722 l 615 722 l 356 393 l 615 0 l 490 0 l 292 313 l 218 219 l 218 0 l 111 0 z "},"":{"ha":694,"x_min":106,"x_max":614,"o":"m 133 0 l 133 1021 l 242 1021 l 242 97 l 614 97 l 614 0 l 133 0 m 172 1106 l 107 1158 l 268 1358 l 350 1294 l 172 1106 z "},"":{"ha":694,"x_min":104,"x_max":590,"o":"m 104 0 l 104 97 l 303 97 l 303 924 l 124 924 l 124 1021 l 411 1021 l 411 97 l 590 97 l 590 0 l 104 0 m 339 1106 l 274 1158 l 435 1358 l 517 1294 l 339 1106 z "},"":{"ha":694,"x_min":133,"x_max":614,"o":"m 133 0 l 133 1021 l 242 1021 l 242 97 l 614 97 l 614 0 l 133 0 m 333 -342 l 281 -296 q 313 -252 300 -276 q 332 -203 325 -228 q 310 -195 321 -201 q 293 -180 300 -189 q 283 -160 286 -171 q 281 -137 281 -149 q 285 -110 281 -124 q 298 -88 289 -97 q 320 -75 307 -79 q 347 -71 333 -71 q 374 -75 361 -71 q 397 -88 388 -79 q 410 -110 406 -97 q 414 -137 414 -124 q 409 -193 414 -165 q 394 -247 404 -221 q 369 -298 385 -274 q 333 -342 354 -322 z "},"":{"ha":694,"x_min":104,"x_max":590,"o":"m 104 0 l 104 97 l 303 97 l 303 924 l 124 924 l 124 1021 l 411 1021 l 411 97 l 590 97 l 590 0 l 104 0 m 343 -342 l 290 -296 q 322 -252 310 -276 q 342 -203 335 -228 q 320 -195 331 -201 q 303 -180 310 -189 q 293 -160 296 -171 q 290 -137 290 -149 q 294 -110 290 -124 q 308 -88 299 -97 q 330 -75 317 -79 q 357 -71 343 -71 q 384 -75 371 -71 q 406 -88 397 -79 q 419 -110 415 -97 q 424 -137 424 -124 q 419 -193 424 -165 q 404 -247 414 -221 q 379 -298 394 -274 q 343 -342 364 -322 z "},"":{"ha":694,"x_min":133,"x_max":614,"o":"m 528 790 l 475 836 q 507 879 494 856 q 526 929 519 903 q 505 936 515 931 q 488 951 494 942 q 478 972 481 960 q 475 994 475 983 q 479 1021 475 1008 q 492 1043 483 1033 q 515 1057 501 1053 q 542 1061 528 1061 q 569 1057 556 1061 q 591 1043 582 1053 q 604 1021 600 1033 q 608 994 608 1008 q 603 938 608 967 q 589 883 599 910 q 564 833 579 857 q 528 790 549 810 m 133 0 l 133 1021 l 242 1021 l 242 97 l 614 97 l 614 0 l 133 0 z "},"":{"ha":694,"x_min":104,"x_max":617,"o":"m 535 790 l 482 836 q 514 879 501 856 q 533 929 526 903 q 512 936 522 931 q 494 951 501 942 q 485 972 488 960 q 482 994 482 983 q 486 1021 482 1008 q 499 1043 490 1033 q 522 1057 508 1053 q 549 1061 535 1061 q 576 1057 563 1061 q 598 1043 589 1053 q 611 1021 607 1033 q 615 994 615 1008 q 610 938 615 967 q 596 883 606 910 q 571 833 586 857 q 535 790 556 810 m 104 0 l 104 97 l 303 97 l 303 924 l 124 924 l 124 1021 l 411 1021 l 411 97 l 590 97 l 590 0 l 104 0 z "},"":{"ha":694,"x_min":133,"x_max":614,"o":"m 133 0 l 133 1021 l 242 1021 l 242 97 l 614 97 l 614 0 l 133 0 m 451 463 q 413 468 432 463 q 379 488 393 474 q 360 521 365 501 q 354 560 354 540 q 360 599 354 579 q 379 632 365 618 q 413 652 393 646 q 451 658 432 658 q 490 652 471 658 q 524 632 510 646 q 544 599 538 618 q 550 560 550 579 q 544 521 550 540 q 524 488 538 501 q 490 468 510 474 q 451 463 471 463 z "},"":{"ha":694,"x_min":60,"x_max":618,"o":"m 61 0 l 61 97 l 260 97 l 260 924 l 81 924 l 81 1021 l 368 1021 l 368 97 l 547 97 l 547 0 l 61 0 m 519 463 q 481 468 500 463 q 447 488 461 474 q 428 521 433 501 q 422 560 422 540 q 428 599 422 579 q 447 632 433 618 q 481 652 461 646 q 519 658 500 658 q 558 652 539 658 q 592 632 578 646 q 612 599 606 618 q 618 560 618 579 q 612 521 618 540 q 592 488 606 501 q 558 468 578 474 q 519 463 539 463 z "},"":{"ha":694,"x_min":24,"x_max":614,"o":"m 133 0 l 133 458 l 65 424 l 24 500 l 133 554 l 133 1021 l 242 1021 l 242 608 l 413 694 l 454 618 l 242 511 l 242 97 l 614 97 l 614 0 l 133 0 z "},"":{"ha":694,"x_min":104,"x_max":590,"o":"m 104 0 l 104 97 l 303 97 l 303 456 l 183 396 l 142 471 l 303 553 l 303 924 l 124 924 l 124 1021 l 411 1021 l 411 606 l 531 665 l 572 590 l 411 510 l 411 97 l 590 97 l 590 0 l 104 0 z "},"":{"ha":694,"x_min":89,"x_max":606,"o":"m 89 0 l 89 1021 l 219 1021 l 394 515 l 511 172 q 503 393 508 283 q 497 613 497 503 l 497 1021 l 606 1021 l 606 0 l 475 0 l 183 849 q 192 628 186 738 q 197 408 197 518 l 197 0 l 89 0 m 332 1106 l 267 1158 l 428 1358 l 510 1294 l 332 1106 z "},"":{"ha":694,"x_min":89,"x_max":606,"o":"m 89 0 l 89 722 l 197 722 l 197 590 q 226 649 208 621 q 269 696 243 676 q 326 724 294 715 q 390 733 358 733 q 458 724 425 733 q 517 692 490 714 q 560 640 543 669 q 588 578 578 611 q 602 512 599 546 q 606 444 606 478 l 606 0 l 497 0 l 497 444 q 494 491 497 468 q 485 535 492 514 q 465 576 478 557 q 433 610 451 596 q 393 630 415 624 q 347 636 371 636 q 301 630 324 636 q 261 610 279 624 q 230 576 243 596 q 210 535 217 557 q 200 491 203 514 q 197 444 197 468 l 197 0 l 89 0 m 332 807 l 267 860 l 428 1060 l 510 996 l 332 807 z "},"":{"ha":694,"x_min":89,"x_max":606,"o":"m 89 0 l 89 1021 l 219 1021 l 394 515 l 511 172 q 503 393 508 283 q 497 613 497 503 l 497 1021 l 606 1021 l 606 0 l 475 0 l 183 849 q 192 628 186 738 q 197 408 197 518 l 197 0 l 89 0 m 333 -342 l 281 -296 q 313 -252 300 -276 q 332 -203 325 -228 q 310 -195 321 -201 q 293 -180 300 -189 q 283 -160 286 -171 q 281 -137 281 -149 q 285 -110 281 -124 q 298 -88 289 -97 q 320 -75 307 -79 q 347 -71 333 -71 q 374 -75 361 -71 q 397 -88 388 -79 q 410 -110 406 -97 q 414 -137 414 -124 q 409 -193 414 -165 q 394 -247 404 -221 q 369 -298 385 -274 q 333 -342 354 -322 z "},"":{"ha":694,"x_min":89,"x_max":606,"o":"m 89 0 l 89 722 l 197 722 l 197 590 q 226 649 208 621 q 269 696 243 676 q 326 724 294 715 q 390 733 358 733 q 458 724 425 733 q 517 692 490 714 q 560 640 543 669 q 588 578 578 611 q 602 512 599 546 q 606 444 606 478 l 606 0 l 497 0 l 497 444 q 494 491 497 468 q 485 535 492 514 q 465 576 478 557 q 433 610 451 596 q 393 630 415 624 q 347 636 371 636 q 301 630 324 636 q 261 610 279 624 q 230 576 243 596 q 210 535 217 557 q 200 491 203 514 q 197 444 197 468 l 197 0 l 89 0 m 333 -342 l 281 -296 q 313 -252 300 -276 q 332 -203 325 -228 q 310 -195 321 -201 q 293 -180 300 -189 q 283 -160 286 -171 q 281 -137 281 -149 q 285 -110 281 -124 q 298 -88 289 -97 q 320 -75 307 -79 q 347 -71 333 -71 q 374 -75 361 -71 q 397 -88 388 -79 q 410 -110 406 -97 q 414 -137 414 -124 q 409 -193 414 -165 q 394 -247 404 -221 q 369 -298 385 -274 q 333 -342 354 -322 z "},"":{"ha":694,"x_min":89,"x_max":606,"o":"m 89 0 l 89 1021 l 219 1021 l 394 515 l 511 172 q 503 393 508 283 q 497 613 497 503 l 497 1021 l 606 1021 l 606 0 l 475 0 l 183 849 q 192 628 186 738 q 197 408 197 518 l 197 0 l 89 0 m 283 1132 l 151 1322 l 217 1368 l 347 1210 l 478 1368 l 543 1322 l 411 1132 l 283 1132 z "},"":{"ha":694,"x_min":89,"x_max":606,"o":"m 89 0 l 89 722 l 197 722 l 197 590 q 226 649 208 621 q 269 696 243 676 q 326 724 294 715 q 390 733 358 733 q 458 724 425 733 q 517 692 490 714 q 560 640 543 669 q 588 578 578 611 q 602 512 599 546 q 606 444 606 478 l 606 0 l 497 0 l 497 444 q 494 491 497 468 q 485 535 492 514 q 465 576 478 557 q 433 610 451 596 q 393 630 415 624 q 347 636 371 636 q 301 630 324 636 q 261 610 279 624 q 230 576 243 596 q 210 535 217 557 q 200 491 203 514 q 197 444 197 468 l 197 0 l 89 0 m 283 833 l 151 1024 l 217 1069 l 347 911 l 478 1069 l 543 1024 l 411 833 l 283 833 z "},"":{"ha":694,"x_min":22,"x_max":606,"o":"m 89 0 l 89 722 l 197 722 l 197 590 q 226 649 208 621 q 269 696 243 676 q 326 724 294 715 q 390 733 358 733 q 458 724 425 733 q 517 692 490 714 q 560 640 543 669 q 588 578 578 611 q 602 512 599 546 q 606 444 606 478 l 606 0 l 497 0 l 497 444 q 494 491 497 468 q 485 535 492 514 q 465 576 478 557 q 433 610 451 596 q 393 630 415 624 q 347 636 371 636 q 301 630 324 636 q 261 610 279 624 q 230 576 243 596 q 210 535 217 557 q 200 491 203 514 q 197 444 197 468 l 197 0 l 89 0 m 75 790 l 22 836 q 54 879 42 856 q 74 929 67 903 q 52 936 63 931 q 35 951 42 942 q 25 972 28 960 q 22 994 22 983 q 26 1021 22 1008 q 40 1043 31 1033 q 62 1057 49 1053 q 89 1061 75 1061 q 116 1057 103 1061 q 138 1043 129 1053 q 151 1021 147 1033 q 156 994 156 1008 q 151 938 156 967 q 136 883 146 910 q 111 833 126 857 q 75 790 96 810 z "},"":{"ha":694,"x_min":89,"x_max":606,"o":"m 315 -299 l 315 -201 l 344 -201 q 407 -191 376 -201 q 459 -157 438 -181 q 489 -103 481 -133 q 497 -40 497 -72 l 497 0 l 475 0 l 183 849 q 192 628 186 738 q 197 408 197 518 l 197 0 l 89 0 l 89 1021 l 219 1021 l 394 515 l 511 172 q 503 393 508 283 q 497 613 497 503 l 497 1021 l 606 1021 l 606 -40 q 599 -110 606 -75 q 577 -175 593 -144 q 536 -231 561 -206 q 480 -271 511 -256 q 414 -292 449 -286 q 344 -299 379 -299 l 315 -299 z "},"":{"ha":694,"x_min":89,"x_max":606,"o":"m 315 -299 l 315 -201 l 344 -201 q 407 -191 376 -201 q 459 -157 438 -181 q 489 -103 481 -133 q 497 -40 497 -72 l 497 444 q 494 491 497 468 q 485 535 492 514 q 465 576 478 557 q 433 610 451 596 q 393 630 415 624 q 347 636 371 636 q 301 630 324 636 q 261 610 279 624 q 230 576 243 596 q 210 535 217 557 q 200 491 203 514 q 197 444 197 468 l 197 0 l 89 0 l 89 722 l 197 722 l 197 590 q 226 649 208 621 q 269 696 243 676 q 326 724 294 715 q 390 733 358 733 q 458 724 425 733 q 517 692 490 714 q 560 640 543 669 q 588 578 578 611 q 602 512 599 546 q 606 444 606 478 l 606 -40 q 599 -110 606 -75 q 577 -175 593 -144 q 536 -231 561 -206 q 480 -271 511 -256 q 414 -292 449 -286 q 344 -299 379 -299 l 315 -299 z "},"":{"ha":694,"x_min":78,"x_max":617,"o":"m 347 -11 q 273 -4 310 -11 q 204 20 236 3 q 147 65 172 38 q 106 126 121 93 q 84 197 90 160 q 78 271 78 233 l 78 750 q 84 824 78 788 q 106 894 90 861 q 147 956 121 928 q 204 1001 172 983 q 273 1025 236 1018 q 347 1032 310 1032 q 422 1025 385 1032 q 490 1001 458 1018 q 548 956 522 983 q 589 894 574 928 q 610 824 604 861 q 617 750 617 788 l 617 271 q 610 197 617 233 q 589 126 604 160 q 548 65 574 93 q 490 20 522 38 q 422 -4 458 3 q 347 -11 385 -11 m 347 86 q 394 91 371 86 q 436 108 417 96 q 470 140 456 121 q 494 180 485 158 q 506 224 503 201 q 508 271 508 247 l 508 750 q 506 797 508 774 q 494 841 503 819 q 470 881 485 863 q 436 913 456 900 q 394 930 417 925 q 347 935 371 935 q 301 930 324 935 q 258 913 278 925 q 224 881 239 900 q 201 841 210 863 q 189 797 192 819 q 186 750 186 774 l 186 271 q 189 224 186 247 q 201 180 192 201 q 224 140 210 158 q 258 108 239 121 q 301 91 278 96 q 347 86 324 86 m 556 1185 l 139 1185 l 139 1274 l 556 1274 l 556 1185 z "},"":{"ha":694,"x_min":78,"x_max":617,"o":"m 347 -11 q 273 -3 310 -11 q 203 22 236 4 q 145 69 171 40 q 104 131 119 97 q 83 203 89 165 q 78 278 78 240 l 78 444 q 83 519 78 482 q 104 591 89 557 q 145 653 119 625 q 203 700 171 682 q 273 726 236 718 q 347 733 310 733 q 422 726 385 733 q 491 700 458 718 q 549 653 524 682 q 590 591 575 625 q 611 519 606 557 q 617 444 617 482 l 617 278 q 611 203 617 240 q 590 131 606 165 q 549 69 575 97 q 491 22 524 40 q 422 -3 458 4 q 347 -11 385 -11 m 347 86 q 394 92 371 86 q 438 110 418 97 q 472 143 457 124 q 494 185 486 163 q 506 231 503 207 q 508 278 508 254 l 508 444 q 506 492 508 468 q 494 538 503 515 q 472 579 486 560 q 438 612 457 599 q 394 631 418 625 q 347 636 371 636 q 300 631 324 636 q 257 612 276 625 q 223 579 238 599 q 200 538 208 560 q 189 492 192 515 q 186 444 186 468 l 186 278 q 189 231 186 254 q 200 185 192 207 q 223 143 208 163 q 257 110 238 124 q 300 92 276 97 q 347 86 324 86 m 556 886 l 139 886 l 139 975 l 556 975 l 556 886 z "},"":{"ha":694,"x_min":78,"x_max":617,"o":"m 347 -11 q 273 -4 310 -11 q 204 20 236 3 q 147 65 172 38 q 106 126 121 93 q 84 197 90 160 q 78 271 78 233 l 78 750 q 84 824 78 788 q 106 894 90 861 q 147 956 121 928 q 204 1001 172 983 q 273 1025 236 1018 q 347 1032 310 1032 q 422 1025 385 1032 q 490 1001 458 1018 q 548 956 522 983 q 589 894 574 928 q 610 824 604 861 q 617 750 617 788 l 617 271 q 610 197 617 233 q 589 126 604 160 q 548 65 574 93 q 490 20 522 38 q 422 -4 458 3 q 347 -11 385 -11 m 347 86 q 394 91 371 86 q 436 108 417 96 q 470 140 456 121 q 494 180 485 158 q 506 224 503 201 q 508 271 508 247 l 508 750 q 506 797 508 774 q 494 841 503 819 q 470 881 485 863 q 436 913 456 900 q 394 930 417 925 q 347 935 371 935 q 301 930 324 935 q 258 913 278 925 q 224 881 239 900 q 201 841 210 863 q 189 797 192 819 q 186 750 186 774 l 186 271 q 189 224 186 247 q 201 180 192 201 q 224 140 210 158 q 258 108 239 121 q 301 91 278 96 q 347 86 324 86 m 347 1132 q 265 1142 306 1132 q 193 1179 225 1153 q 147 1245 161 1206 q 132 1326 132 1285 l 229 1326 q 238 1282 229 1304 q 263 1245 246 1260 q 302 1225 279 1231 q 347 1219 325 1219 q 392 1225 369 1219 q 432 1245 415 1231 q 457 1282 449 1260 q 465 1326 465 1304 l 563 1326 q 548 1245 563 1285 q 501 1179 533 1206 q 429 1142 469 1153 q 347 1132 389 1132 z "},"":{"ha":694,"x_min":78,"x_max":617,"o":"m 347 -11 q 273 -3 310 -11 q 203 22 236 4 q 145 69 171 40 q 104 131 119 97 q 83 203 89 165 q 78 278 78 240 l 78 444 q 83 519 78 482 q 104 591 89 557 q 145 653 119 625 q 203 700 171 682 q 273 726 236 718 q 347 733 310 733 q 422 726 385 733 q 491 700 458 718 q 549 653 524 682 q 590 591 575 625 q 611 519 606 557 q 617 444 617 482 l 617 278 q 611 203 617 240 q 590 131 606 165 q 549 69 575 97 q 491 22 524 40 q 422 -3 458 4 q 347 -11 385 -11 m 347 86 q 394 92 371 86 q 438 110 418 97 q 472 143 457 124 q 494 185 486 163 q 506 231 503 207 q 508 278 508 254 l 508 444 q 506 492 508 468 q 494 538 503 515 q 472 579 486 560 q 438 612 457 599 q 394 631 418 625 q 347 636 371 636 q 300 631 324 636 q 257 612 276 625 q 223 579 238 599 q 200 538 208 560 q 189 492 192 515 q 186 444 186 468 l 186 278 q 189 231 186 254 q 200 185 192 207 q 223 143 208 163 q 257 110 238 124 q 300 92 276 97 q 347 86 324 86 m 347 833 q 265 844 306 833 q 193 881 225 854 q 147 947 161 907 q 132 1028 132 986 l 229 1028 q 238 983 229 1006 q 263 947 246 961 q 302 926 279 932 q 347 921 325 921 q 392 926 369 921 q 432 947 415 932 q 457 983 449 961 q 465 1028 465 1006 l 563 1028 q 548 947 563 986 q 501 881 533 907 q 429 844 469 854 q 347 833 389 833 z "},"":{"ha":694,"x_min":78,"x_max":643,"o":"m 347 -11 q 273 -4 310 -11 q 204 20 236 3 q 147 65 172 38 q 106 126 121 93 q 84 197 90 160 q 78 271 78 233 l 78 750 q 84 824 78 788 q 106 894 90 861 q 147 956 121 928 q 204 1001 172 983 q 273 1025 236 1018 q 347 1032 310 1032 q 422 1025 385 1032 q 490 1001 458 1018 q 548 956 522 983 q 589 894 574 928 q 610 824 604 861 q 617 750 617 788 l 617 271 q 610 197 617 233 q 589 126 604 160 q 548 65 574 93 q 490 20 522 38 q 422 -4 458 3 q 347 -11 385 -11 m 347 86 q 394 91 371 86 q 436 108 417 96 q 470 140 456 121 q 494 180 485 158 q 506 224 503 201 q 508 271 508 247 l 508 750 q 506 797 508 774 q 494 841 503 819 q 470 881 485 863 q 436 913 456 900 q 394 930 417 925 q 347 935 371 935 q 301 930 324 935 q 258 913 278 925 q 224 881 239 900 q 201 841 210 863 q 189 797 192 819 q 186 750 186 774 l 186 271 q 189 224 186 247 q 201 180 192 201 q 224 140 210 158 q 258 108 239 121 q 301 91 278 96 q 347 86 324 86 m 449 1104 l 386 1160 l 565 1360 l 643 1293 l 449 1104 m 213 1104 l 150 1160 l 329 1360 l 407 1293 l 213 1104 z "},"":{"ha":694,"x_min":78,"x_max":643,"o":"m 347 -11 q 273 -3 310 -11 q 203 22 236 4 q 145 69 171 40 q 104 131 119 97 q 83 203 89 165 q 78 278 78 240 l 78 444 q 83 519 78 482 q 104 591 89 557 q 145 653 119 625 q 203 700 171 682 q 273 726 236 718 q 347 733 310 733 q 422 726 385 733 q 491 700 458 718 q 549 653 524 682 q 590 591 575 625 q 611 519 606 557 q 617 444 617 482 l 617 278 q 611 203 617 240 q 590 131 606 165 q 549 69 575 97 q 491 22 524 40 q 422 -3 458 4 q 347 -11 385 -11 m 347 86 q 394 92 371 86 q 438 110 418 97 q 472 143 457 124 q 494 185 486 163 q 506 231 503 207 q 508 278 508 254 l 508 444 q 506 492 508 468 q 494 538 503 515 q 472 579 486 560 q 438 612 457 599 q 394 631 418 625 q 347 636 371 636 q 300 631 324 636 q 257 612 276 625 q 223 579 238 599 q 200 538 208 560 q 189 492 192 515 q 186 444 186 468 l 186 278 q 189 231 186 254 q 200 185 192 207 q 223 143 208 163 q 257 110 238 124 q 300 92 276 97 q 347 86 324 86 m 449 806 l 386 861 l 565 1061 l 643 994 l 449 806 m 213 806 l 150 861 l 329 1061 l 407 994 l 213 806 z "},"":{"ha":694,"x_min":60,"x_max":624,"o":"m 322 0 l 322 1021 l 624 1021 l 624 931 l 422 931 l 422 576 l 601 576 l 601 486 l 422 486 l 422 90 l 624 90 l 624 0 l 322 0 m 322 0 q 251 6 286 0 q 183 29 215 13 q 126 73 151 46 q 86 132 101 100 q 65 199 71 164 q 60 271 60 235 l 60 750 q 65 822 60 786 q 86 889 71 857 q 126 948 101 921 q 183 992 151 975 q 251 1015 215 1008 q 322 1021 286 1021 l 322 931 q 276 926 299 931 q 234 909 254 921 q 199 879 214 897 q 176 840 185 861 q 163 796 167 818 q 160 750 160 774 l 160 271 q 163 225 160 247 q 176 181 167 203 q 199 142 185 160 q 234 112 214 124 q 276 95 254 100 q 322 90 299 90 l 322 0 z "},"":{"ha":694,"x_min":60,"x_max":635,"o":"m 228 -11 q 180 -6 204 -11 q 135 14 156 0 q 99 48 114 28 q 74 91 83 68 q 63 138 65 114 q 60 188 60 163 l 60 535 q 63 584 60 560 q 74 631 65 608 q 99 674 83 654 q 135 708 114 694 q 180 728 156 722 q 228 733 204 733 q 293 722 261 733 q 347 688 325 711 q 401 722 369 711 q 467 733 433 733 q 515 728 490 733 q 560 708 539 722 q 596 674 581 694 q 620 631 611 654 q 632 584 629 608 q 635 535 635 560 l 635 315 l 397 315 l 397 188 q 400 151 397 169 q 410 117 403 133 q 432 90 417 101 q 465 79 447 79 q 498 92 483 79 q 519 123 513 106 q 529 158 526 140 q 532 196 532 176 l 532 201 l 632 201 l 632 190 q 628 142 632 167 q 616 94 625 117 q 592 51 607 71 q 558 16 578 31 q 513 -5 538 1 q 465 -11 489 -11 q 401 0 432 -11 q 347 35 369 11 q 293 0 325 11 q 228 -11 261 -11 m 397 407 l 535 407 l 535 535 q 532 571 535 553 q 522 605 529 589 q 499 632 514 621 q 467 643 483 643 q 433 632 449 643 q 410 605 418 621 q 400 571 403 589 q 397 535 397 553 l 397 407 m 228 79 q 261 90 246 79 q 284 117 276 101 q 294 151 292 133 q 297 188 297 169 l 297 535 q 294 571 297 553 q 284 605 292 589 q 261 632 276 621 q 228 643 246 643 q 196 632 211 643 q 173 605 181 621 q 163 571 165 589 q 160 535 160 553 l 160 188 q 163 151 160 169 q 173 117 165 133 q 196 90 181 101 q 228 79 211 79 z "},"":{"ha":694,"x_min":89,"x_max":639,"o":"m 521 0 l 317 422 l 197 422 l 197 0 l 89 0 l 89 1021 l 356 1021 q 430 1013 393 1021 q 499 984 467 1004 q 554 934 531 964 q 592 869 578 904 q 612 797 607 835 q 617 722 617 760 q 608 628 617 675 q 576 540 600 581 q 515 471 553 500 q 431 429 476 442 l 639 0 l 521 0 m 356 519 q 403 526 379 519 q 445 548 426 533 q 476 583 464 563 q 496 627 489 604 q 506 674 503 650 q 508 722 508 697 q 506 769 508 746 q 496 816 503 793 q 476 860 489 839 q 445 895 464 881 q 403 917 426 910 q 356 924 379 924 l 197 924 l 197 519 l 356 519 m 332 1106 l 267 1158 l 428 1358 l 510 1294 l 332 1106 z "},"":{"ha":694,"x_min":172,"x_max":626,"o":"m 172 0 l 172 722 l 281 722 l 281 567 q 303 628 289 597 q 340 683 318 658 q 394 720 363 707 q 458 733 425 733 q 509 727 483 733 q 556 706 535 721 q 591 669 576 690 q 613 623 606 647 q 624 573 621 599 q 626 521 626 547 l 518 521 q 515 562 518 542 q 501 600 511 582 q 472 627 490 618 q 432 636 453 636 q 378 624 404 636 q 335 592 353 613 q 307 545 318 571 q 290 492 296 519 q 283 438 285 465 q 281 383 281 410 l 281 0 l 172 0 m 347 807 l 282 860 l 443 1060 l 525 996 l 347 807 z "},"":{"ha":694,"x_min":89,"x_max":639,"o":"m 521 0 l 317 422 l 197 422 l 197 0 l 89 0 l 89 1021 l 356 1021 q 430 1013 393 1021 q 499 984 467 1004 q 554 934 531 964 q 592 869 578 904 q 612 797 607 835 q 617 722 617 760 q 608 628 617 675 q 576 540 600 581 q 515 471 553 500 q 431 429 476 442 l 639 0 l 521 0 m 356 519 q 403 526 379 519 q 445 548 426 533 q 476 583 464 563 q 496 627 489 604 q 506 674 503 650 q 508 722 508 697 q 506 769 508 746 q 496 816 503 793 q 476 860 489 839 q 445 895 464 881 q 403 917 426 910 q 356 924 379 924 l 197 924 l 197 519 l 356 519 m 333 -342 l 281 -296 q 313 -252 300 -276 q 332 -203 325 -228 q 310 -195 321 -201 q 293 -180 300 -189 q 283 -160 286 -171 q 281 -137 281 -149 q 285 -110 281 -124 q 298 -88 289 -97 q 320 -75 307 -79 q 347 -71 333 -71 q 374 -75 361 -71 q 397 -88 388 -79 q 410 -110 406 -97 q 414 -137 414 -124 q 409 -193 414 -165 q 394 -247 404 -221 q 369 -298 385 -274 q 333 -342 354 -322 z "},"":{"ha":694,"x_min":158,"x_max":626,"o":"m 172 0 l 172 722 l 281 722 l 281 567 q 303 628 289 597 q 340 683 318 658 q 394 720 363 707 q 458 733 425 733 q 509 727 483 733 q 556 706 535 721 q 591 669 576 690 q 613 623 606 647 q 624 573 621 599 q 626 521 626 547 l 518 521 q 515 562 518 542 q 501 600 511 582 q 472 627 490 618 q 432 636 453 636 q 378 624 404 636 q 335 592 353 613 q 307 545 318 571 q 290 492 296 519 q 283 438 285 465 q 281 383 281 410 l 281 0 l 172 0 m 213 -342 l 160 -296 q 192 -252 179 -276 q 211 -203 204 -228 q 190 -195 200 -201 q 172 -180 179 -189 q 163 -160 165 -171 q 160 -137 160 -149 q 164 -110 160 -124 q 177 -88 168 -97 q 199 -75 186 -79 q 226 -71 213 -71 q 253 -75 240 -71 q 276 -88 267 -79 q 289 -110 285 -97 q 293 -137 293 -124 q 288 -193 293 -165 q 274 -247 283 -221 q 249 -298 264 -274 q 213 -342 233 -322 z "},"":{"ha":694,"x_min":89,"x_max":639,"o":"m 521 0 l 317 422 l 197 422 l 197 0 l 89 0 l 89 1021 l 356 1021 q 430 1013 393 1021 q 499 984 467 1004 q 554 934 531 964 q 592 869 578 904 q 612 797 607 835 q 617 722 617 760 q 608 628 617 675 q 576 540 600 581 q 515 471 553 500 q 431 429 476 442 l 639 0 l 521 0 m 356 519 q 403 526 379 519 q 445 548 426 533 q 476 583 464 563 q 496 627 489 604 q 506 674 503 650 q 508 722 508 697 q 506 769 508 746 q 496 816 503 793 q 476 860 489 839 q 445 895 464 881 q 403 917 426 910 q 356 924 379 924 l 197 924 l 197 519 l 356 519 m 283 1132 l 151 1322 l 217 1368 l 347 1210 l 478 1368 l 543 1322 l 411 1132 l 283 1132 z "},"":{"ha":694,"x_min":165,"x_max":626,"o":"m 172 0 l 172 722 l 281 722 l 281 567 q 303 628 289 597 q 340 683 318 658 q 394 720 363 707 q 458 733 425 733 q 509 727 483 733 q 556 706 535 721 q 591 669 576 690 q 613 623 606 647 q 624 573 621 599 q 626 521 626 547 l 518 521 q 515 562 518 542 q 501 600 511 582 q 472 627 490 618 q 432 636 453 636 q 378 624 404 636 q 335 592 353 613 q 307 545 318 571 q 290 492 296 519 q 283 438 285 465 q 281 383 281 410 l 281 0 l 172 0 m 299 833 l 167 1024 l 232 1069 l 363 911 l 493 1069 l 558 1024 l 426 833 l 299 833 z "},"":{"ha":694,"x_min":75,"x_max":617,"o":"m 346 -11 q 276 -6 311 -11 q 210 15 242 0 q 153 53 179 29 q 109 106 126 76 q 83 171 92 136 q 75 240 75 206 l 75 250 l 183 250 l 183 243 q 194 181 183 211 q 228 128 206 150 q 283 96 251 106 q 346 86 314 86 q 410 96 378 86 q 465 129 442 106 q 499 184 488 153 q 510 247 510 215 q 495 317 510 283 q 456 377 481 351 q 401 421 432 403 q 338 456 369 439 q 274 490 306 472 q 215 529 243 507 q 164 578 188 551 q 123 637 140 606 q 97 703 106 668 q 89 775 89 739 q 97 842 89 808 q 120 907 104 876 q 160 963 136 938 q 215 1003 185 988 q 280 1026 246 1019 q 349 1032 314 1032 q 417 1026 383 1032 q 481 1006 450 1021 q 536 966 511 990 q 577 912 561 942 q 601 849 593 882 q 608 781 608 815 l 608 771 l 500 771 l 500 778 q 490 838 500 808 q 460 891 481 868 q 409 924 439 914 q 349 935 379 935 q 288 924 318 935 q 236 890 257 913 q 206 836 215 867 q 196 774 196 806 q 210 704 196 738 q 249 644 224 671 q 304 600 274 618 q 367 566 335 582 q 430 532 399 550 q 490 492 461 514 q 542 442 518 469 q 582 384 565 415 q 608 318 599 353 q 617 247 617 283 q 608 177 617 211 q 583 112 600 143 q 540 56 567 81 q 483 17 514 32 q 416 -5 451 1 q 346 -11 381 -11 m 332 1106 l 267 1158 l 428 1358 l 510 1294 l 332 1106 z "}}}
